<svg xmlns="http://www.w3.org/2000/svg" width="68.352" height="66.656" viewBox="0 0 68.352 66.656">
  <g id="Group_938" data-name="Group 938" transform="translate(237.004 764.048)">
    <path id="Path_707" data-name="Path 707" d="M-202.885-697.4q-10.478,0-20.955,0a13.636,13.636,0,0,1-3.856-.488,12.832,12.832,0,0,1-9.294-12.153c-.029-1.951-.005-3.9-.005-5.856q0-17.5,0-35a12.394,12.394,0,0,1,1.092-5.44c2.351-4.908,6.254-7.635,11.716-7.666,14.23-.081,28.461-.041,42.691-.022a12.827,12.827,0,0,1,12.829,12.451c.015.433.016.867.016,1.3q0,19.584,0,39.168a16.371,16.371,0,0,1-.377,3.873,12.832,12.832,0,0,1-12.38,9.837c-7.159-.023-14.317-.005-21.476-.005Zm.023-2.378h14.313c2.386,0,4.771.029,7.156-.008a10.389,10.389,0,0,0,10.025-8.12,15.577,15.577,0,0,0,.3-3.357q.03-19.449.009-38.9c0-.692-.047-1.386-.1-2.077a10.393,10.393,0,0,0-7.552-9,12.75,12.75,0,0,0-3.474-.412q-20.624.008-41.248,0c-.3,0-.607-.007-.911,0a10.434,10.434,0,0,0-10.006,8.318,13.251,13.251,0,0,0-.213,2.714q-.02,19.774-.009,39.547c0,.347,0,.694,0,1.041a10.39,10.39,0,0,0,6.8,9.577,11.206,11.206,0,0,0,3.952.669Q-213.336-699.784-202.861-699.774Z" fill="#243e56"/>
    <path id="Path_708" data-name="Path 708" d="M-171.925-699.635a68.651,68.651,0,0,1,8.208-.057c.424.877,9.388,30.462,9.877,32.6-.1.063-.2.178-.311.191-.764.09-5.43.038-6.309-.062a7.832,7.832,0,0,1-.318-.78c-.6-2.037-1.19-4.077-1.787-6.116-.121-.414-.259-.823-.386-1.225a1.194,1.194,0,0,0-.38-.162c-2.818-.008-5.635-.007-8.527-.007a5.613,5.613,0,0,0-.366.782c-.616,2.078-1.214,4.161-1.823,6.241-.121.413-.263.818-.385,1.194a25.75,25.75,0,0,1-6.048,0,3.959,3.959,0,0,1,.311-1.347q3.863-13.231,7.756-26.453a10.038,10.038,0,0,0,.49-3.448C-171.945-698.712-171.925-699.141-171.925-699.635Zm4.427,6.211a108,108,0,0,0-3.111,11.387,8.024,8.024,0,0,0-.107.871,30.509,30.509,0,0,0,6.349-.041C-164.452-682.185-166.916-691.858-167.5-693.424Z" transform="translate(-41.195 -46.834)" fill="#243e56"/>
    <path id="Path_709" data-name="Path 709" d="M-71.01-645.863c0-8.169,0-16.19,0-24.21a4.778,4.778,0,0,1,.071-.6,33.59,33.59,0,0,1,6.463-.088,3.961,3.961,0,0,1,.139.7c.02.737.01,1.474.01,2.212v21.919a13.961,13.961,0,0,1-3.28.137A25.848,25.848,0,0,1-71.01-645.863Z" transform="translate(-120.98 -67.908)" fill="#243e56"/>
    <path id="Path_710" data-name="Path 710" d="M-67.7-707.02a3.411,3.411,0,0,1,3.375,3.405,3.419,3.419,0,0,1-3.507,3.4,3.427,3.427,0,0,1-3.373-3.536A3.427,3.427,0,0,1-67.7-707.02Z" transform="translate(-120.836 -41.562)" fill="#243e56"/>
  </g>
</svg>
