<svg xmlns="http://www.w3.org/2000/svg" width="68.369" height="66.657" viewBox="0 0 68.369 66.657">
  <g id="Group_948" data-name="Group 948" transform="translate(845.887 763.987)">
    <path id="Path_711" data-name="Path 711" d="M-811.765-697.336q-10.48,0-20.96.006a13.436,13.436,0,0,1-4.477-.689A12.878,12.878,0,0,1-845.86-709.6c-.017-.346-.022-.694-.022-1.041q0-19.979,0-39.958a14.254,14.254,0,0,1,.771-4.857,12.8,12.8,0,0,1,12.072-8.518q17.77-.023,35.54,0c2.387,0,4.774-.011,7.16,0a12.769,12.769,0,0,1,12.452,9.9,11.988,11.988,0,0,1,.346,2.7c.021,13.8.047,27.593,0,41.39a12.725,12.725,0,0,1-9.4,12.2,13.652,13.652,0,0,1-3.732.454Q-801.22-697.343-811.765-697.336Zm.015-2.379h12.234c3.08,0,6.161.03,9.241-.008a10.45,10.45,0,0,0,10.067-8.091,12.046,12.046,0,0,0,.254-2.842v-39.556c0-.39,0-.781,0-1.171a10.414,10.414,0,0,0-7.455-9.76,12.578,12.578,0,0,0-3.6-.453q-20.628.009-41.257,0c-.3,0-.608-.007-.911,0a10.44,10.44,0,0,0-10,8.169,15.135,15.135,0,0,0-.288,3.229q-.028,19.518-.008,39.036a16.511,16.511,0,0,0,.1,2.077,10.23,10.23,0,0,0,6.6,8.635,10.324,10.324,0,0,0,4.07.732Q-822.228-699.723-811.75-699.715Z" transform="translate(0 0)" fill="#243e56"/>
    <path id="Path_712" data-name="Path 712" d="M-780.561-679.329c-.128,1.608-.036,3.076-.07,4.54s.093,2.936-.088,4.442a4.809,4.809,0,0,1-1.939.169c-.607.023-1.215.019-1.822,0a7.037,7.037,0,0,1-1.992-.122c-.034-.358-.091-.692-.092-1.026-.009-1.952,0-3.9,0-5.856q0-10.15,0-20.3c0-.47.022-.94.035-1.454a3.955,3.955,0,0,1,.681-.145c2.732-.055,5.465-.121,8.2-.14a15.654,15.654,0,0,1,5.626.872,8.94,8.94,0,0,1,6.147,8.363,13.1,13.1,0,0,1-.219,3.1,8.678,8.678,0,0,1-5.574,6.54,14.237,14.237,0,0,1-4.692.975c-.952.053-1.908.028-2.862.037C-779.615-679.326-780-679.329-780.561-679.329Zm.123-5.239a17.4,17.4,0,0,0,3.815-.034,9.7,9.7,0,0,0,2.128-.554,3.808,3.808,0,0,0,2.364-2.263,5.2,5.2,0,0,0,.019-3.561,3.565,3.565,0,0,0-1.954-2.147,9.874,9.874,0,0,0-1.722-.552,16.514,16.514,0,0,0-4.009-.149,3.14,3.14,0,0,0-.695.159A72.017,72.017,0,0,0-780.438-684.568Z" transform="translate(-43.227 -47.198)" fill="#243e56"/>
    <path id="Path_713" data-name="Path 713" d="M-699.072-652.648v-5.183c.424-.282.695.029.986.166a13.337,13.337,0,0,0,6.431,1.338,5.387,5.387,0,0,0,1.526-.271,1.245,1.245,0,0,0,.35-2.311,4.734,4.734,0,0,0-1-.6c-.63-.289-1.275-.547-1.921-.8a18.491,18.491,0,0,1-3.471-1.769,6.3,6.3,0,0,1,.553-10.937,9.009,9.009,0,0,1,3.338-1.02,21.447,21.447,0,0,1,5.835.232c.128.024.259.037.384.072,2.039.57,1.748.532,1.765,2.259.009.911.011,1.823-.007,2.733a4.948,4.948,0,0,1-.167.816,6.094,6.094,0,0,1-.907-.242,12.783,12.783,0,0,0-4.931-1.05,10.1,10.1,0,0,0-1.684.111,2.081,2.081,0,0,0-.838.327,1.135,1.135,0,0,0-.251,1.705,3.454,3.454,0,0,0,1,.8c.771.394,1.585.7,2.371,1.065,1.139.53,2.3,1.019,3.393,1.636a5.715,5.715,0,0,1,3.116,5.581,6.29,6.29,0,0,1-3.428,5.466,8.724,8.724,0,0,1-3.2,1.033,18.551,18.551,0,0,1-7.483-.48C-697.888-652.126-698.432-652.4-699.072-652.648Z" transform="translate(-106.973 -65.485)" fill="#243e56"/>
  </g>
</svg>
