<svg xmlns="http://www.w3.org/2000/svg" width="65.654" height="64.171" viewBox="0 0 65.654 64.171">
  <g id="N6wMSl.tif" transform="translate(-571.076 -1058.038)">
    <g id="Group_430" data-name="Group 430" transform="translate(571.076 1058.038)">
      <path id="Path_599" data-name="Path 599" d="M605.435,1058.038h4.408v6.71c.144.007.247.015.349.016l2.14,0q10.857,0,21.715.01a2.564,2.564,0,0,1,2.634,2.618c0,1.154.005,2.308.013,3.462,0,.177.024.353.037.53v40.235c-.042.289-.067.583-.129.868-.338,1.555-.562,1.868-2.219,2.145a14.064,14.064,0,0,1-2.291.132q-10.908.007-21.817-.009h-.43v7.436c-.092.006-.153.013-.213.013q-2.156,0-4.313,0a1.939,1.939,0,0,1-.343-.038c-2.868-.511-5.735-1.031-8.6-1.534q-5.529-.969-11.06-1.918l-12.238-2.122c-.668-.116-1.335-.235-2-.352v-52.214c.079-.021.14-.041.2-.052L582.647,1062q5.172-.9,10.345-1.8,5.205-.9,10.411-1.793C604.083,1058.3,604.758,1058.164,605.435,1058.038Zm22.275,48.5H609.867v5.955h24.622V1067H609.853v7.44l3.676-.751v9.734h9.847a2.122,2.122,0,0,1,0,.257c-.009.071-.047.14-.053.211a10.763,10.763,0,0,1-.888,3.4,9.016,9.016,0,0,1-2.7,3.616,9.5,9.5,0,0,1-5.357,2.091,12.435,12.435,0,0,1-3.314-.265c-.4-.083-.8-.181-1.2-.272v4.422H627.7v2.911H609.866v3.771H627.71ZM583,1077.746v23.935l4.5.386V1093.3c.136,0,.241-.009.343,0a13.15,13.15,0,0,0,3.033-.062,6.548,6.548,0,0,0,3.823-1.84,9.56,9.56,0,0,0,1.865-10.208,5.559,5.559,0,0,0-1.912-2.585,8.053,8.053,0,0,0-4.335-1.225c-1-.032-2.006.06-3.008.119-1.186.069-2.371.165-3.557.243C583.52,1077.76,583.29,1077.746,583,1077.746Z" transform="translate(-571.076 -1058.038)" fill="#243e56"/>
      <path id="Path_600" data-name="Path 600" d="M637.3,1089V1079.3a10.422,10.422,0,0,1,9.77,9.708Z" transform="translate(-593.266 -1065.161)" fill="#243e56"/>
      <path id="Path_601" data-name="Path 601" d="M595.888,1101.281c-.026-.321-.061-.568-.064-.815-.025-2.126-.04-4.252-.072-6.379,0-.276.071-.367.35-.356.533.019,1.068-.008,1.6.008a2.575,2.575,0,0,1,2.719,2.071,5.662,5.662,0,0,1-.248,3.683,2.32,2.32,0,0,1-1.805,1.414C597.57,1101.068,596.755,1101.153,595.888,1101.281Z" transform="translate(-579.344 -1069.998)" fill="#243e56"/>
    </g>
  </g>
</svg>
