<svg xmlns="http://www.w3.org/2000/svg" width="61.816" height="61.838" viewBox="0 0 61.816 61.838">
  <path id="Path_1260" data-name="Path 1260" d="M1066.9,1072.207a21.981,21.981,0,1,1-22.033,21.922A21.92,21.92,0,0,1,1066.9,1072.207Zm-20.177,21.931a20.156,20.156,0,0,0,40.312.115,20.349,20.349,0,0,0-19.72-20.247A20.144,20.144,0,0,0,1046.724,1094.138Zm39.8,19.63c.746.746,1.492,1.492,2.277,2.278l2.087-2.327-5.033-4.039-1.618,1.806Zm4.323-39.1a13.481,13.481,0,0,0-2.068-2.25l-4.487,4.552,1.606,1.751Zm-41.334,36.823-1.674-1.846-5,4.067,2.053,2.3Zm32.738-36.419,4.082-4.968-2.558-1.859-3.493,5.432Zm8.845,22.823a33.929,33.929,0,0,0,6.389.88q.145-1.44.293-2.914l-6.4-.339C1091.272,1096.387,1091.184,1097.141,1091.1,1097.892Zm-37.618,16.813-1.972-1.42-4.051,4.956a18.741,18.741,0,0,0,2.5,1.82Zm19.7-44.23c.511-2.093,1.118-4.107,1.57-6.181a19,19,0,0,0-2.985-.647l-.973,6.333Zm7.686,51.261-2.918-5.676-2.191.966,2.271,6.009A17.062,17.062,0,0,0,1080.867,1121.735Zm-35.827-38.72,1.221-2.109c-1.8-1.175-3.56-2.337-5.417-3.49l-1.549,2.654Zm46.061,7.4.27,2.395c2.148-.089,4.262-.169,6.4-.328l-.309-3.075Zm1.774,20.565,1.549-2.679-5.742-2.93-1.216,2.1Zm-39.424-37.32-3.513-5.412-2.505,1.832,4.063,5Zm37.075,26.943-.723,2.293,6.007,2.3c.334-1.014.64-1.943.97-2.949Zm-.732-15.142.743,2.28,6.228-1.654c-.325-1-.628-1.932-.961-2.954Zm-18.012,39.29,3-.646c-.562-2.127-1.1-4.166-1.639-6.212l-2.365.489Zm-11.189-54.282,2.373-.5c-.4-2.156-.655-4.25-1.085-6.354l-2.964.645Zm-7.7,51.32a21.524,21.524,0,0,0,2.836,1.225c.77-2.033,1.518-4.01,2.264-5.985l-2.188-.967Zm-7.985-49.377a14.959,14.959,0,0,0-2,2.284l4.966,3.983,1.637-1.783Zm-4.062,38.543,5.429-3.484-1.223-2.105-5.728,2.955Zm-4.884-18.515c2.17.15,4.277.29,6.408.323l.273-2.359-6.364-.994Zm19.875-20.161,2.184-.962-2.279-5.949a15.545,15.545,0,0,0-2.843,1.215Zm25-5.686a15.3,15.3,0,0,0-2.8-1.22l-2.3,5.952,2.23.991Zm-17.886,51.783-2.366-.476c-.5,2.109-1.155,4.115-1.6,6.228l2.95.615C1062.276,1122.583,1062.613,1120.482,1062.95,1118.376Zm19.144-5-1.782,1.311c1.188,1.8,2.269,3.614,3.518,5.406l2.416-1.762A40.03,40.03,0,0,0,1082.094,1113.372Zm12.318-33.324a21.68,21.68,0,0,0-1.575-2.625l-5.355,3.492,1.212,2.063Zm-56.4,25.1,5.937-2.253-.748-2.26-6.231,1.637A17.153,17.153,0,0,0,1038.016,1105.146Zm-1.044-19.06,6.245,1.658.711-2.281-6.007-2.282Zm31.071,32.583h-2.359l-.382,6.371h3.079C1068.285,1122.891,1068.217,1120.774,1068.043,1118.669Zm-2.216-49c.357,0,.727.012,1.1,0a2.582,2.582,0,0,0,1.155-.11c.057-2.057.29-4.115.244-6.2a6.729,6.729,0,0,0-2.9.007A32.867,32.867,0,0,0,1065.827,1069.667Zm-23.463,25.918c-1.8.081-3.521.155-5.247.239-.382.019-.763.081-1.151.123l.314,2.957,6.377-.995Zm24.492-19.79c9.637-.247,18.375,8.125,18.375,18.406a18.4,18.4,0,0,1-36.806-.043C1048.452,1083.713,1057.372,1075.514,1066.856,1075.8Zm-.012,34.887a16.424,16.424,0,0,0,16.544-16.5,16.664,16.664,0,0,0-16.506-16.613c-9.206-.044-16.841,7.923-16.564,16.611A16.437,16.437,0,0,0,1066.844,1110.683Zm-.013-1.758c-7.9.208-14.8-6.692-14.763-14.806a14.782,14.782,0,1,1,29.564.169C1081.587,1102.368,1074.611,1109.176,1066.83,1108.925Zm12.9-14.761c.244-6.731-5.757-12.786-12.581-12.92a13.131,13.131,0,0,0-13.246,12.524,12.993,12.993,0,0,0,12.555,13.343C1073.127,1107.4,1079.918,1101.808,1079.732,1094.163Zm-13.954,10.653c.5,0,.972,0,1.439,0,.243,0,.485-.026.751-.042V1083.6h-2.19Zm7.03-2.35v-16.514a1.821,1.821,0,0,0-.013-.444.619.619,0,0,0-.206-.365,7.69,7.69,0,0,0-1.937-.925v19.946c.305-.122.587-.213.848-.345.418-.212.823-.451,1.308-.72Zm-9.7-18.321c-.554.269-1.025.525-1.518.73a1,1,0,0,0-.643,1.1c.02,5.452.012,10.9.012,16.357a1.971,1.971,0,0,1,0,.3.636.636,0,0,0,.422.7l1.728.876Zm12.335,16.4a10.715,10.715,0,0,0,0-12.728Zm-17.1-.118v-12.595C1055.418,1091.25,1055.573,1097.367,1058.34,1100.43Z" transform="translate(-1035.961 -1063.202)" fill="#243e56"/>
</svg>
