<svg xmlns="http://www.w3.org/2000/svg" width="52.271" height="61.838" viewBox="0 0 52.271 61.838">
  <path id="Path_1261" data-name="Path 1261" d="M811.939,1061.008v3.095c-2.073,2.032-2.208,3.829-.534,5.6a3.375,3.375,0,0,0,4.908-.077c1.508-1.559,1.256-3.5-.777-5.611.045-1.047-.288-2.178.3-3.4h1.467q16.243,0,32.487,0a6.864,6.864,0,0,1,7.051,6.555c.427,4.721.92,9.437,1.393,14.153a9.489,9.489,0,0,1-.328,4.1,7.386,7.386,0,0,1-6.9,4.947c-2.026.045-4.054.014-6.082.014-10.285,0-20.57.012-30.856-.019a10.363,10.363,0,0,1-3.058-.431,7.109,7.109,0,0,1-4.968-6.84c0-1.576.2-3.153.349-4.726q.536-5.6,1.116-11.2a7.113,7.113,0,0,1,2.605-5.139A14.8,14.8,0,0,1,811.939,1061.008Zm20.122,20.412h9.785c.346,0,.694.017,1.037-.012a1.083,1.083,0,0,0,1.1-1.152,11.375,11.375,0,0,0-.062-1.183c-.175-2.215-.356-4.429-.531-6.644-.117-1.477-.214-2.954-.339-4.431-.131-1.547-.666-1.933-2.024-1.925-5.93.04-11.86.017-17.791.017-.2,0-.4-.006-.592.011a1.206,1.206,0,0,0-1.17.958,7.266,7.266,0,0,0-.2,1.165q-.456,5.61-.893,11.221c-.133,1.677.139,1.969,1.892,1.972C825.538,1081.425,828.8,1081.42,832.061,1081.42Zm-12.371-12.1a1.712,1.712,0,0,0-1.108,1.566c-.276,3.345-.561,6.69-.786,10.037a3.2,3.2,0,0,0,2.956,3.449,9.221,9.221,0,0,0,1.037.02h17.19c.247,0,.495.014.74-.007,1.019-.083,1.211-.342,1.152-1.7H839.29q-8.668,0-17.338,0c-2.113,0-2.965-.889-2.849-3.015.1-1.872.292-3.739.44-5.609q.175-2.213.335-4.427C819.884,1069.554,819.787,1069.473,819.69,1069.317Zm16,46.815a12.685,12.685,0,0,0,7.126-3.663,6.233,6.233,0,0,0,0-8.826,11.535,11.535,0,0,0-5.784-3.134c-.821-.209-1.232.118-1.3.954-.054.638,0,1.285-.026,1.926a3.538,3.538,0,1,1-7.076.02c-.028-.592.019-1.188-.016-1.779-.061-1.023-.456-1.345-1.441-1.09a12.089,12.089,0,0,0-5.226,2.672,6.236,6.236,0,0,0-.425,9.226,12.337,12.337,0,0,0,2.933,2.219,16.711,16.711,0,0,0,8.288,1.836C833.347,1116.424,834.538,1116.366,835.694,1116.132Zm-5.8-12.677a2.355,2.355,0,0,0,2.4,2.339,2.4,2.4,0,0,0,2.358-2.515c.008-.148.006-.3.006-.445,0-3.36.013-6.72.008-10.08a12.24,12.24,0,0,0-.133-1.231c-1.17,0-2.249-.006-3.327,0-.387,0-.774.041-1.332.073C829.872,1095.663,829.828,1099.56,829.9,1103.455Zm-13.253-46.222c-1.691.512-2.168,1.06-2.2,2.588-.029,1.628-.007,3.258-.007,4.84,1.647,1.289,2.056,2.156,1.618,3.349a2.428,2.428,0,0,1-4.61-.087c-.379-1.177.057-2.055,1.655-3.223,0-1.569-.008-3.2,0-4.825a3.7,3.7,0,0,1,3.02-4,1.915,1.915,0,0,0,.869-.454,2.347,2.347,0,0,1,1.992-.768c.988.03,1.978-.02,2.966.017a1.857,1.857,0,1,1,.005,3.706c-.74.035-1.484-.026-2.224.017C818.5,1058.472,817.357,1058.368,816.642,1057.233Zm-1.765,10.04a1.107,1.107,0,1,0-2.212-.037,1.186,1.186,0,0,0,1.014,1.087A1.171,1.171,0,0,0,814.877,1067.273Zm3.676-11.884c-.751,1-.732,1.471.01,2.186C819.2,1056.736,819.2,1056.456,818.553,1055.389Zm1.959.025c-.939.721-.96,1.387-.131,2.2C821.019,1056.967,820.9,1056.286,820.512,1055.414Zm1.538,2.267c.748-1.006.727-1.474-.017-2.187C821.4,1056.344,821.4,1056.628,822.049,1057.681Z" transform="translate(-806.045 -1054.656)" fill="#243e56"/>
</svg>
