<svg xmlns="http://www.w3.org/2000/svg" width="68.369" height="66.707" viewBox="0 0 68.369 66.707">
  <g id="Group_941" data-name="Group 941" transform="translate(2063.434 764.003)">
    <path id="Path_717" data-name="Path 717" d="M-2029.362-697.3c-7.035,0-14.07-.012-21.1.006a12.485,12.485,0,0,1-7.989-2.688,12.515,12.515,0,0,1-4.963-9.633c-.019-.39-.016-.781-.016-1.172q0-19.862,0-39.724a15.544,15.544,0,0,1,.283-3.365,12.8,12.8,0,0,1,12.443-10.108q21.43-.034,42.859,0A12.825,12.825,0,0,1-1995.18-752.9a13.334,13.334,0,0,1,.094,1.819c.005,13.632-.036,27.264.022,40.9a12.9,12.9,0,0,1-10.856,12.739,15.413,15.413,0,0,1-2.467.137Q-2018.874-697.293-2029.362-697.3Zm-.008-2.38h7.033c4.819,0,9.638.027,14.457-.009a10.436,10.436,0,0,0,10.021-7.662,12.172,12.172,0,0,0,.4-3.347q-.012-19.923-.005-39.846c0-.3,0-.608-.005-.911a10.493,10.493,0,0,0-7.68-9.747,12.43,12.43,0,0,0-3.349-.4q-20.709.006-41.417,0c-.3,0-.608-.007-.912,0a10.442,10.442,0,0,0-10.049,8.752,15.243,15.243,0,0,0-.167,2.591q-.015,19.662-.007,39.325c0,.391,0,.781.013,1.172a10.477,10.477,0,0,0,7.486,9.628,11.519,11.519,0,0,0,3.34.453Q-2039.789-699.691-2029.369-699.682Z" fill="#243e56"/>
    <path id="Path_718" data-name="Path 718" d="M-2010.884-669.157a29.082,29.082,0,0,1-5.127.017c-.231-.487.073-.921.2-1.353q2.5-8.615,5.04-17.22c.573-1.955,1.121-3.917,1.722-5.863a8.573,8.573,0,0,0,.46-3.063,8.926,8.926,0,0,1,.066-1.113,44.827,44.827,0,0,1,7.141-.073c.108.276.251.583.348.9q4.036,13.381,8.061,26.766c.1.32.139.656.207.988a35,35,0,0,1-5.836.018c-.829-2.329-1.35-4.79-2.164-7.109a47.454,47.454,0,0,0-7.948.019c-.342,1.146-.689,2.346-1.059,3.538A28.261,28.261,0,0,1-2010.884-669.157Zm8.872-12.449a2.048,2.048,0,0,0-.005-.5q-1.259-4.915-2.539-9.825c-.03-.115-.141-.208-.259-.374-.109.293-.22.524-.283.767q-1.193,4.6-2.369,9.2a3.924,3.924,0,0,0-.048.736A28.376,28.376,0,0,0-2002.012-681.605Z" transform="translate(-34.489 -48.139)" fill="#243e56"/>
    <path id="Path_719" data-name="Path 719" d="M-1918.594-653.881a4.492,4.492,0,0,0,1.8,3.749,5.567,5.567,0,0,0,2.882,1.095,14.409,14.409,0,0,0,5.285-.433c.326-.09.653-.175,1.026-.274a16.473,16.473,0,0,1,.766,3.095,1.967,1.967,0,0,1-.422.306,16.451,16.451,0,0,1-8.708.784,8.414,8.414,0,0,1-7.164-7.552,12.17,12.17,0,0,1,.669-6.268c2.08-5.323,7.114-6.574,11.114-5.484a6.85,6.85,0,0,1,4.2,3.277,10.317,10.317,0,0,1,1.386,4.957,6.259,6.259,0,0,1-.189,2.53,2.736,2.736,0,0,1-1.447.171c-3.209.009-6.418,0-9.628.007C-1917.5-653.92-1917.968-653.9-1918.594-653.881Zm.033-3.573a1.517,1.517,0,0,0,.414.156q3.708.012,7.415,0a1.475,1.475,0,0,0,.409-.149,4.665,4.665,0,0,0-1.029-3.241,3.048,3.048,0,0,0-1.732-1.09,4.07,4.07,0,0,0-3.587.645A4.946,4.946,0,0,0-1918.561-657.454Z" transform="translate(-102.118 -71.967)" fill="#243e56"/>
  </g>
</svg>
