<svg xmlns="http://www.w3.org/2000/svg" width="68.381" height="66.71" viewBox="0 0 68.381 66.71">
  <g id="Group_943" data-name="Group 943" transform="translate(2367.932 764.047)">
    <path id="Path_725" data-name="Path 725" d="M-2333.736-697.343q-10.55,0-21.1.006a12.236,12.236,0,0,1-5.32-1.053c-4.885-2.3-7.563-6.134-7.717-11.551-.114-4.034-.023-8.073-.023-12.11q0-14.455-.008-28.91a12.381,12.381,0,0,1,1.386-6.025c2.436-4.506,6.233-6.987,11.359-7.014,14.284-.074,28.569-.045,42.853-.017a12.794,12.794,0,0,1,12.744,12.537c.009.347.009.695.009,1.042q0,19.794,0,39.589a15.253,15.253,0,0,1-.436,4,12.837,12.837,0,0,1-12.258,9.511q-9.769-.017-19.538,0Zm-.063-2.38h20.576c.391,0,.781.008,1.172-.005a10.444,10.444,0,0,0,9.926-8.732,16.344,16.344,0,0,0,.188-2.59q.018-19.594.009-39.189c0-.434.013-.87-.02-1.3a10.392,10.392,0,0,0-6.142-9.134,10.766,10.766,0,0,0-4.807-.964q-20.771.008-41.542,0c-.261,0-.521,0-.781,0a10.5,10.5,0,0,0-9.866,7.531,11.548,11.548,0,0,0-.422,3.342q.014,14,.005,27.992c0,4.21-.055,8.42.016,12.629a10.135,10.135,0,0,0,5.936,9.373,10.28,10.28,0,0,0,4.787,1.045Q-2344.282-699.733-2333.8-699.723Z" transform="translate(0 0)" fill="#243e56"/>
    <path id="Path_726" data-name="Path 726" d="M-2219.134-685.539a20.085,20.085,0,0,0,.082-2.729c.011-.911,0-1.822,0-2.732,0-.863.016-1.725.025-2.608a6.49,6.49,0,0,1,2.732-.211,12.573,12.573,0,0,1,2.765.085,5.983,5.983,0,0,1,.145.757c.024.389.01.78.009,1.171q0,10.148,0,20.3c0,1.431.056,2.861.083,4.292.007.383,0,.766,0,1.164a8.46,8.46,0,0,1-.862.43,20.385,20.385,0,0,1-9.333,1.186,11.454,11.454,0,0,1-3.011-.784,8.725,8.725,0,0,1-5.393-6.09,12.086,12.086,0,0,1-.264-5.287,10.525,10.525,0,0,1,8.738-8.667c1.062-.182,2.155-.191,3.234-.269C-2219.879-685.557-2219.578-685.539-2219.134-685.539Zm0,5.026a4.2,4.2,0,0,0-3.065-.091,5.267,5.267,0,0,0-4,3.544,6.992,6.992,0,0,0,.264,4.96,4.145,4.145,0,0,0,1.729,2.057,6.851,6.851,0,0,0,4.993.642,2,2,0,0,0,.133-.45q.018-5.006.019-10.013A5.582,5.582,0,0,0-2219.129-680.512Z" transform="translate(-98.803 -51.138)" fill="#243e56"/>
    <path id="Path_727" data-name="Path 727" d="M-2298.237-685.259a21.291,21.291,0,0,1-1.835,3.254c-.6,1.054-1.254,2.081-1.884,3.12q-.979,1.614-1.958,3.228c-.628,1.038-1.252,2.079-1.848,3.069a2.932,2.932,0,0,0,.632,1.341q3.411,5.62,6.838,11.23a2.807,2.807,0,0,1,.562,1.219,4.606,4.606,0,0,1-.667.107c-1.693.008-3.386-.014-5.079.015a1.5,1.5,0,0,1-1.514-.96c-1.333-2.582-2.73-5.132-4.108-7.692-.2-.379-.431-.744-.64-1.1-.473.107-.526.5-.682.79-1.379,2.559-2.743,5.126-4.118,7.688-.224.417-.474.819-.682,1.176a37.912,37.912,0,0,1-6.126.042,2.042,2.042,0,0,1,.133-.588c.456-.789.938-1.562,1.412-2.341q2.813-4.613,5.625-9.225c.223-.366.427-.744.66-1.151-1.318-2.234-2.619-4.435-3.916-6.64-1.27-2.159-2.561-4.306-3.762-6.39a1.266,1.266,0,0,1,.111-.263.185.185,0,0,1,.117-.052c1.735-.017,3.469-.034,5.2-.042.3,0,.6.037.981.062.55,1.069,1.086,2.15,1.659,3.212.6,1.107,1.233,2.194,1.844,3.293.588,1.056,1.167,2.117,1.739,3.157.454-.039.484-.4.616-.65q2.232-4.193,4.448-8.4c.1-.19.223-.368.322-.529A29.622,29.622,0,0,1-2298.237-685.259Z" transform="translate(-33.944 -57.283)" fill="#243e56"/>
  </g>
</svg>
