<svg xmlns="http://www.w3.org/2000/svg" width="68.396" height="66.71" viewBox="0 0 68.396 66.71">
  <g id="Group_944" data-name="Group 944" transform="translate(2672.344 763.996)">
    <path id="Path_728" data-name="Path 728" d="M-2638.2-697.294c-7.035,0-14.071-.014-21.105.007a12.519,12.519,0,0,1-7.366-2.2,12.668,12.668,0,0,1-5.66-10.464c-.013-.347-.006-.695-.006-1.042q0-19.668,0-39.336a15.28,15.28,0,0,1,.553-4.5,12.81,12.81,0,0,1,12.28-9.147q16.35-.026,32.7-.005c3.3,0,6.6.028,9.9-.006a12.883,12.883,0,0,1,12.873,11.316,11.035,11.035,0,0,1,.079,1.429q.007,20.58,0,41.159a12.78,12.78,0,0,1-9.4,12.344,13.572,13.572,0,0,1-3.734.457Q-2627.65-697.3-2638.2-697.294Zm.071-2.38h6.382c4.993,0,9.986.027,14.979-.009a10.43,10.43,0,0,0,10.091-7.908,12.308,12.308,0,0,0,.345-3.1q-.007-19.989,0-39.978c0-.217,0-.434,0-.651a10.457,10.457,0,0,0-8.066-9.967,13.164,13.164,0,0,0-2.968-.3q-20.775-.028-41.55-.013c-.26,0-.521-.006-.781,0a10.462,10.462,0,0,0-10.041,8.617,14.307,14.307,0,0,0-.166,2.592q-.014,19.729-.006,39.457c0,.347,0,.695.006,1.042a10.43,10.43,0,0,0,7.473,9.761,11.493,11.493,0,0,0,3.34.455Q-2648.618-699.682-2638.132-699.674Z" fill="#243e56"/>
    <path id="Path_729" data-name="Path 729" d="M-2608.8-693.519c.3-.275.59-.538.88-.8a15.579,15.579,0,0,1,25.615,8.14,15.389,15.389,0,0,1-12.933,18.764,17.069,17.069,0,0,1-2.2.172q-6.71.023-13.419,0a12.667,12.667,0,0,1-8.425-2.963c-4.193-3.561-5.78-8.133-4.443-13.441s4.91-8.559,10.263-9.767a9.811,9.811,0,0,1,3.756-.167A8.591,8.591,0,0,0-2608.8-693.519Zm5.742,2.485c.438-.23.779-.417,1.127-.59a9.483,9.483,0,0,1,4.007-1.018,9.777,9.777,0,0,1,10.062,9.737,9.868,9.868,0,0,1-12.564,9.471,9.769,9.769,0,0,1-4.291-2.61c-1.728-1.71-3.441-3.435-5.161-5.153-.215-.215-.417-.444-.65-.639a1.286,1.286,0,0,0-1.87.021,1.406,1.406,0,0,0-.175,1.893,6.576,6.576,0,0,0,.706.765q2.437,2.443,4.882,4.879c.338.337.682.67,1.046.977a12.292,12.292,0,0,0,13.728,2.021,12.542,12.542,0,0,0,6.571-15.94,12.794,12.794,0,0,0-19.1-6.089c-.28.189-.53.423-.867.7Zm-3.6,20.766a1.147,1.147,0,0,0-.168-.295c-.471-.449-1-.85-1.42-1.339a2.675,2.675,0,0,0-2.618-1.069,1.121,1.121,0,0,1-.26,0,7.4,7.4,0,0,1-7.019-7.478,7.1,7.1,0,0,1,4.495-6.736,7,7,0,0,1,7.964,1.411c.831.763,1.6,1.588,2.4,2.384.646.643,1.272,1.308,1.945,1.922a1.263,1.263,0,0,0,1.865.032,1.468,1.468,0,0,0,.136-2,7.568,7.568,0,0,0-.626-.66c-1.288-1.291-2.57-2.588-3.868-3.868a9.7,9.7,0,0,0-7.693-2.876,10.325,10.325,0,0,0-9.438,12.761,10.65,10.65,0,0,0,10.047,8.006c1.216,0,2.432,0,3.647-.006C-2607.067-670.084-2606.829-670-2606.659-670.268Z" transform="translate(-35.079 -47.858)" fill="#243e56"/>
  </g>
</svg>
