<svg xmlns="http://www.w3.org/2000/svg" width="61.738" height="61.739" viewBox="0 0 61.738 61.739">
  <g id="Group_945" data-name="Group 945" transform="translate(-1487.951 -1067.236)">
    <path id="Path_605" data-name="Path 605" d="M1490.132,1128.975h57.38a2.155,2.155,0,0,0,2.179-2.179v-57.379a2.156,2.156,0,0,0-2.179-2.181h-57.38a2.158,2.158,0,0,0-2.181,2.181V1126.8a2.189,2.189,0,0,0,2.181,2.179ZM1538.1,1071.6h7.232v10H1538.1Zm0,14.359h7.232v10h-7.286v-10Zm.052,14.359h7.285v10h-7.23v-10Zm-.052,14.356h7.232v10H1538.1ZM1503.9,1071.6h29.832v24.355H1503.9Zm0,28.718h29.832v24.353H1503.9Zm-11.593-28.718h7.233v10h-7.233Zm0,14.359h7.233v10h-7.233Zm0,14.359h7.233v10h-7.233Zm0,14.356h7.233v10h-7.233Zm0,0" fill="#243e56"/>
  </g>
</svg>
