<svg xmlns="http://www.w3.org/2000/svg" width="68.395" height="66.674" viewBox="0 0 68.395 66.674">
  <g id="Group_946" data-name="Group 946" transform="translate(541.449 763.989)">
    <path id="Path_730" data-name="Path 730" d="M-507.324-697.321c-7.032,0-14.064-.011-21.1.006a12.356,12.356,0,0,1-5.9-1.355,12.736,12.736,0,0,1-7.121-11.182c-.011-.173,0-.347,0-.521q0-20.31,0-40.619a13.12,13.12,0,0,1,.4-3.22,12.779,12.779,0,0,1,12.442-9.766q17.059-.028,34.117-.006c2.865,0,5.73-.013,8.595,0a12.748,12.748,0,0,1,12.419,9.78,13.785,13.785,0,0,1,.4,3.217q.039,20.375.008,40.75a12.822,12.822,0,0,1-9.425,12.463,13.6,13.6,0,0,1-3.733.454Q-496.776-697.328-507.324-697.321Zm.017-2.379h12.888c2.864,0,5.728.03,8.592-.008a10.449,10.449,0,0,0,10.036-7.969,12.571,12.571,0,0,0,.3-3.1q0-19.848,0-39.7c0-.52-.009-1.042-.052-1.56a10.423,10.423,0,0,0-7.424-9.113,12.68,12.68,0,0,0-3.6-.452q-20.7.009-41.4,0c-.26,0-.522-.011-.781,0a10.377,10.377,0,0,0-9.409,6.317,11.1,11.1,0,0,0-.866,4.824q.013,19.783.007,39.566c0,.52.008,1.042.046,1.56a10.05,10.05,0,0,0,3.241,6.758,10.316,10.316,0,0,0,7.33,2.862Q-517.852-699.7-507.307-699.7Z" fill="#243e56"/>
    <path id="Path_731" data-name="Path 731" d="M-481.4-681.865c0,2.723,0,5.269,0,7.813a2.809,2.809,0,0,0,1.488.208c3.6.007,7.2,0,10.8.009a2.153,2.153,0,0,1,1.348.2c-.294,1.584-.807,3.133-1.249,4.749a7.727,7.727,0,0,1-.913.11q-7.939.01-15.877,0c-.3,0-.591-.041-.964-.069-.032-.432-.083-.809-.085-1.185q-.01-4.229,0-8.458v-19.82c.392-.415.806-.3,1.18-.3,2.906-.01,5.813-.006,8.72-.006h7.845c.663,1.572.934,3.194,1.424,4.709-.313.465-.74.324-1.107.325-3.514.011-7.028.006-10.542.007-.434,0-.868-.007-1.3.01a4.777,4.777,0,0,0-.612.1,1.6,1.6,0,0,0-.133.409q-.016,2.732-.011,5.464a3.766,3.766,0,0,0,.1.569c.407.03.784.08,1.161.081q4.1.011,8.2,0h1.354a9.357,9.357,0,0,1,.15,2.493,12.821,12.821,0,0,1-.032,2.311,2.145,2.145,0,0,1-1.307.193c-2.733.008-5.466,0-8.2.007C-480.39-681.935-480.814-681.9-481.4-681.865Z" transform="translate(-39.783 -47.63)" fill="#243e56"/>
    <path id="Path_732" data-name="Path 732" d="M-381.392-648.178a23.993,23.993,0,0,1-5.351.036,2.017,2.017,0,0,1-.15-1.238q-.012-6.377,0-12.755c0-.087,0-.174,0-.26.08-1.253-.155-1.563-1.577-1.944a2.776,2.776,0,0,0-1.792.091c-.517.213-1.018.466-1.586.73-.022.463-.058.889-.06,1.315q-.024,5.726-.036,11.453c0,.864-.035,1.724-.09,2.556a23.576,23.576,0,0,1-5.324.1,3.6,3.6,0,0,1-.148-.7c-.019-.954-.01-1.909-.01-2.863q0-8.2,0-16.4c0-.467.032-.934.049-1.387a1.767,1.767,0,0,1,.439-.151c1.084-.012,2.169-.007,3.254-.014a1.258,1.258,0,0,1,1.291.892c.151.4.31.795.508,1.3.347-.323.635-.571.9-.842A6.018,6.018,0,0,1-386-670.1a4.287,4.287,0,0,1,3.71,2.477,9.126,9.126,0,0,1,.843,3.388c.045.561.051,1.127.052,1.69q.006,6.638,0,13.276Z" transform="translate(-104.88 -68.394)" fill="#243e56"/>
  </g>
</svg>
