<svg xmlns="http://www.w3.org/2000/svg" width="68.369" height="66.71" viewBox="0 0 68.369 66.71">
  <g id="Group_947" data-name="Group 947" transform="translate(1759 763.993)">
    <path id="Path_720" data-name="Path 720" d="M-1724.884-697.29q-10.618,0-21.236,0a12.364,12.364,0,0,1-7.764-2.581,12.272,12.272,0,0,1-5.1-10.082c-.034-13.763,0-27.527-.018-41.29a12.831,12.831,0,0,1,12.808-12.742q21.367-.015,42.733,0a12.809,12.809,0,0,1,12.663,10.788,14.6,14.6,0,0,1,.151,2.336q.012,20.189.014,40.378a12.734,12.734,0,0,1-2.184,7.5,12.48,12.48,0,0,1-10.7,5.678C-1710.64-697.272-1717.762-697.29-1724.884-697.29Zm.037-2.38h3c6.122,0,12.244.023,18.366-.009a10.448,10.448,0,0,0,10.055-7.622,12.425,12.425,0,0,0,.406-3.478q-.008-19.859,0-39.718c0-.347.008-.7-.017-1.041a10.329,10.329,0,0,0-5.812-8.942,10.868,10.868,0,0,0-5.164-1.119q-20.775.009-41.551,0c-.26,0-.521-.005-.781,0a10.451,10.451,0,0,0-10.1,8.842,14.588,14.588,0,0,0-.155,2.332q-.014,19.794-.007,39.588c0,.347-.014.7.007,1.042a10.388,10.388,0,0,0,4.325,8.1,10.379,10.379,0,0,0,6.339,2.019Q-1735.4-699.674-1724.848-699.67Z" transform="translate(0 0)" fill="#243e56"/>
    <path id="Path_721" data-name="Path 721" d="M-1684.777-680.144a18.654,18.654,0,0,0-.074,2.627c-.013.91,0,1.821,0,2.732,0,.867,0,1.735,0,2.6s-.018,1.719-.027,2.54a12.277,12.277,0,0,1-4.743.1,5.136,5.136,0,0,1-.111-.718c-.015-.78-.007-1.561-.007-2.342q0-12.62,0-25.241a3.416,3.416,0,0,1,.123-1.514,2.1,2.1,0,0,1,1.279-.253c2.3-.031,4.6-.074,6.9-.053a12.329,12.329,0,0,1,4.323.83,8.249,8.249,0,0,1,5.486,6.562,11.9,11.9,0,0,1-.123,4.909,8.447,8.447,0,0,1-4.707,5.883,13.593,13.593,0,0,1-5.405,1.278c-.649.034-1.3,0-1.951.006C-1684.113-680.195-1684.407-680.166-1684.777-680.144Zm.042-15.068a4.017,4.017,0,0,0-.108.6q-.008,4.681,0,9.362a2.288,2.288,0,0,0,.168.592,15.183,15.183,0,0,0,3.427,0,8.335,8.335,0,0,0,1.762-.43,4.337,4.337,0,0,0,2.906-3.24,7.135,7.135,0,0,0,.017-3.353,4.256,4.256,0,0,0-2.8-3.173,6.31,6.31,0,0,0-1.506-.384A18.517,18.517,0,0,0-1684.735-695.212Z" transform="translate(-50.443 -46.861)" fill="#243e56"/>
    <path id="Path_722" data-name="Path 722" d="M-1606.956-669.447a23.5,23.5,0,0,1,10.283-1.955,10.412,10.412,0,0,1-.011,4.362c-1.686.175-3.449-.054-5.086.6a2.373,2.373,0,0,0-.187,1.421q-.014,7.294-.008,14.587c0,.471-.027.942-.042,1.453a6.029,6.029,0,0,1-2.354.2c-.776.023-1.554-.011-2.381-.02a5.143,5.143,0,0,1-.2-.776c-.033-.344-.012-.694-.012-1.041q0-7.814,0-15.629Z" transform="translate(-110.767 -67.412)" fill="#243e56"/>
  </g>
</svg>
