<svg xmlns="http://www.w3.org/2000/svg" width="87.541" height="103.562" viewBox="0 0 87.541 103.562">
  <path id="Path_602" data-name="Path 602" d="M815.916,1065.294v5.183c-3.472,3.4-3.7,6.413-.9,9.378a5.653,5.653,0,0,0,8.22-.129c2.526-2.611,2.1-5.86-1.3-9.4.076-1.754-.482-3.648.508-5.695H824.9q27.2,0,54.407.005c6.527.007,11.22,4.474,11.809,10.978.715,7.907,1.541,15.8,2.333,23.7a15.9,15.9,0,0,1-.55,6.871,12.369,12.369,0,0,1-11.557,8.285c-3.393.075-6.79.023-10.185.023-17.225,0-34.45.02-51.675-.031a17.363,17.363,0,0,1-5.121-.721,11.906,11.906,0,0,1-8.32-11.455c.007-2.639.333-5.281.585-7.915q.9-9.385,1.869-18.763a11.912,11.912,0,0,1,4.363-8.606A24.782,24.782,0,0,1,815.916,1065.294Zm33.7,34.185H866c.579,0,1.162.029,1.737-.021a1.813,1.813,0,0,0,1.839-1.93,19.059,19.059,0,0,0-.1-1.981c-.293-3.71-.6-7.418-.889-11.127-.2-2.473-.358-4.948-.567-7.42-.22-2.591-1.115-3.238-3.39-3.223-9.932.066-19.863.028-29.795.029-.331,0-.664-.01-.992.019a2.02,2.02,0,0,0-1.959,1.6,12.191,12.191,0,0,0-.328,1.951q-.764,9.4-1.495,18.793c-.222,2.809.233,3.3,3.169,3.3Q841.421,1099.493,849.615,1099.479Zm-20.718-20.27a2.867,2.867,0,0,0-1.855,2.623c-.462,5.6-.94,11.2-1.316,16.81a5.359,5.359,0,0,0,4.95,5.777,15.428,15.428,0,0,0,1.736.034q14.394,0,28.788,0c.413,0,.829.023,1.24-.011,1.706-.139,2.028-.573,1.93-2.848h-2.648q-14.517,0-29.036-.007c-3.538-.006-4.965-1.489-4.771-5.05.17-3.135.489-6.262.737-9.393q.293-3.707.561-7.414C829.221,1079.606,829.06,1079.47,828.9,1079.209Zm26.8,78.4c4.538-.917,8.721-2.637,11.935-6.134a10.438,10.438,0,0,0,0-14.781,19.319,19.319,0,0,0-9.687-5.248c-1.375-.35-2.063.2-2.182,1.6-.091,1.069.005,2.152-.043,3.226a5.926,5.926,0,1,1-11.851.033c-.047-.991.032-1.989-.026-2.979-.1-1.713-.763-2.253-2.413-1.826a20.246,20.246,0,0,0-8.752,4.475c-4.736,4.305-5.1,10.805-.711,15.452a20.655,20.655,0,0,0,4.912,3.716c3.98,2.224,8.367,3.011,13.881,3.075C851.768,1158.1,853.763,1158,855.7,1157.612Zm-9.711-21.231A3.943,3.943,0,0,0,850,1140.3c2.241-.009,3.8-1.669,3.949-4.212.014-.248.01-.5.01-.745.008-5.627.022-11.254.013-16.882a20.451,20.451,0,0,0-.223-2.062c-1.959,0-3.766-.01-5.572.005-.648.005-1.3.069-2.231.123C845.949,1123.332,845.875,1129.858,845.988,1136.381Zm-22.195-77.409c-2.832.858-3.631,1.775-3.676,4.334-.049,2.727-.011,5.456-.011,8.106,2.758,2.159,3.443,3.61,2.71,5.608a4.065,4.065,0,0,1-7.72-.145c-.635-1.972.1-3.441,2.771-5.4,0-2.627-.014-5.353,0-8.08.023-3.668,1.522-5.613,5.058-6.691a3.209,3.209,0,0,0,1.455-.76,3.931,3.931,0,0,1,3.336-1.286c1.654.05,3.313-.034,4.967.029,2,.075,3.245,1.242,3.31,2.971.068,1.839-1.223,3.138-3.3,3.236-1.239.058-2.486-.043-3.724.029C826.91,1061.046,824.989,1060.872,823.793,1058.972Zm-2.956,16.814a1.854,1.854,0,1,0-3.7-.062,1.985,1.985,0,0,0,1.7,1.82A1.96,1.96,0,0,0,820.837,1075.786Zm6.156-19.9c-1.258,1.68-1.225,2.464.017,3.66C828.07,1058.139,828.083,1057.67,826.993,1055.884Zm3.28.041c-1.572,1.207-1.607,2.323-.219,3.688C831.122,1058.526,830.929,1057.385,830.273,1055.925Zm2.575,3.8c1.253-1.684,1.217-2.469-.028-3.662C831.767,1057.483,831.756,1057.959,832.848,1059.722Z" transform="translate(-806.045 -1054.656)" fill="#f5a100"/>
</svg>
