<svg xmlns="http://www.w3.org/2000/svg" xmlns:xlink="http://www.w3.org/1999/xlink" width="126.157" height="25.352" viewBox="0 0 126.157 25.352">
  <defs>
    <clipPath id="clip-path">
      <rect id="Rectangle_149" data-name="Rectangle 149" width="126.157" height="25.352" fill="#fff"/>
    </clipPath>
  </defs>
  <g id="Group_818" data-name="Group 818" transform="translate(-38.844 -32.824)">
    <g id="Group_509" data-name="Group 509" transform="translate(38.844 32.823)">
      <g id="Group_203" data-name="Group 203" transform="translate(0 0)" clip-path="url(#clip-path)">
        <path id="Path_49" data-name="Path 49" d="M203.921,14.236V20.1c-3.582-.372-5.955,1.21-6.28,3.907V33.96h-6.42V14.469h6.42v3.256a7.034,7.034,0,0,1,6.28-3.489" transform="translate(-117.491 -8.747)" fill="#fff"/>
        <path id="Path_50" data-name="Path 50" d="M247.3,25.838H233.761a4.344,4.344,0,0,0,4.419,3.4,6.4,6.4,0,0,0,4.559-2l3.349,3.35a10.96,10.96,0,0,1-8.513,3.442c-6.373,0-10.28-3.908-10.28-9.862,0-6.047,4.047-10.048,10.141-10.048,6.838.093,10.281,4.652,9.862,11.722m-6.187-3.4a3.457,3.457,0,0,0-3.582-3.722c-2.093,0-3.442,1.489-3.907,3.722Z" transform="translate(-139.655 -8.673)" fill="#fff"/>
        <path id="Path_51" data-name="Path 51" d="M298.574,14.886v3.907l-9.35,10.653h9.722V34.33H281.223V30.423l9.35-10.652h-9.025V14.839Z" transform="translate(-172.789 -9.117)" fill="#fff"/>
        <path id="Path_52" data-name="Path 52" d="M142.7,0H131.624V25.213h6.605v-20h4.187c2.652,0,4.233,1.349,4.233,3.815,0,2.512-1.489,3.861-4.047,3.907l3.442,4.931c4.373-1.024,6.838-4.187,6.838-9.025C152.836,3.21,149.161,0,142.7,0" transform="translate(-80.872 0)" fill="#fff"/>
        <path id="Path_53" data-name="Path 53" d="M315.906.233v2.14h-.279V.233h-.744V0H316.7V.233Z" transform="translate(-193.47 0)" fill="#fff"/>
        <path id="Path_54" data-name="Path 54" d="M323.185,0V2.419h-.279V.651c-.279.372-.744,1.116-.977,1.489-.233-.372-.7-1.117-.977-1.489V2.419h-.279V0c.186,0,.93,1.163,1.3,1.721A5.871,5.871,0,0,1,323.185,0" transform="translate(-197.028 0)" fill="#fff"/>
        <path id="Path_55" data-name="Path 55" d="M64.235,16.046v2.745c-4-.093-6.466,2.419-6.792,6.233V35.118H54.652V16.139h2.791v4.233a6.987,6.987,0,0,1,6.792-4.326" transform="translate(-33.579 -9.859)" fill="#fff"/>
        <path id="Path_56" data-name="Path 56" d="M96.351,25.582a9.629,9.629,0,0,1-19.259,0c0-5.629,3.954-9.536,9.629-9.536,5.629,0,9.629,3.907,9.629,9.536m-16.374,0c0,4.233,2.791,7.117,6.792,7.117,3.954,0,6.792-2.884,6.792-7.117,0-4.187-2.837-7.071-6.792-7.071-4,0-6.792,2.931-6.792,7.071" transform="translate(-47.367 -9.859)" fill="#fff"/>
        <path id="Path_57" data-name="Path 57" d="M9.443,0H0V25.166H2.884V2.652H9.35c4.512,0,7.164,2,7.164,5.861,0,3.954-2.6,6-7.164,6H8.327l1.86,2.652c5.768-.233,9.118-3.4,9.118-8.7C19.305,3.07,15.677,0,9.443,0" transform="translate(0 0)" fill="#fff"/>
      </g>
    </g>
  </g>
</svg>
