<svg id="Group_430" data-name="Group 430" xmlns="http://www.w3.org/2000/svg" width="85.197" height="83.273" viewBox="0 0 85.197 83.273">
  <path id="Path_599" data-name="Path 599" d="M615.663,1058.038h5.72v8.707c.186.009.32.02.453.021l2.777.005q14.09.006,28.179.013a3.327,3.327,0,0,1,3.418,3.4c0,1.5.007,2.995.016,4.492,0,.229.031.458.047.688v52.213c-.054.375-.087.756-.167,1.126-.438,2.018-.729,2.425-2.88,2.783a18.255,18.255,0,0,1-2.973.172q-14.156.009-28.311-.011h-.557v9.649c-.119.008-.2.017-.277.017q-2.8,0-5.6,0a2.506,2.506,0,0,1-.445-.05c-3.722-.663-7.442-1.338-11.166-1.991q-7.174-1.258-14.353-2.488l-15.881-2.754c-.867-.15-1.733-.305-2.59-.456v-67.757c.1-.027.181-.053.261-.067l14.754-2.559q6.712-1.166,13.425-2.332,6.755-1.167,13.511-2.326C613.908,1058.375,614.785,1058.2,615.663,1058.038Zm28.906,62.932H621.414v7.728h31.952v-59.029H621.4v9.655l4.77-.974v12.631h12.779a2.749,2.749,0,0,1,0,.334c-.012.092-.061.181-.069.274a13.967,13.967,0,0,1-1.152,4.418,11.7,11.7,0,0,1-3.507,4.692,12.321,12.321,0,0,1-6.951,2.714,16.129,16.129,0,0,1-4.3-.344c-.519-.108-1.034-.235-1.553-.354v5.738h23.147v3.778H621.413v4.894h23.156Zm-58.022-37.357v31.06l5.836.5V1103.8c.177,0,.312-.012.445,0a17.069,17.069,0,0,0,3.935-.081,8.5,8.5,0,0,0,4.961-2.388,12.406,12.406,0,0,0,2.42-13.247,7.215,7.215,0,0,0-2.481-3.355,10.451,10.451,0,0,0-5.625-1.589c-1.3-.041-2.6.078-3.9.154-1.539.09-3.077.214-4.616.315C587.224,1083.63,586.926,1083.613,586.547,1083.613Z" transform="translate(-571.076 -1058.038)" fill="#f5a100"/>
  <path id="Path_600" data-name="Path 600" d="M637.3,1091.895v-12.6c5.948.078,12.295,5.392,12.678,12.6Z" transform="translate(-580.158 -1060.953)" fill="#f5a100"/>
  <path id="Path_601" data-name="Path 601" d="M595.928,1103.529c-.034-.417-.079-.737-.083-1.058-.033-2.759-.052-5.518-.093-8.277-.005-.359.092-.476.455-.462.692.025,1.386-.01,2.078.01a3.341,3.341,0,0,1,3.528,2.687,7.348,7.348,0,0,1-.322,4.779,3.011,3.011,0,0,1-2.343,1.834C598.111,1103.252,597.053,1103.363,595.928,1103.529Z" transform="translate(-574.46 -1062.933)" fill="#f5a100"/>
</svg>
