<svg xmlns="http://www.w3.org/2000/svg" width="87.541" height="87.541" viewBox="0 0 87.541 87.541">
  <g id="Group_431" data-name="Group 431" transform="translate(-1487.951 -1067.236)">
    <path id="Path_605" data-name="Path 605" d="M1491.043,1154.777h81.36a3.055,3.055,0,0,0,3.089-3.089v-81.359a3.057,3.057,0,0,0-3.089-3.093h-81.36a3.059,3.059,0,0,0-3.092,3.093v81.359a3.1,3.1,0,0,0,3.092,3.089Zm68.013-81.359h10.254V1087.6h-10.254Zm0,20.36h10.254v14.174h-10.331v-14.174Zm.074,20.36h10.33v14.175h-10.252v-14.175Zm-.074,20.356h10.254v14.174h-10.254Zm-48.485-61.076h42.3v34.534h-42.3Zm0,40.72h42.3v34.53h-42.3Zm-16.438-40.72h10.256V1087.6h-10.256Zm0,20.36h10.256v14.174h-10.256Zm0,20.36h10.256v14.175h-10.256Zm0,20.356h10.256v14.174h-10.256Zm0,0" fill="#f5a100"/>
  </g>
</svg>
