<svg xmlns="http://www.w3.org/2000/svg" width="165" height="73" viewBox="0 0 165 73">
  <g id="ARCELL" transform="translate(18728 4238)">
    <rect id="Rectangle_626" data-name="Rectangle 626" width="165" height="73" transform="translate(-18728 -4238)" fill="none"/>
    <g id="Group_902" data-name="Group 902" transform="translate(-19695.859 -6304.577)">
      <g id="Group_868" data-name="Group 868">
        <path id="Path_1144" data-name="Path 1144" d="M1000.243,2104.02v2.156H984.858l13.9-12.955h2.158l13.63,13.09h-8.906l-9.313-8.5-6.343,6.072Z" fill="#f66f09"/>
        <path id="Path_1145" data-name="Path 1145" d="M1022.851,2106.447H1015.5v-13.09h15.722s3.847-.3,4.791,2.294c0,0,1.212,3.914-3.645,4.589l6.545,6.072h-7.9L1024,2099.9v-1.755h2.831s1.688.034,1.824-1.284c0,0,.243-1.289-1.619-1.347h-4.185Z" fill="#f66f09"/>
        <path id="Path_1146" data-name="Path 1146" d="M1057.217,2093.306v2.327h-8.453s-2.584-.153-2.584,1.266v5.668c0,.88.23,1.637,2.584,1.67h8.453v2.177h-13.262s-3.693,0-4.959-3.036c0,0-2.658-4.742.785-8.538a5.174,5.174,0,0,1,3.67-1.534C1046.891,2093.319,1057.217,2093.306,1057.217,2093.306Z" fill="#9a75c9"/>
        <path id="Path_1147" data-name="Path 1147" d="M1077.308,2093.306v2.327h-8.451s-2.583-.153-2.583,1.266v5.668c0,.88.227,1.637,2.583,1.67h8.451v2.177h-13.262s-3.693,0-4.957-3.036c0,0-2.657-4.742.786-8.538a5.168,5.168,0,0,1,3.667-1.534C1066.983,2093.319,1077.308,2093.306,1077.308,2093.306Z" fill="#9a75c9"/>
        <rect id="Rectangle_607" data-name="Rectangle 607" width="9.615" height="2.225" transform="translate(1067.693 2098.165)" fill="#9a75c9"/>
        <path id="Path_1148" data-name="Path 1148" d="M1078.827,2093.306h7.794v8c0,.831-.043,2.837,1.721,2.837h8.4v2.074h-12.451s-5.466.169-5.466-4.959Z" fill="#9a75c9"/>
        <path id="Path_1149" data-name="Path 1149" d="M1107.676,2104.138c-1.765,0-1.721-2.006-1.721-2.837v-11.64h-.034v-.084H1002.809l-1.619,2.158,96.969.251v9.267c0,5.128,5.468,4.959,5.468,4.959h12.449v-2.074Z" fill="#f66f09"/>
      </g>
      <g id="Group_869" data-name="Group 869">
        <path id="Path_1150" data-name="Path 1150" d="M1012.546,2109.409v4.885h-.553v-4.885Z" fill="#9a75c9"/>
        <path id="Path_1151" data-name="Path 1151" d="M1016.114,2111.767h-.5c0-.237-.049-.386-.143-.442a1.878,1.878,0,0,0-.747-.087,1.647,1.647,0,0,0-.709.092c-.1.059-.151.207-.151.437a.484.484,0,0,0,.5.553l.41.02.509.023a.87.87,0,0,1,.931.975.9.9,0,0,1-.307.79,2.112,2.112,0,0,1-1.128.215,2.339,2.339,0,0,1-1.159-.2.827.827,0,0,1-.314-.749l0-.185h.519l0,.161a.508.508,0,0,0,.171.448,1.391,1.391,0,0,0,.678.112,1.851,1.851,0,0,0,.814-.117.534.534,0,0,0,.194-.494q0-.541-.491-.542a3.744,3.744,0,0,1-1.5-.192.824.824,0,0,1-.361-.8.861.861,0,0,1,.284-.767,2.22,2.22,0,0,1,1.133-.192c.906,0,1.361.273,1.361.818Z" fill="#9a75c9"/>
        <path id="Path_1152" data-name="Path 1152" d="M1017.434,2110.872v3.422h-.5v-3.422Z" fill="#9a75c9"/>
        <path id="Path_1153" data-name="Path 1153" d="M1020.124,2110.872v.417h-1.316v2.095q0,.545.488.544a.43.43,0,0,0,.483-.49l0-.167.007-.189h.466l0,.253q0,1.01-.959,1.008c-.663,0-.993-.279-.993-.839v-2.215h-.47v-.417h.47v-.823h.5v.823Z" fill="#9a75c9"/>
        <path id="Path_1154" data-name="Path 1154" d="M1020.7,2110.872h.5l-.011.517.011.01a1.129,1.129,0,0,1,1.115-.575c.581,0,.934.192,1.056.575h.015a1.234,1.234,0,0,1,1.177-.575,1.079,1.079,0,0,1,1.21,1.232v2.238h-.5v-2.284a.875.875,0,0,0-.161-.611.864.864,0,0,0-.609-.161,1.1,1.1,0,0,0-.8.222,1.265,1.265,0,0,0-.212.855v1.979h-.5v-2.238l-.005-.156q0-.663-.757-.662-1.024,0-1.023,1.112v1.944h-.5Z" fill="#9a75c9"/>
        <path id="Path_1155" data-name="Path 1155" d="M1027.271,2111.831h-.5a.965.965,0,0,1,.274-.8,2.8,2.8,0,0,1,2.212.049,1.2,1.2,0,0,1,.3.958v2.259h-.5l.038-.368-.01-.006a1.327,1.327,0,0,1-1.164.423q-1.293,0-1.294-1.041a1.048,1.048,0,0,1,.289-.854,1.7,1.7,0,0,1,1.049-.235q.9,0,1.079.352l.013,0v-.417a1.184,1.184,0,0,0-.164-.757.977.977,0,0,0-.7-.176c-.617,0-.923.173-.923.518C1027.269,2111.749,1027.269,2111.783,1027.271,2111.831Zm.805.77a1.475,1.475,0,0,0-.749.123c-.118.079-.174.253-.174.522a.673.673,0,0,0,.172.55,1.241,1.241,0,0,0,.7.132q1.059,0,1.059-.644a.616.616,0,0,0-.205-.543A1.578,1.578,0,0,0,1028.076,2112.6Z" fill="#9a75c9"/>
        <path id="Path_1156" data-name="Path 1156" d="M1034.849,2110.872l-1.143,3.422h-.721l-1.133-3.422h.517l.6,1.862.189.583.09.291.094.3h.013l.087-.291.087-.295.179-.578.581-1.869Z" fill="#9a75c9"/>
        <path id="Path_1157" data-name="Path 1157" d="M1037.648,2113.258h.508l.006.128a.828.828,0,0,1-.323.745,2.192,2.192,0,0,1-1.137.212,1.624,1.624,0,0,1-1.239-.346,2.4,2.4,0,0,1-.3-1.449,2.245,2.245,0,0,1,.3-1.374,1.5,1.5,0,0,1,1.164-.35,1.786,1.786,0,0,1,1.238.3,1.95,1.95,0,0,1,.291,1.281v.266h-2.46a1.92,1.92,0,0,0,.174,1.033c.115.146.386.22.809.22a1.848,1.848,0,0,0,.787-.1c.12-.069.182-.223.182-.456Zm0-.972-.005-.161a1,1,0,0,0-.182-.721,1.272,1.272,0,0,0-.788-.166,1.125,1.125,0,0,0-.79.194,1.361,1.361,0,0,0-.179.854Z" fill="#9a75c9"/>
        <path id="Path_1158" data-name="Path 1158" d="M1041.16,2109.875v1.662h2.48V2112h-2.48v1.824h2.588v.465h-3.139v-4.885h3.139v.466Z" fill="#9a75c9"/>
        <path id="Path_1159" data-name="Path 1159" d="M1044.431,2110.872h.481l-.011.468.011.008c.153-.35.534-.524,1.14-.524a1.411,1.411,0,0,1,.993.258,1.393,1.393,0,0,1,.261.987v2.225h-.5v-2.312a.8.8,0,0,0-.166-.593,1.013,1.013,0,0,0-.647-.151c-.706,0-1.057.332-1.057,1v2.056h-.5Z" fill="#9a75c9"/>
        <path id="Path_1160" data-name="Path 1160" d="M1050.59,2113.258h.511l0,.128a.824.824,0,0,1-.325.745,2.176,2.176,0,0,1-1.136.212,1.631,1.631,0,0,1-1.24-.346,2.429,2.429,0,0,1-.292-1.449,2.233,2.233,0,0,1,.3-1.374,1.493,1.493,0,0,1,1.162-.35,1.783,1.783,0,0,1,1.237.3,1.923,1.923,0,0,1,.294,1.281v.266h-2.46a1.959,1.959,0,0,0,.171,1.033c.118.146.386.22.811.22a1.834,1.834,0,0,0,.785-.1.488.488,0,0,0,.182-.456Zm0-.972,0-.161a1,1,0,0,0-.184-.721,1.261,1.261,0,0,0-.788-.166,1.116,1.116,0,0,0-.788.194,1.345,1.345,0,0,0-.181.854Z" fill="#9a75c9"/>
        <path id="Path_1161" data-name="Path 1161" d="M1051.94,2110.872h.5l-.051.394.01.013a1.063,1.063,0,0,1,.98-.486.848.848,0,0,1,.946.974l-.005.238h-.493l.012-.087c.008-.09.011-.153.011-.184,0-.348-.19-.527-.574-.527q-.836,0-.836,1.036v2.051h-.5Z" fill="#9a75c9"/>
        <path id="Path_1162" data-name="Path 1162" d="M1055.281,2110.872v3.883c0,.568-.236.849-.706.849a1.208,1.208,0,0,1-.238-.026v-.353a.267.267,0,0,1,.056-.01l.066,0,.208-.069c.074-.063.112-.24.112-.534v-3.737Zm0-1.463v.563h-.5v-.563Z" fill="#9a75c9"/>
        <path id="Path_1163" data-name="Path 1163" d="M1056.677,2109.409v.563h-.5v-.563Zm0,1.463v3.422h-.5v-3.422Z" fill="#9a75c9"/>
        <path id="Path_1164" data-name="Path 1164" d="M1062.759,2110.731h-.547c0-.391-.064-.642-.2-.746a1.67,1.67,0,0,0-.926-.162,2.584,2.584,0,0,0-1.115.151c-.169.1-.25.33-.25.681,0,.393.063.634.2.718a3.193,3.193,0,0,0,1.168.177,2.965,2.965,0,0,1,1.45.289,1.359,1.359,0,0,1,.31,1.074c0,.6-.12.99-.356,1.166a2.991,2.991,0,0,1-1.573.264,2.524,2.524,0,0,1-1.4-.264,1.308,1.308,0,0,1-.348-1.077l-.006-.217h.547v.121c0,.436.067.705.2.813a1.972,1.972,0,0,0,1.026.161,2.5,2.5,0,0,0,1.168-.161c.143-.108.218-.389.218-.852a.852.852,0,0,0-.152-.593.99.99,0,0,0-.618-.18l-.573-.025-.545-.028a1.169,1.169,0,0,1-1.24-1.289,1.362,1.362,0,0,1,.36-1.115,3.979,3.979,0,0,1,2.87-.018A1.387,1.387,0,0,1,1062.759,2110.731Z" fill="#9a75c9"/>
        <path id="Path_1165" data-name="Path 1165" d="M1063.985,2109.409v.563h-.5v-.563Zm0,1.463v3.422h-.5v-3.422Z" fill="#9a75c9"/>
        <path id="Path_1166" data-name="Path 1166" d="M1067.517,2111.767h-.5c0-.237-.048-.386-.145-.442a1.838,1.838,0,0,0-.745-.087,1.638,1.638,0,0,0-.708.092c-.1.059-.151.207-.151.437a.483.483,0,0,0,.5.553l.4.02.514.023a.87.87,0,0,1,.928.975.905.905,0,0,1-.306.79,2.115,2.115,0,0,1-1.128.215,2.337,2.337,0,0,1-1.159-.2.826.826,0,0,1-.317-.749l.005-.185h.519l0,.161a.508.508,0,0,0,.171.448,1.4,1.4,0,0,0,.678.112,1.843,1.843,0,0,0,.813-.117.532.532,0,0,0,.195-.494q0-.541-.491-.542a3.756,3.756,0,0,1-1.5-.192.825.825,0,0,1-.359-.8.861.861,0,0,1,.284-.767,2.213,2.213,0,0,1,1.133-.192c.905,0,1.361.273,1.361.818Z" fill="#9a75c9"/>
        <path id="Path_1167" data-name="Path 1167" d="M1070.152,2110.872v.417h-1.318v2.095q0,.545.486.544a.43.43,0,0,0,.484-.49l.005-.167.005-.189h.465l0,.253q0,1.01-.959,1.008-.99,0-.99-.839v-2.215h-.474v-.417h.474v-.823h.5v.823Z" fill="#9a75c9"/>
        <path id="Path_1168" data-name="Path 1168" d="M1073.1,2113.258h.513l0,.128a.824.824,0,0,1-.325.745,2.181,2.181,0,0,1-1.135.212,1.638,1.638,0,0,1-1.241-.346,2.426,2.426,0,0,1-.294-1.449,2.248,2.248,0,0,1,.3-1.374,1.5,1.5,0,0,1,1.164-.35,1.783,1.783,0,0,1,1.238.3,1.948,1.948,0,0,1,.293,1.281v.266h-2.463a1.95,1.95,0,0,0,.174,1.033c.115.146.387.22.811.22a1.834,1.834,0,0,0,.785-.1c.121-.069.18-.223.18-.456Zm0-.972,0-.161a1,1,0,0,0-.182-.721,1.261,1.261,0,0,0-.785-.166,1.117,1.117,0,0,0-.791.194,1.346,1.346,0,0,0-.181.854Z" fill="#9a75c9"/>
        <path id="Path_1169" data-name="Path 1169" d="M1074.405,2110.872h.5l-.012.517.012.01a1.129,1.129,0,0,1,1.115-.575c.581,0,.931.192,1.057.575h.015a1.233,1.233,0,0,1,1.177-.575,1.079,1.079,0,0,1,1.21,1.232v2.238h-.5v-2.284a.626.626,0,0,0-.769-.772,1.113,1.113,0,0,0-.806.222,1.277,1.277,0,0,0-.21.855v1.979h-.5v-2.238l-.005-.156q0-.663-.757-.662-1.024,0-1.023,1.112v1.944h-.5Z" fill="#9a75c9"/>
        <path id="Path_1170" data-name="Path 1170" d="M1080.955,2109.409v4.885h-.5v-4.885Z" fill="#9a75c9"/>
        <path id="Path_1171" data-name="Path 1171" d="M1084.219,2113.258h.512l0,.128a.824.824,0,0,1-.325.745,2.179,2.179,0,0,1-1.135.212,1.621,1.621,0,0,1-1.239-.346,2.381,2.381,0,0,1-.3-1.449,2.231,2.231,0,0,1,.3-1.374,1.5,1.5,0,0,1,1.164-.35,1.785,1.785,0,0,1,1.238.3,1.94,1.94,0,0,1,.295,1.281v.266h-2.463a1.922,1.922,0,0,0,.173,1.033c.116.146.387.22.811.22a1.846,1.846,0,0,0,.785-.1.488.488,0,0,0,.182-.456Zm0-.972-.005-.161a1,1,0,0,0-.182-.721,1.269,1.269,0,0,0-.788-.166,1.106,1.106,0,0,0-.787.194,1.337,1.337,0,0,0-.182.854Z" fill="#9a75c9"/>
        <path id="Path_1172" data-name="Path 1172" d="M1085.572,2110.872h.5l-.051.394.012.013a1.06,1.06,0,0,1,.98-.486.848.848,0,0,1,.944.974l0,.238h-.494l.01-.087c.007-.09.013-.153.013-.184,0-.348-.2-.527-.576-.527q-.836,0-.836,1.036v2.051h-.5Z" fill="#9a75c9"/>
        <path id="Path_1173" data-name="Path 1173" d="M1088.943,2109.409v.563h-.5v-.563Zm0,1.463v3.422h-.5v-3.422Z" fill="#9a75c9"/>
      </g>
    </g>
  </g>
</svg>
