<svg xmlns="http://www.w3.org/2000/svg" width="165" height="73" viewBox="0 0 165 73">
  <g id="BEDAS" transform="translate(20129 4057)">
    <rect id="Rectangle_621" data-name="Rectangle 621" width="165" height="73" transform="translate(-20129 -4057)" fill="none"/>
    <g id="Group_846" data-name="Group 846" transform="translate(-20198.709 -6214.083)">
      <g id="Group_843" data-name="Group 843">
        <path id="Path_811" data-name="Path 811" d="M109.775,2183.389c.632.192,1.345.407,2.1.628l1.016-1.429-.022.031c-1.105-.314-2.073-.611-2.927-.874a20.085,20.085,0,0,0-6.061-1.267,13.113,13.113,0,0,0-1.988.16l-.173.041-.553,1.414a13.328,13.328,0,0,1,1.747-.119A23.109,23.109,0,0,1,109.775,2183.389Z" fill="#2852c3" fill-rule="evenodd"/>
        <path id="Path_812" data-name="Path 812" d="M112.445,2196.731c.412.04.83.067,1.265.067a28.554,28.554,0,0,0,4.588-.5,35.269,35.269,0,0,1,5.785-.59,21.143,21.143,0,0,1,2.506.147,10.848,10.848,0,0,0-1.925-2.069,34.037,34.037,0,0,0-5.634.6,29.582,29.582,0,0,1-4.813.528h-.027l.237-.248Z" fill="#2852c3" fill-rule="evenodd"/>
        <path id="Path_813" data-name="Path 813" d="M119.223,2191.635a30.057,30.057,0,0,1-4.84.526h0a12.382,12.382,0,0,1-2.966-.349l.243-.295-1.264,1.531,6.493-.95-2.118,2.209a33.148,33.148,0,0,0,4.161-.5,38.287,38.287,0,0,1,5-.591c-.291-.211-.592-.418-.913-.615.821-.529,1.551-1.05,2.2-1.563-.083,0-.167,0-.251,0A34.818,34.818,0,0,0,119.223,2191.635Z" fill="#2852c3" fill-rule="evenodd"/>
        <path id="Path_814" data-name="Path 814" d="M105.809,2192.546l-.343.482,6.3-8.857-.249.349c-.673-.2-1.316-.391-1.89-.566a22.791,22.791,0,0,0-6.721-1.394,13.089,13.089,0,0,0-1.983.159l-.766,1.957a15.366,15.366,0,0,1,2.747-.27,23.474,23.474,0,0,1,6.949,1.423l.6.182-.357.5-.415-.125a22.727,22.727,0,0,0-6.788-1.4,15.155,15.155,0,0,0-2.992.328l-.591,1.512a14.022,14.022,0,0,1,2.081-.161,23.225,23.225,0,0,1,6.908,1.415l.557.169-.357.5-.369-.112a22.817,22.817,0,0,0-6.746-1.389,13.714,13.714,0,0,0-2.322.211l-.687,1.756a15.559,15.559,0,0,1,3.033-.318,20.819,20.819,0,0,1,6.151,1.174l-.357.5a19.784,19.784,0,0,0-5.8-1.089,15.535,15.535,0,0,0-3.279.378l-.9,2.292a19.191,19.191,0,0,1,3.2-.275A24.838,24.838,0,0,1,105.809,2192.546Z" fill="#2852c3" fill-rule="evenodd"/>
        <path id="Path_815" data-name="Path 815" d="M104.2,2194.8l1.238-1.74a23.812,23.812,0,0,0-5.017-.589,18.741,18.741,0,0,0-3.444.327l-.748,1.913a19.9,19.9,0,0,1,3.673-.347A23.4,23.4,0,0,1,104.2,2194.8Z" fill="#2852c3" fill-rule="evenodd"/>
        <path id="Path_816" data-name="Path 816" d="M119.323,2182.233c.513-.074,1.03-.154,1.558-.239a34.848,34.848,0,0,1,5.758-.593c.5,0,.985.023,1.472.057a11.369,11.369,0,0,0-1.437-1.691,34.348,34.348,0,0,0-5.548.594l-.3.049.564-.683a35.524,35.524,0,0,1,4.665-.534c-.379-.336-.784-.67-1.219-1l-2.218.047Z" fill="#2852c3" fill-rule="evenodd"/>
        <path id="Path_817" data-name="Path 817" d="M120.978,2182.57c-.75.121-1.48.237-2.2.328l-1.473,1.785.064-.077c1.013-.087,2.027-.243,3.081-.411a35.41,35.41,0,0,1,5.722-.573,21.375,21.375,0,0,1,2.975.208,5.926,5.926,0,0,0-.657-1.758c-.609-.055-1.227-.087-1.844-.087A34.342,34.342,0,0,0,120.978,2182.57Z" fill="#2852c3" fill-rule="evenodd"/>
        <path id="Path_818" data-name="Path 818" d="M110.105,2181.184c.862.265,1.833.564,2.941.878.062.017.125.029.187.046l.992-1.394a11.6,11.6,0,0,1-1.25-.273c-.8-.227-1.439-.381-2.058-.53a25.986,25.986,0,0,1-4.116-1.275l-.121-.048,0-.01-4.176.089-.537,1.371a13.474,13.474,0,0,1,1.888-.141A20.682,20.682,0,0,1,110.105,2181.184Z" fill="#2852c3" fill-rule="evenodd"/>
        <path id="Path_819" data-name="Path 819" d="M107.294,2197.78l.927-1.433c-.262-.071-.528-.144-.782-.211l.945-.043-5.268.239.714-1a22.466,22.466,0,0,0-3.93-.377,19.39,19.39,0,0,0-3.92.407l-.573,1.465a20.921,20.921,0,0,1,3.536-.3A33.72,33.72,0,0,1,107.294,2197.78Z" fill="#2852c3" fill-rule="evenodd"/>
        <path id="Path_820" data-name="Path 820" d="M113.134,2179.879a11.133,11.133,0,0,0,1.467.306l-.064.09,1.559-2.192-.213.3-7.661.163a27.153,27.153,0,0,0,2.825.8C111.672,2179.492,112.318,2179.648,113.134,2179.879Z" fill="#2852c3" fill-rule="evenodd"/>
        <path id="Path_821" data-name="Path 821" d="M120.318,2187.148a26.244,26.244,0,0,1-4.529.519c-.314,0-.62-.013-.924-.034l-3.036,3.678a11.914,11.914,0,0,0,2.556.265,29.588,29.588,0,0,0,4.745-.518,35.239,35.239,0,0,1,5.832-.606c.312,0,.624.009.932.023a15.192,15.192,0,0,0,1.343-1.308,21.433,21.433,0,0,0-2.666-.166,36.6,36.6,0,0,0-5.492.517,30.89,30.89,0,0,1-4.551.447,14.074,14.074,0,0,1-1.517-.086l.449-.544c.349.027.7.045,1.069.045a30.482,30.482,0,0,0,4.462-.439,37.359,37.359,0,0,1,5.6-.52,22.055,22.055,0,0,1,3.1.218,7.9,7.9,0,0,0,1.134-1.878,20.146,20.146,0,0,0-2.961-.219A31.358,31.358,0,0,0,120.318,2187.148Z" fill="#2852c3" fill-rule="evenodd"/>
        <path id="Path_822" data-name="Path 822" d="M116.146,2208.023a34.462,34.462,0,0,1-4.852.463,12.866,12.866,0,0,1-3.556-.463c-1.657-.47-3.3-.915-4.929-1.243l.027-.028-1.021,1.065c.655.14,1.307.291,1.948.448l.052.012q.57.14,1.14.274l1.184.284h14.739a16.375,16.375,0,0,0,2.543-1.3c-.467-.028-.939-.046-1.414-.046A40.5,40.5,0,0,0,116.146,2208.023Z" fill="#2852c3" fill-rule="evenodd"/>
        <path id="Path_823" data-name="Path 823" d="M123.885,2200.552a40.77,40.77,0,0,0-5.866.538,34.39,34.39,0,0,1-4.853.464,12.859,12.859,0,0,1-3.555-.463c-.355-.1-.708-.2-1.062-.3l.353-.369-3.987,4.158.138-.143c1.182.28,2.368.6,3.562.943a12.3,12.3,0,0,0,3.4.441,33.785,33.785,0,0,0,4.768-.458,41.49,41.49,0,0,1,5.961-.539,22.632,22.632,0,0,1,3.327.237l.165.036a8.588,8.588,0,0,0,1.073-1.657,21.966,21.966,0,0,0-4.351-.422,40.428,40.428,0,0,0-5.867.532,34.347,34.347,0,0,1-4.858.465,12.876,12.876,0,0,1-3.556-.464q-1.1-.312-2.195-.6l.461-.481q.945.253,1.894.522a12.281,12.281,0,0,0,3.4.441,33.99,33.99,0,0,0,4.769-.457,41.359,41.359,0,0,1,5.954-.54,22.567,22.567,0,0,1,4.541.448l.054.009a7.135,7.135,0,0,0,.479-1.955l-.036-.008A22.044,22.044,0,0,0,123.885,2200.552Z" fill="#2852c3" fill-rule="evenodd"/>
        <path id="Path_824" data-name="Path 824" d="M116.865,2205.945a34.625,34.625,0,0,1-4.853.464,12.881,12.881,0,0,1-3.556-.464c-1.3-.369-2.589-.721-3.874-1.015l-1.3,1.355c1.53.323,3.064.737,4.613,1.176a12.328,12.328,0,0,0,3.4.441,33.849,33.849,0,0,0,4.769-.458A41.071,41.071,0,0,1,122,2206.9c.624,0,1.249.024,1.856.071l.326.04a11.5,11.5,0,0,0,1.6-1.4,22.31,22.31,0,0,0-3.056-.208A40.61,40.61,0,0,0,116.865,2205.945Z" fill="#2852c3" fill-rule="evenodd"/>
        <path id="Path_825" data-name="Path 825" d="M123.639,2198.558a34.876,34.876,0,0,0-5.594.55,29.641,29.641,0,0,1-4.6.477,12.477,12.477,0,0,1-3.324-.432l.467-.487a11.985,11.985,0,0,0,2.858.334,29.2,29.2,0,0,0,4.505-.469,35.507,35.507,0,0,1,5.687-.558,21.866,21.866,0,0,1,4.158.4,7.981,7.981,0,0,0-.791-1.865,20.51,20.51,0,0,0-2.942-.212,34.417,34.417,0,0,0-5.669.586,29.127,29.127,0,0,1-4.686.507,12.944,12.944,0,0,1-1.776-.119l-2.925,3.05.762.213a12.288,12.288,0,0,0,3.4.441,33.953,33.953,0,0,0,4.769-.457,41.457,41.457,0,0,1,5.956-.539,22.563,22.563,0,0,1,4.17.376,6.964,6.964,0,0,0-.121-1.355A21.266,21.266,0,0,0,123.639,2198.558Z" fill="#2852c3" fill-rule="evenodd"/>
        <path id="Path_826" data-name="Path 826" d="M126.152,2184.2a34.677,34.677,0,0,0-5.615.57,36.862,36.862,0,0,1-3.688.457l-1.643,1.991.126-.152c.152,0,.3.014.458.014a25.74,25.74,0,0,0,4.426-.509,32.092,32.092,0,0,1,5.661-.612,20.674,20.674,0,0,1,3.093.231l.045.013a4.976,4.976,0,0,0,.208-1.773A20.782,20.782,0,0,0,126.152,2184.2Z" fill="#2852c3" fill-rule="evenodd"/>
        <path id="Path_827" data-name="Path 827" d="M101.618,2206.563a22.968,22.968,0,0,0-3.68-.318,18.775,18.775,0,0,0-6.708,1.258l-.521,1.332h2.066l.392-.251a10.008,10.008,0,0,1,4.921-1.232,15.961,15.961,0,0,1,2.837.283l-.345.533a14.815,14.815,0,0,0-2.5-.242,9.429,9.429,0,0,0-4.118.909h6.188l-.082.128Z" fill="#2852c3" fill-rule="evenodd"/>
        <path id="Path_828" data-name="Path 828" d="M101.34,2208.312l.166-.174-.668.7h2.8l-.013,0C102.848,2208.642,102.091,2208.465,101.34,2208.312Z" fill="#2852c3" fill-rule="evenodd"/>
        <path id="Path_829" data-name="Path 829" d="M103.239,2204.054l-.329.509,1.392-2.153a30.065,30.065,0,0,0-6.694-.864,20.737,20.737,0,0,0-4.215.427l-1.05,2.685a19.1,19.1,0,0,1,6.309-1.08A24.657,24.657,0,0,1,103.239,2204.054Z" fill="#2852c3" fill-rule="evenodd"/>
        <path id="Path_830" data-name="Path 830" d="M101.961,2206.031l.934-1.445a23.749,23.749,0,0,0-4.242-.422,18.67,18.67,0,0,0-6.594,1.22l-.544,1.39a19.2,19.2,0,0,1,6.421-1.116A23.851,23.851,0,0,1,101.961,2206.031Z" fill="#2852c3" fill-rule="evenodd"/>
        <path id="Path_831" data-name="Path 831" d="M104.641,2201.886l-.016.024,2.393-3.7-.059.091a32.773,32.773,0,0,0-8.019-1.191,20.386,20.386,0,0,0-3.783.354l-.546,1.4a21.378,21.378,0,0,1,3.935-.361,32.1,32.1,0,0,1,7.6,1.064l-.335.519a31.185,31.185,0,0,0-7.265-1,20.708,20.708,0,0,0-4.184.421l-.714,1.825a21.378,21.378,0,0,1,3.966-.367A30.983,30.983,0,0,1,104.641,2201.886Z" fill="#2852c3" fill-rule="evenodd"/>
      </g>
      <g id="Group_844" data-name="Group 844">
        <path id="Path_832" data-name="Path 832" d="M136.589,2183.84h6.575a19.059,19.059,0,0,1,2.912.163,4.289,4.289,0,0,1,1.717.679,4.207,4.207,0,0,1,1.262,1.375,3.72,3.72,0,0,1,.505,1.923,3.9,3.9,0,0,1-2.311,3.569,4.328,4.328,0,0,1,2.311,1.492,3.961,3.961,0,0,1,.808,2.48,4.9,4.9,0,0,1-.521,2.182,4.4,4.4,0,0,1-1.425,1.7,4.724,4.724,0,0,1-2.228.78q-.831.089-4.005.112h-5.6Zm3.322,2.739v3.8h2.176q1.942,0,2.413-.056a2.2,2.2,0,0,0,1.341-.589,1.739,1.739,0,0,0,.488-1.285,1.811,1.811,0,0,0-.421-1.24,1.912,1.912,0,0,0-1.251-.578q-.493-.054-2.839-.055Zm0,6.54v4.4h3.074a15.28,15.28,0,0,0,2.278-.1,2.061,2.061,0,0,0,1.206-.657,2.019,2.019,0,0,0,.466-1.4,2.146,2.146,0,0,0-.359-1.256,2.029,2.029,0,0,0-1.038-.752,11.268,11.268,0,0,0-2.946-.237Z"/>
        <path id="Path_833" data-name="Path 833" d="M153.174,2200.29v-16.45h12.2v2.783h-8.875v3.646h8.258v2.772h-8.258v4.477h9.19v2.772Z"/>
        <path id="Path_834" data-name="Path 834" d="M168.49,2183.84h6.069a11.865,11.865,0,0,1,3.131.315,5.5,5.5,0,0,1,2.48,1.514,7.2,7.2,0,0,1,1.571,2.665,12.175,12.175,0,0,1,.539,3.889,10.8,10.8,0,0,1-.506,3.5,7.27,7.27,0,0,1-1.761,2.907,5.854,5.854,0,0,1-2.334,1.312,10.042,10.042,0,0,1-2.94.348H168.49Zm3.321,2.783v10.9h2.479a9.117,9.117,0,0,0,2.009-.156,3.065,3.065,0,0,0,1.34-.685,3.474,3.474,0,0,0,.87-1.588,10.753,10.753,0,0,0,.336-3.013,9.839,9.839,0,0,0-.336-2.928,3.77,3.77,0,0,0-.942-1.594,3.167,3.167,0,0,0-1.538-.774,15.117,15.117,0,0,0-2.726-.157Z"/>
        <path id="Path_835" data-name="Path 835" d="M199.93,2200.29h-3.614l-1.436-3.736H188.3l-1.358,3.736h-3.523l6.407-16.45h3.511Zm-6.116-6.508-2.267-6.1-2.221,6.1Z"/>
        <path id="Path_836" data-name="Path 836" d="M200.85,2194.938l3.232-.314a3.948,3.948,0,0,0,1.183,2.39,3.584,3.584,0,0,0,2.408.762,3.706,3.706,0,0,0,2.418-.678,2.021,2.021,0,0,0,.813-1.588,1.5,1.5,0,0,0-.343-.993,2.734,2.734,0,0,0-1.194-.713q-.585-.2-2.66-.717a9.016,9.016,0,0,1-3.747-1.628,4.276,4.276,0,0,1-1.515-3.31,4.217,4.217,0,0,1,.713-2.35,4.456,4.456,0,0,1,2.052-1.667,8.242,8.242,0,0,1,3.238-.572,6.946,6.946,0,0,1,4.662,1.357,4.791,4.791,0,0,1,1.644,3.625l-3.322.146a2.814,2.814,0,0,0-.914-1.823,3.35,3.35,0,0,0-2.1-.555,3.8,3.8,0,0,0-2.267.593,1.2,1.2,0,0,0-.527,1.022,1.259,1.259,0,0,0,.494,1,8.717,8.717,0,0,0,3.052,1.1,16.036,16.036,0,0,1,3.585,1.183,4.633,4.633,0,0,1,1.818,1.671,4.9,4.9,0,0,1,.656,2.621,4.843,4.843,0,0,1-.786,2.648,4.7,4.7,0,0,1-2.221,1.834,9.32,9.32,0,0,1-3.579.6,7.128,7.128,0,0,1-4.792-1.441A6.273,6.273,0,0,1,200.85,2194.938Zm3.782,9.874v-1.324a20.14,20.14,0,0,0,2.12.124,2.49,2.49,0,0,0,1.482-.36.823.823,0,0,0,.369-.7.831.831,0,0,0-.347-.663,1.711,1.711,0,0,0-1.077-.28,5.146,5.146,0,0,0-1.47.224l.292-1.11a5.689,5.689,0,0,1,1.885-.3,3.223,3.223,0,0,1,2.131.617,1.9,1.9,0,0,1,.729,1.5,1.929,1.929,0,0,1-.808,1.6,5.006,5.006,0,0,1-3.119.841A10,10,0,0,1,204.632,2204.812Z"/>
      </g>
      <g id="Group_845" data-name="Group 845">
        <path id="Path_837" data-name="Path 837" d="M136.589,2202.816h1.1a3.345,3.345,0,0,1,.486.026.732.732,0,0,1,.287.114.7.7,0,0,1,.211.23.626.626,0,0,1,.084.322.647.647,0,0,1-.386.6.722.722,0,0,1,.386.249.663.663,0,0,1,.135.414.824.824,0,0,1-.087.366.734.734,0,0,1-.238.283.791.791,0,0,1-.372.13c-.093.011-.316.016-.669.019h-.937Zm.556.457v.636h.363c.217,0,.351,0,.4-.009a.367.367,0,0,0,.223-.1.289.289,0,0,0,.082-.215.3.3,0,0,0-.07-.207.312.312,0,0,0-.209-.1c-.055-.006-.213-.01-.475-.01Zm0,1.094v.734h.513a2.607,2.607,0,0,0,.382-.016.354.354,0,0,0,.2-.11.342.342,0,0,0,.078-.233.348.348,0,0,0-.061-.21.323.323,0,0,0-.173-.126,1.894,1.894,0,0,0-.492-.039Z"/>
        <path id="Path_838" data-name="Path 838" d="M139.248,2204.206a1.759,1.759,0,0,1,.126-.7,1.286,1.286,0,0,1,.256-.377,1.051,1.051,0,0,1,.355-.247,1.5,1.5,0,0,1,.593-.109,1.287,1.287,0,0,1,.972.377,1.684,1.684,0,0,1,0,2.09,1.281,1.281,0,0,1-.967.376,1.3,1.3,0,0,1-.976-.374A1.424,1.424,0,0,1,139.248,2204.206Zm.572-.018a1.028,1.028,0,0,0,.216.708.7.7,0,0,0,.548.241.694.694,0,0,0,.544-.238,1.049,1.049,0,0,0,.213-.718,1.032,1.032,0,0,0-.207-.7.7.7,0,0,0-.55-.233.7.7,0,0,0-.553.235A1.04,1.04,0,0,0,139.82,2204.188Z"/>
        <path id="Path_839" data-name="Path 839" d="M143.628,2204.554v-.463h1.2v1.094a1.484,1.484,0,0,1-.506.3,1.842,1.842,0,0,1-.67.129,1.492,1.492,0,0,1-.752-.182,1.154,1.154,0,0,1-.482-.517,1.68,1.68,0,0,1-.161-.732,1.587,1.587,0,0,1,.18-.764,1.205,1.205,0,0,1,.527-.511,1.409,1.409,0,0,1,.658-.137,1.317,1.317,0,0,1,.8.214.974.974,0,0,1,.37.594l-.551.1a.587.587,0,0,0-.218-.32.671.671,0,0,0-.4-.117.75.75,0,0,0-.578.231.966.966,0,0,0-.215.685,1.08,1.08,0,0,0,.217.734.731.731,0,0,0,.57.244.95.95,0,0,0,.35-.069,1.17,1.17,0,0,0,.3-.165v-.349Zm.352-2.432h.257a.593.593,0,0,1-.179.4.638.638,0,0,1-.812,0,.593.593,0,0,1-.179-.4h.257a.292.292,0,0,0,.093.2.438.438,0,0,0,.469,0A.292.292,0,0,0,143.98,2202.122Z"/>
        <path id="Path_840" data-name="Path 840" d="M147.815,2205.565h-.6l-.24-.624h-1.1l-.226.624h-.589l1.07-2.749h.588Zm-1.022-1.088-.379-1.02-.371,1.02Z"/>
        <path id="Path_841" data-name="Path 841" d="M147.871,2205.565v-.5l1.444-1.784h-1.281v-.464h2.012v.43l-1.505,1.855H150.1v.464Z"/>
        <path id="Path_842" data-name="Path 842" d="M150.438,2205.565v-2.749h.556v2.749Zm.021-2.906v-.5h.518v.5Z"/>
        <path id="Path_843" data-name="Path 843" d="M153.281,2204.554l.539.17a1.21,1.21,0,0,1-.412.669,1.293,1.293,0,0,1-1.63-.155,1.428,1.428,0,0,1-.353-1.023,1.508,1.508,0,0,1,.354-1.067,1.217,1.217,0,0,1,.932-.379,1.144,1.144,0,0,1,.82.3,1.078,1.078,0,0,1,.281.506l-.549.131a.589.589,0,0,0-.2-.337.579.579,0,0,0-.376-.124.627.627,0,0,0-.5.22,1.075,1.075,0,0,0-.19.711,1.153,1.153,0,0,0,.187.742.608.608,0,0,0,.488.221.554.554,0,0,0,.381-.14A.816.816,0,0,0,153.281,2204.554Zm-1.166,1.766v-.221a3.324,3.324,0,0,0,.354.021.415.415,0,0,0,.248-.06.139.139,0,0,0,.062-.116.142.142,0,0,0-.058-.111.281.281,0,0,0-.18-.047.865.865,0,0,0-.246.038l.049-.187a1,1,0,0,1,.315-.05.542.542,0,0,1,.356.1.328.328,0,0,1-.013.52.837.837,0,0,1-.521.14A1.606,1.606,0,0,1,152.115,2206.32Z"/>
        <path id="Path_844" data-name="Path 844" d="M154.278,2205.565v-2.749h.556v2.749Zm.022-2.906v-.5h.517v.5Z"/>
        <path id="Path_845" data-name="Path 845" d="M156.429,2205.565v-2.749h2.039v.464h-1.484v.61h1.381v.463h-1.381v.748h1.537v.464Z"/>
        <path id="Path_846" data-name="Path 846" d="M159.007,2205.565v-2.727h.555v2.263h1.38v.464Z"/>
        <path id="Path_847" data-name="Path 847" d="M161.337,2205.565v-2.749h2.039v.464h-1.484v.61h1.381v.463h-1.381v.748h1.536v.464Z"/>
        <path id="Path_848" data-name="Path 848" d="M163.906,2205.565v-2.749h.555v1.221l1.122-1.221h.746l-1.035,1.071,1.091,1.678h-.718l-.756-1.291-.45.461v.83Z"/>
        <path id="Path_849" data-name="Path 849" d="M167.291,2205.565v-2.285h-.815v-.464h2.185v.464h-.815v2.285Z"/>
        <path id="Path_850" data-name="Path 850" d="M169.02,2205.565v-2.749h1.169a2.027,2.027,0,0,1,.64.073.648.648,0,0,1,.32.264.792.792,0,0,1,.12.433.737.737,0,0,1-.182.512.877.877,0,0,1-.544.254,1.285,1.285,0,0,1,.3.23,3.089,3.089,0,0,1,.316.446l.336.537h-.664l-.4-.6a3.965,3.965,0,0,0-.293-.4.428.428,0,0,0-.167-.114.925.925,0,0,0-.279-.031h-.112v1.148Zm.556-1.587h.41a2.15,2.15,0,0,0,.5-.034.293.293,0,0,0,.155-.116.354.354,0,0,0,.057-.206.337.337,0,0,0-.074-.225.345.345,0,0,0-.21-.107c-.044-.006-.179-.01-.4-.01h-.433Z"/>
        <path id="Path_851" data-name="Path 851" d="M171.774,2205.565v-2.749h.556v2.749Zm.022-2.906v-.5h.517v.5Z"/>
        <path id="Path_852" data-name="Path 852" d="M172.866,2205.565v-2.749h.555v1.221l1.122-1.221h.746l-1.035,1.071,1.092,1.678h-.719l-.755-1.291-.451.461v.83Z"/>
        <path id="Path_853" data-name="Path 853" d="M176.7,2202.816h1.015a1.976,1.976,0,0,1,.523.052.941.941,0,0,1,.416.253,1.2,1.2,0,0,1,.261.446,2,2,0,0,1,.09.649,1.812,1.812,0,0,1-.084.585,1.2,1.2,0,0,1-.294.486.956.956,0,0,1-.391.219,1.669,1.669,0,0,1-.491.059H176.7Zm.556.464v1.821h.415a1.465,1.465,0,0,0,.334-.026.516.516,0,0,0,.225-.114.571.571,0,0,0,.145-.265,1.777,1.777,0,0,0,.057-.5,1.618,1.618,0,0,0-.057-.489.606.606,0,0,0-.158-.267.53.53,0,0,0-.256-.129,2.565,2.565,0,0,0-.456-.027Z"/>
        <path id="Path_854" data-name="Path 854" d="M181.953,2205.565h-.6l-.24-.624h-1.1l-.227.624h-.589l1.071-2.749h.587Zm-1.022-1.088-.378-1.02-.373,1.02Z"/>
        <path id="Path_855" data-name="Path 855" d="M183.525,2204.554v-.463h1.2v1.094a1.484,1.484,0,0,1-.506.3,1.841,1.841,0,0,1-.669.129,1.494,1.494,0,0,1-.753-.182,1.16,1.16,0,0,1-.482-.517,1.68,1.68,0,0,1-.161-.732,1.587,1.587,0,0,1,.18-.764,1.205,1.205,0,0,1,.527-.511,1.412,1.412,0,0,1,.658-.137,1.317,1.317,0,0,1,.8.214.974.974,0,0,1,.37.594l-.552.1a.58.58,0,0,0-.217-.32.667.667,0,0,0-.4-.117.751.751,0,0,0-.578.231.971.971,0,0,0-.216.685,1.08,1.08,0,0,0,.218.734.73.73,0,0,0,.57.244.954.954,0,0,0,.35-.069,1.187,1.187,0,0,0,.3-.165v-.349Zm.353-2.432h.256a.58.58,0,0,1-.179.4.636.636,0,0,1-.811,0,.593.593,0,0,1-.179-.4h.256a.293.293,0,0,0,.1.2.354.354,0,0,0,.234.068.357.357,0,0,0,.234-.068A.288.288,0,0,0,183.878,2202.122Z"/>
        <path id="Path_856" data-name="Path 856" d="M185.217,2205.565v-2.749h.555v2.749Z"/>
        <path id="Path_857" data-name="Path 857" d="M186.92,2205.565v-2.285H186.1v-.464h2.185v.464h-.814v2.285Z"/>
        <path id="Path_858" data-name="Path 858" d="M188.631,2205.565v-2.749h.555v2.749Z"/>
        <path id="Path_859" data-name="Path 859" d="M189.707,2205.565v-2.749h.831l.5,1.875.493-1.875h.832v2.749h-.515V2203.4l-.546,2.164h-.535l-.543-2.164v2.164Z"/>
        <path id="Path_860" data-name="Path 860" d="M196.317,2205.565h-.6l-.24-.624h-1.1l-.227.624h-.589l1.07-2.749h.588Zm-1.022-1.088-.378-1.02-.372,1.02Z"/>
        <path id="Path_861" data-name="Path 861" d="M196.607,2205.565v-.527h.527v.527Z"/>
        <path id="Path_862" data-name="Path 862" d="M197.539,2204.67l.539-.052a.664.664,0,0,0,.2.4.6.6,0,0,0,.4.127.615.615,0,0,0,.4-.113.336.336,0,0,0,.137-.265.256.256,0,0,0-.057-.166.465.465,0,0,0-.2-.12c-.064-.022-.213-.062-.444-.119a1.507,1.507,0,0,1-.626-.272.721.721,0,0,1-.135-.946.74.74,0,0,1,.344-.278,1.352,1.352,0,0,1,.54-.1,1.161,1.161,0,0,1,.78.227.792.792,0,0,1,.274.6l-.555.025a.471.471,0,0,0-.152-.3.56.56,0,0,0-.352-.093.647.647,0,0,0-.379.1.2.2,0,0,0-.087.171.212.212,0,0,0,.081.168,1.5,1.5,0,0,0,.511.183,2.632,2.632,0,0,1,.6.2.776.776,0,0,1,.305.279.83.83,0,0,1,.11.438.81.81,0,0,1-.132.442.774.774,0,0,1-.372.307,1.546,1.546,0,0,1-.6.1,1.2,1.2,0,0,1-.8-.241A1.041,1.041,0,0,1,197.539,2204.67Zm.631,1.65v-.221a3.325,3.325,0,0,0,.354.021.415.415,0,0,0,.248-.06.137.137,0,0,0,.062-.116.139.139,0,0,0-.058-.111.283.283,0,0,0-.18-.047.859.859,0,0,0-.246.038l.049-.187a1,1,0,0,1,.315-.05.542.542,0,0,1,.356.1.328.328,0,0,1-.013.52.835.835,0,0,1-.521.14A1.612,1.612,0,0,1,198.17,2206.32Z"/>
        <path id="Path_863" data-name="Path 863" d="M200.235,2205.565v-.527h.527v.527Z"/>
      </g>
    </g>
  </g>
</svg>
