<svg xmlns="http://www.w3.org/2000/svg" width="165" height="73" viewBox="0 0 165 73">
  <g id="BORUSAN" transform="translate(18004 4250)">
    <rect id="Rectangle_630" data-name="Rectangle 630" width="165" height="73" transform="translate(-18004 -4250)" fill="none"/>
    <g id="Group_852" data-name="Group 852" transform="translate(-18420.67 -6404.393)">
      <path id="Path_1017" data-name="Path 1017" d="M436.67,2182.611l8.743,8.753,1.66-1.674-10.4-10.4,1.8-1.8,10.411,10.412,1.8-1.811-10.412-10.4,1.808-1.819,10.414,10.414,1.658-1.663-8.732-8.737H456.09v14.557a4.684,4.684,0,0,1-1.462,3.4,5.426,5.426,0,0,1-3.67,1.464H436.67Z" transform="translate(0 -0.073)" fill="#ff671d"/>
      <g id="Group_851" data-name="Group 851" transform="translate(463.726 2173.393)">
        <g id="Group_850" data-name="Group 850">
          <path id="Path_1018" data-name="Path 1018" d="M492.441,2188.126a7.017,7.017,0,1,1,5.509-2.138A7.242,7.242,0,0,1,492.441,2188.126Zm0-11.564a3.123,3.123,0,0,0-2.712,1.307,5.592,5.592,0,0,0,0,5.782,3.467,3.467,0,0,0,5.425,0,5.6,5.6,0,0,0,0-5.782A3.125,3.125,0,0,0,492.441,2176.562Z" transform="translate(-471.126 -2173.393)" fill="#758592" fill-rule="evenodd"/>
          <path id="Path_1019" data-name="Path 1019" d="M507.769,2187.914h-3.776v-14.021h7.56a6.585,6.585,0,0,1,3.614.9,3.412,3.412,0,0,1,1.639,3.044,3.827,3.827,0,0,1-.589,2.1,3.4,3.4,0,0,1-1.765,1.414v.039q1.932.432,2.186,3.358.062.806.146,1.611a2.773,2.773,0,0,0,.484,1.551h-3.911a6.054,6.054,0,0,1-.4-2.238,5.123,5.123,0,0,0-.441-1.964,1.857,1.857,0,0,0-1.744-.9h-3.007Zm3.154-11.1h-3.154v3.162h3.322q1.807,0,1.807-1.65Q512.9,2176.819,510.923,2176.818Z" transform="translate(-474.039 -2173.469)" fill="#758592" fill-rule="evenodd"/>
          <path id="Path_1020" data-name="Path 1020" d="M558.707,2177.78h-.042l-1.7,4.911h3.4Zm-3.594,10.134H551.1l5.61-14.022h3.972l5.611,14.022h-4.077l-.925-2.513h-5.233Z" transform="translate(-481.254 -2173.469)" fill="#758592" fill-rule="evenodd"/>
          <path id="Path_1021" data-name="Path 1021" d="M544.509,2176.635a2.741,2.741,0,0,0-.656-.224,3.082,3.082,0,0,0-.819-.087c-1.236-.021-1.806.357-1.819,1.086-.007.4.388.764,1.282,1.065q1.462.374,2.922.766a8.452,8.452,0,0,1,2.938,1.322,3.331,3.331,0,0,1,1.322,2.8,3.98,3.98,0,0,1-2.1,3.64,8.766,8.766,0,0,1-9.107-.3,3.664,3.664,0,0,1-1.51-1.883l-.024-.062,3.319-1.124.027.041a3.034,3.034,0,0,0,1.976,1.42,5.438,5.438,0,0,0,1.115.124c.037,0,.075,0,.112,0a3.364,3.364,0,0,0,1.48-.43,1.207,1.207,0,0,0,.73-1.075c.025-.484-.344-.96-1.256-1.216q-1.442-.394-2.9-.807a8.716,8.716,0,0,1-2.959-1.321,3.312,3.312,0,0,1-1.342-2.806,3.628,3.628,0,0,1,2.054-3.253,8.044,8.044,0,0,1,4.1-.905,7.276,7.276,0,0,1,4.071,1.147,3.91,3.91,0,0,1,1.281,1.345l.034.059-3.066,1.51-.03-.046A2.574,2.574,0,0,0,544.509,2176.635Z" transform="translate(-479.085 -2173.396)" fill="#758592"/>
          <path id="Path_1022" data-name="Path 1022" d="M529.739,2173.813h3.909v8.3a6.078,6.078,0,0,1-1.555,4.577,8.972,8.972,0,0,1-9.941.019,6.1,6.1,0,0,1-1.577-4.6v-8.3h3.91v8.518q0,2.73,2.627,2.73t2.627-2.73Z" transform="translate(-476.579 -2173.457)" fill="#758592" fill-rule="evenodd"/>
          <path id="Path_1023" data-name="Path 1023" d="M573.719,2187.913H570.04v-14.025h4.014l5.213,8.643h.042v-8.643h3.679v14.025h-4.015l-5.213-8.741h-.042Z" transform="translate(-484.156 -2173.469)" fill="#758592" fill-rule="evenodd"/>
          <path id="Path_1024" data-name="Path 1024" d="M475.66,2181.767h-3.131v3.22h3.131q2.1,0,2.1-1.571Q477.761,2181.767,475.66,2181.767Zm.168,6.146H468.62v-14.021h7.018q5.421,0,5.421,3.515a3,3,0,0,1-1.975,2.828,3.347,3.347,0,0,1,2.585,3.319Q481.67,2187.914,475.828,2187.914Zm-.273-11.193h-3.026v2.69h3.026a1.85,1.85,0,0,0,1.051-.294,1.162,1.162,0,0,0,.546-1.041Q477.152,2176.72,475.555,2176.72Z" transform="translate(-468.62 -2173.469)" fill="#758592" fill-rule="evenodd"/>
        </g>
        <path id="Path_1025" data-name="Path 1025" d="M478.76,2210.784v-3.126h-6.506v-10.824H468.62v13.95Z" transform="translate(-468.62 -2176.984)" fill="#758592" fill-rule="evenodd"/>
        <path id="Path_1026" data-name="Path 1026" d="M508.587,2206.368v-9.534h-3.634v9.3c0,1.348-.469,1.817-1.309,1.817a1.282,1.282,0,0,1-1.407-1.426v-1.29h-3.419v.606c0,3.106,1.192,5.236,4.884,5.236C506.985,2211.077,508.587,2209.495,508.587,2206.368Z" transform="translate(-473.246 -2176.984)" fill="#758592" fill-rule="evenodd"/>
        <path id="Path_1027" data-name="Path 1027" d="M544.935,2199.96v-3.126H532.978v3.126h4.162v10.824h3.634V2199.96Z" transform="translate(-478.478 -2176.984)" fill="#758592" fill-rule="evenodd"/>
        <path id="Path_1028" data-name="Path 1028" d="M568.6,2210.784l-5.8-8.46,5.158-5.49h-4.513l-4.591,5.354v-5.354h-3.634v13.95h3.634v-4.3l1.485-1.563,3.751,5.861Z" transform="translate(-481.885 -2176.984)" fill="#758592" fill-rule="evenodd"/>
        <path id="Path_1029" data-name="Path 1029" d="M516.508,2195.1v-2.441h-3.654v2.441Zm0,15.039V2196.2h-3.632v13.946Z" transform="translate(-475.396 -2176.345)" fill="#758592" fill-rule="evenodd"/>
        <path id="Path_1030" data-name="Path 1030" d="M552.137,2195.1v-2.441h-3.655v2.441Zm0,15.043V2196.2H548.5v13.949Z" transform="translate(-480.853 -2176.345)" fill="#758592" fill-rule="evenodd"/>
        <path id="Path_1031" data-name="Path 1031" d="M487.891,2210.988a7.016,7.016,0,1,1,5.509-2.138A7.242,7.242,0,0,1,487.891,2210.988Zm0-11.564a3.124,3.124,0,0,0-2.712,1.307,5.592,5.592,0,0,0,0,5.782,3.467,3.467,0,0,0,5.425,0,5.592,5.592,0,0,0,0-5.782A3.123,3.123,0,0,0,487.891,2199.424Z" transform="translate(-470.429 -2176.895)" fill="#758592" fill-rule="evenodd"/>
        <path id="Path_1032" data-name="Path 1032" d="M525.8,2199.485a2.8,2.8,0,0,0-.656-.224,3.1,3.1,0,0,0-.82-.087c-1.235-.021-1.805.357-1.818,1.086-.007.4.388.765,1.282,1.065q1.461.373,2.922.766a8.462,8.462,0,0,1,2.939,1.322,3.325,3.325,0,0,1,1.321,2.8,3.978,3.978,0,0,1-2.1,3.639,8.765,8.765,0,0,1-9.107-.3,3.671,3.671,0,0,1-1.511-1.884l-.023-.062,3.319-1.124.027.041a3.036,3.036,0,0,0,1.976,1.42,5.408,5.408,0,0,0,1.115.124c.037,0,.075,0,.111,0a3.382,3.382,0,0,0,1.481-.43,1.207,1.207,0,0,0,.729-1.076c.026-.484-.343-.961-1.255-1.217q-1.443-.393-2.9-.806a8.721,8.721,0,0,1-2.959-1.321,3.31,3.31,0,0,1-1.342-2.806,3.627,3.627,0,0,1,2.054-3.253,8.04,8.04,0,0,1,4.1-.905,7.289,7.289,0,0,1,4.072,1.146,3.933,3.933,0,0,1,1.281,1.347l.033.059-3.065,1.511-.032-.046A2.575,2.575,0,0,0,525.8,2199.485Z" transform="translate(-476.219 -2176.896)" fill="#758592"/>
      </g>
    </g>
  </g>
</svg>
