<svg xmlns="http://www.w3.org/2000/svg" width="165" height="73" viewBox="0 0 165 73">
  <g id="BRITISH" transform="translate(20185 3806)">
    <rect id="Rectangle_631" data-name="Rectangle 631" width="165" height="73" transform="translate(-20185 -3806)" fill="none"/>
    <g id="Group_854" data-name="Group 854" transform="translate(-20793.219 -5963.027)">
      <path id="Path_1033" data-name="Path 1033" d="M690.748,2170.564l-.86,19.817-3.762-9.727,1.96,9.844-6.106-8.184,4.3,8.42-15.125-10.7,13.337,11.106-8.516-3.156,6.835,3.927c-6.354,0-13.967-5.02-16.307-15.451,0,0,13.592.158,18.133,6.2-.86-8.509,5.025-16.528,6.111-17.633,1.1,1.1,6.972,9.124,6.131,17.633,4.526-6.04,18.1-6.2,18.1-6.2-2.325,10.431-9.933,15.451-16.29,15.451l6.842-3.927-8.526,3.156,13.333-11.106-15.125,10.7,4.31-8.42-6.112,8.184,1.968-9.844-3.777,9.727-.855-19.817" fill="#fab61f" fill-rule="evenodd"/>
      <path id="Path_1034" data-name="Path 1034" d="M675.743,2207.466l-.072-1.316h-5.247l-.057,1.316.077.014.343-.369a.845.845,0,0,1,.867-.45h.676v5.581a3.28,3.28,0,0,1,.727-.072l.7.072v-5.581h.687a.829.829,0,0,1,.879.476l.336.334.082,0" fill="#1d3e77" fill-rule="evenodd"/>
      <path id="Path_1035" data-name="Path 1035" d="M681.6,2209.768a2.471,2.471,0,0,0-2.674-2.643,2.588,2.588,0,0,0-2.8,2.53,2.5,2.5,0,0,0,2.7,2.7,2.562,2.562,0,0,0,2.772-2.584m-1.441-.053c0,.79-.188,2.138-1.228,2.138-1.172,0-1.365-1.177-1.365-2.1,0-.845.19-2.133,1.276-2.133s1.317,1.244,1.317,2.095" fill="#1d3e77" fill-rule="evenodd"/>
      <path id="Path_1036" data-name="Path 1036" d="M687.368,2210.873a1.6,1.6,0,0,0-1.621-1.423,1.232,1.232,0,0,0,1.232-1.143c0-.589-.545-.884-1.064-.975a6.006,6.006,0,0,0-1.271-.082H682.47l.35.379a1.17,1.17,0,0,1,.219.822v3.791h2.085a3.264,3.264,0,0,0,1.511-.235,1.236,1.236,0,0,0,.733-1.134m-1.723-2.434c0,.718-.36.927-1.042.927l-.226-.012v-1.523c0-.139.058-.158.279-.158.461,0,.989.125.989.766m.308,2.347c0,.692-.351.99-1.026.99-.382,0-.55-.036-.55-.337v-1.59h.178a3.56,3.56,0,0,1,.67.039.853.853,0,0,1,.728.9" fill="#1d3e77" fill-rule="evenodd"/>
      <path id="Path_1037" data-name="Path 1037" d="M693.266,2212.242l-1.764-4.4c-.165-.4-.259-.591-.639-.591h-1.472c0,.264.492.2.492.591l-.163.548-1.677,3.853h.629l.608-1.437h1.992l.567,1.437a3.723,3.723,0,0,1,.692-.053,5.388,5.388,0,0,1,.735.053m-2.186-1.98H689.5l.834-1.95Z" fill="#1d3e77" fill-rule="evenodd"/>
      <path id="Path_1038" data-name="Path 1038" d="M698.368,2208.634l-.06-1.134a2.77,2.77,0,0,0-1.415-.349,2.652,2.652,0,0,0-2.842,2.588,2.567,2.567,0,0,0,2.828,2.582,2.212,2.212,0,0,0,1.446-.439v-.731a1.637,1.637,0,0,1-1.225.615c-1.177,0-1.627-1.09-1.627-2.109,0-.927.469-2.018,1.5-2.018a1.061,1.061,0,0,1,.67.192,1.144,1.144,0,0,1,.342.579l.283.248.1-.024" fill="#1d3e77" fill-rule="evenodd"/>
      <path id="Path_1039" data-name="Path 1039" d="M703.877,2208.634l-.051-1.134a2.873,2.873,0,0,0-1.427-.349,2.658,2.658,0,0,0-2.844,2.588,2.565,2.565,0,0,0,2.823,2.582,2.3,2.3,0,0,0,1.475-.439v-.731a1.672,1.672,0,0,1-1.235.615c-1.185,0-1.622-1.09-1.622-2.109,0-.927.452-2.018,1.507-2.018a1.014,1.014,0,0,1,.653.192,1.181,1.181,0,0,1,.346.579l.286.248.089-.024" fill="#1d3e77" fill-rule="evenodd"/>
      <path id="Path_1040" data-name="Path 1040" d="M710.546,2209.768a2.477,2.477,0,0,0-2.689-2.643,2.584,2.584,0,0,0-2.791,2.53,2.5,2.5,0,0,0,2.705,2.7,2.567,2.567,0,0,0,2.775-2.584m-1.435-.053c0,.79-.213,2.138-1.251,2.138-1.158,0-1.365-1.177-1.365-2.1,0-.845.2-2.133,1.293-2.133s1.323,1.244,1.323,2.095" fill="#1d3e77" fill-rule="evenodd"/>
      <path id="Path_1041" data-name="Path 1041" d="M654.593,2201.273a1.869,1.869,0,0,0-1.864-1.7,1.46,1.46,0,0,0,1.4-1.415c0-.721-.6-1.083-1.211-1.2a6.817,6.817,0,0,0-1.458-.1h-2.239l.425.466a1.445,1.445,0,0,1,.229.985v4.642h2.147a3.645,3.645,0,0,0,1.725-.289,1.547,1.547,0,0,0,.848-1.393m-1.864-2.907c0,.831-.4,1.1-1.187,1.1l-.269-.011V2197.5c0-.149.07-.192.327-.192a1.022,1.022,0,0,1,1.129,1.054m.35,2.792c0,.864-.408,1.3-1.172,1.3-.439,0-.634-.05-.634-.42v-2.052h.216a1.7,1.7,0,0,1,1.36.469,1.276,1.276,0,0,1,.23.7" fill="#1d3e77" fill-rule="evenodd"/>
      <path id="Path_1042" data-name="Path 1042" d="M661.416,2202.892l-.044-.043-.168-.031a1.893,1.893,0,0,1-.879-.6c-.283-.274-.649-.726-1.057-1.194l-.454-.543c.507-.168,1.2-.6,1.2-1.29a1.069,1.069,0,0,0-.308-.759,2.612,2.612,0,0,0-1.768-.467h-2.546l.336.375a1.036,1.036,0,0,1,.226.781v3.837a3.366,3.366,0,0,1,.685-.063l.646.063v-2.148l.389.192c.4.406.9,1.393,1.554,1.749a2.971,2.971,0,0,0,1.285.25c.231,0,.692-.022.865-.043l.039-.063m-2.777-3.575c0,.591-.229,1.062-.885,1.062-.22,0-.47,0-.47-.242v-1.689a2.566,2.566,0,0,1,.514-.046.9.9,0,0,1,.586.2,1.016,1.016,0,0,1,.255.716" fill="#1d3e77" fill-rule="evenodd"/>
      <path id="Path_1043" data-name="Path 1043" d="M663.623,2202.955V2198.1l-.136-.14h-1.778l.341.375a1.106,1.106,0,0,1,.231.817v3.8a3.182,3.182,0,0,1,.677-.063l.665.063" fill="#1d3e77" fill-rule="evenodd"/>
      <path id="Path_1044" data-name="Path 1044" d="M669.348,2199.106l-.033-1.144H664.88l-.048,1.156.06.012.252-.228a.682.682,0,0,1,.762-.454h.511v4.507a3.427,3.427,0,0,1,.68-.063l.668.063v-4.507h.519c.5,0,.6.12.785.485l.214.185.065-.012" fill="#1d3e77" fill-rule="evenodd"/>
      <path id="Path_1045" data-name="Path 1045" d="M671.943,2202.955V2198.1l-.125-.14H670.04l.327.375a1.065,1.065,0,0,1,.235.817v3.8a3.051,3.051,0,0,1,.673-.063l.668.063" fill="#1d3e77" fill-rule="evenodd"/>
      <path id="Path_1046" data-name="Path 1046" d="M676.865,2201.573c0-1.693-2.249-1.564-2.249-2.64,0-.408.426-.62.762-.62l.509.116.411.473c.115.257.2.382.348.382l.092-.046-.092-1.122a3.317,3.317,0,0,0-1.3-.252,2.941,2.941,0,0,0-1.205.252,1.338,1.338,0,0,0-.8,1.132c0,1.717,2.208,1.492,2.208,2.662a.706.706,0,0,1-.781.646,1.872,1.872,0,0,1-1.52-1.011v1.136a3.208,3.208,0,0,0,1.6.37c1.114,0,2.015-.548,2.015-1.478" fill="#1d3e77" fill-rule="evenodd"/>
      <path id="Path_1047" data-name="Path 1047" d="M682.924,2202.955v-4.993h-1.343v2.014h-2v-1.884l-.142-.13h-1.763l.377.4a1.257,1.257,0,0,1,.185.783v3.806a3.274,3.274,0,0,1,.689-.063,2.984,2.984,0,0,1,.654.063v-2.439h2v2.439a3.2,3.2,0,0,1,.684-.063,2.914,2.914,0,0,1,.659.063" fill="#1d3e77" fill-rule="evenodd"/>
      <path id="Path_1048" data-name="Path 1048" d="M692.934,2202.955l-2.037-5.372c-.173-.471-.3-.721-.747-.721h-1.492c0,.341.509.212.509.721l-.2.67-1.967,4.7h.7l.728-1.807h2.379l.653,1.807a3.257,3.257,0,0,1,.706-.073,3.878,3.878,0,0,1,.769.073m-2.34-2.388h-1.922l1.024-2.494Z" fill="#1d3e77" fill-rule="evenodd"/>
      <path id="Path_1049" data-name="Path 1049" d="M700.235,2202.955l-.694-3.6a5.529,5.529,0,0,1-.1-.985l.079-.409h-.956c-.308,0-.385.13-.51.4l-1.117,2.422-1.2-2.619-.317-.2h-1.514l.3.337a.622.622,0,0,1,.266.533l-.062.365-.831,3.758h.61l.747-3.525,1.542,3.6,1.7-3.675.7,3.6a3.137,3.137,0,0,1,.675-.063l.673.063" fill="#1d3e77" fill-rule="evenodd"/>
      <path id="Path_1050" data-name="Path 1050" d="M705.2,2201.874l-.079-.01c-.312,0-.139.564-1.033.564h-1.117v-1.892h1.739v-.551h-1.739v-1.513h1.4a.983.983,0,0,1,.579.168l-.029-.678h-3.877l.341.375a1.011,1.011,0,0,1,.241.793v3.411c0,.37.019.414.415.414h2.828c.2,0,.235-.166.269-.443l.057-.638" fill="#1d3e77" fill-rule="evenodd"/>
      <path id="Path_1051" data-name="Path 1051" d="M711.944,2202.892l-.056-.043-.146-.031a1.833,1.833,0,0,1-.9-.6c-.279-.274-.647-.726-1.046-1.194l-.456-.543c.5-.168,1.192-.6,1.192-1.29a1.018,1.018,0,0,0-.3-.759,2.6,2.6,0,0,0-1.778-.467h-2.534l.341.375a1.1,1.1,0,0,1,.209.781v3.837a3.443,3.443,0,0,1,.689-.063,3.248,3.248,0,0,1,.661.063v-2.148l.379.192c.407.406.894,1.393,1.562,1.749a2.908,2.908,0,0,0,1.278.25c.245,0,.7-.022.877-.043l.029-.063m-2.784-3.575c0,.591-.217,1.062-.873,1.062-.23,0-.468,0-.468-.242v-1.689a2.344,2.344,0,0,1,.5-.046.85.85,0,0,1,.581.2.908.908,0,0,1,.265.716" fill="#1d3e77" fill-rule="evenodd"/>
      <path id="Path_1052" data-name="Path 1052" d="M714.161,2202.955V2198.1l-.144-.14h-1.773l.332.375a1.1,1.1,0,0,1,.228.817v3.8a3.176,3.176,0,0,1,.675-.063l.682.063" fill="#1d3e77" fill-rule="evenodd"/>
      <path id="Path_1053" data-name="Path 1053" d="M719.864,2199.332l-.053-1.122a2.772,2.772,0,0,0-1.415-.346,2.665,2.665,0,0,0-2.851,2.582,2.571,2.571,0,0,0,2.83,2.585,2.367,2.367,0,0,0,1.47-.432v-.735a1.666,1.666,0,0,1-1.237.6c-1.173,0-1.622-1.076-1.622-2.1,0-.935.454-2.018,1.5-2.018a1.042,1.042,0,0,1,.658.185,1.181,1.181,0,0,1,.363.574l.274.264.086-.038" fill="#1d3e77" fill-rule="evenodd"/>
      <path id="Path_1054" data-name="Path 1054" d="M725.9,2202.955l-1.763-4.4c-.159-.394-.265-.589-.644-.589h-1.471c0,.27.486.2.486.589l-.168.548-1.668,3.856h.62l.61-1.442h2.006l.534,1.442a3.624,3.624,0,0,1,.713-.063,4.264,4.264,0,0,1,.745.063m-2.191-1.98h-1.571l.833-1.946Z" fill="#1d3e77" fill-rule="evenodd"/>
      <path id="Path_1055" data-name="Path 1055" d="M731.314,2202.955v-4.993h-.62l.05,3.325-2.616-3.168-.329-.157H726.41l.33.378a1.061,1.061,0,0,1,.211.814v3.8h.639l-.058-3.534,2.29,2.808.495.5a1.8,1.8,0,0,0,.886.231h.111" fill="#1d3e77" fill-rule="evenodd"/>
      <path id="Path_1056" data-name="Path 1056" d="M672.169,2221.918v-4.187h-1.485v-.958h4.536v.958H673.73v4.187Z" fill="#1d3e77"/>
      <path id="Path_1057" data-name="Path 1057" d="M678.583,2216.773v2.693a5.207,5.207,0,0,0,.026.617l.123.469.24.29.4.1a.647.647,0,0,0,.6-.377,2.318,2.318,0,0,0,.207-1.117v-2.671h1.345v3.108a2.347,2.347,0,0,1-.185.985,1.79,1.79,0,0,1-.48.663,2.177,2.177,0,0,1-.719.37,3.058,3.058,0,0,1-.84.12,3.539,3.539,0,0,1-.909-.112,2.083,2.083,0,0,1-.727-.354,1.712,1.712,0,0,1-.467-.653,2.431,2.431,0,0,1-.172-.98v-3.147h1.559m-.108-.236-.344-.139c-.639-1.086,1.341-1.076.685,0Zm1.78,0-.332-.139c-.663-1.1,1.357-1.052.673,0Z" fill="#1d3e77"/>
      <path id="Path_1058" data-name="Path 1058" d="M683.1,2216.773h2.3a2.278,2.278,0,0,1,1.389.365,1.22,1.22,0,0,1,.48,1.009,1.57,1.57,0,0,1-.259.951,1.515,1.515,0,0,1-.612.538l1.141,2.21-1.663.173-.819-2.042h-.4v1.941H683.1v-5.145m1.559,2.222h.437l.267-.051.192-.146.122-.211.041-.219-.055-.31-.14-.2-.216-.093-.24-.034h-.408Z" fill="#1d3e77"/>
      <path id="Path_1059" data-name="Path 1059" d="M691.325,2218.9h.012l1.285-2.2,1.365.269-1.336,2.052,1.811,2.705-1.61.269-1.516-2.571h-.012v2.494h-1.55v-5.146h1.55Z" fill="#1d3e77"/>
      <path id="Path_1060" data-name="Path 1060" d="M697.857,2221.918h-1.55v-5.145h1.55Zm-.82-6.889.536.192.209.514-.062.274-.147.211-.235.152-.262.05-.507-.192-.195-.495.048-.274.14-.221.2-.144Z" fill="#1d3e77"/>
      <path id="Path_1061" data-name="Path 1061" d="M701.318,2221.918v-2l-1.516-3.073,1.668-.146c.139.338.266.689.4,1.045a11.843,11.843,0,0,1,.4,1.21h.016c.159-.444.315-.86.469-1.21s.3-.707.461-1.045l1.24.146-1.581,3.073v2h-1.557" fill="#1d3e77"/>
      <path id="Path_1062" data-name="Path 1062" d="M710,2217.731h-1.573v1.026h1.54v.958h-1.54v1.24h1.9v.963h-3.45v-5.146H710Z" fill="#1d3e77"/>
    </g>
  </g>
</svg>
