<svg xmlns="http://www.w3.org/2000/svg" width="165" height="73" viewBox="0 0 165 73">
  <g id="CENTURION" transform="translate(19654.999 4388)">
    <g id="Group_893" data-name="Group 893" transform="translate(-21160.49 -6453.841)">
      <path id="Path_576" data-name="Path 576" d="M1561.294,2097.113a6.284,6.284,0,0,1,1.982.279,6.052,6.052,0,0,1,1.375.629,4.365,4.365,0,0,1,.825.66c.191.207.3.334.332.379l-1.054.986c-.03-.031-.118-.126-.263-.287a3.311,3.311,0,0,0-.642-.515,4.787,4.787,0,0,0-1.065-.493,4.645,4.645,0,0,0-1.49-.218,4.461,4.461,0,0,0-4.239,2.9,5.335,5.335,0,0,0-.344,1.938,5.42,5.42,0,0,0,.333,1.916,4.472,4.472,0,0,0,.95,1.54,4.366,4.366,0,0,0,1.49,1.015,5.06,5.06,0,0,0,1.971.364,4.639,4.639,0,0,0,1.489-.217,4.81,4.81,0,0,0,1.066-.493,3.256,3.256,0,0,0,.641-.516c.145-.16.233-.255.264-.286l1.054.985c-.031.046-.142.173-.332.38a4.434,4.434,0,0,1-.825.66,6.1,6.1,0,0,1-1.375.629,6.288,6.288,0,0,1-1.982.279,6.656,6.656,0,0,1-2.613-.493,5.988,5.988,0,0,1-1.993-1.34,5.923,5.923,0,0,1-1.272-1.982,6.837,6.837,0,0,1,.011-4.892,6.052,6.052,0,0,1,1.284-1.994,5.939,5.939,0,0,1,1.959-1.329A6.235,6.235,0,0,1,1561.294,2097.113Z" fill="#0a1d3f"/>
      <path id="Path_577" data-name="Path 577" d="M1572.64,2097.113a6.473,6.473,0,0,1,2.131.32,5.581,5.581,0,0,1,1.592.848,5.315,5.315,0,0,1,1.135,1.2,7.265,7.265,0,0,1,.733,1.364,6.708,6.708,0,0,1,.389,1.352,6.925,6.925,0,0,1,.115,1.168h-10.678v.206a4.4,4.4,0,0,0,.366,1.79,4.953,4.953,0,0,0,.986,1.471,4.522,4.522,0,0,0,1.455,1,4.394,4.394,0,0,0,1.776.364,5.38,5.38,0,0,0,1.89-.3,6.006,6.006,0,0,0,1.329-.676,4.3,4.3,0,0,0,.825-.722q.287-.344.378-.459l1.169.894a6.253,6.253,0,0,1-.424.539,5.309,5.309,0,0,1-1.043.9,7.937,7.937,0,0,1-1.707.859,6.93,6.93,0,0,1-2.44.384,6.311,6.311,0,0,1-2.406-.458,5.917,5.917,0,0,1-1.955-1.283,5.851,5.851,0,0,1-1.306-2.005,6.967,6.967,0,0,1-.474-2.624,6.226,6.226,0,0,1,.474-2.452,6,6,0,0,1,1.306-1.948,5.893,5.893,0,0,1,1.966-1.283A6.4,6.4,0,0,1,1572.64,2097.113Zm4.4,4.9a6.863,6.863,0,0,0-.229-.842,3.746,3.746,0,0,0-.653-1.161,4.05,4.05,0,0,0-1.318-1.036,5.517,5.517,0,0,0-4.365.012,4.577,4.577,0,0,0-1.363,1.047,4.069,4.069,0,0,0-.722,1.161,3.62,3.62,0,0,0-.241.819Z" fill="#0a1d3f"/>
      <path id="Path_578" data-name="Path 578" d="M1589.662,2109.3h-1.512v-7.66a3.369,3.369,0,0,0-.286-1.463,2.532,2.532,0,0,0-.791-.961,3.284,3.284,0,0,0-1.226-.526,7.284,7.284,0,0,0-1.57-.16,8.968,8.968,0,0,0-1.924.16q-.688.16-.848.206v10.4h-1.513v-9.991c0-.29,0-.511-.011-.664a1.77,1.77,0,0,0-.046-.355.827.827,0,0,0-.092-.218c-.038-.061-.088-.145-.149-.252.031-.015.149-.061.356-.137a6.972,6.972,0,0,1,.87-.241c.375-.084.844-.16,1.41-.229a16.223,16.223,0,0,1,1.947-.1q5.385,0,5.385,4.674Z" fill="#0a1d3f"/>
      <path id="Path_579" data-name="Path 579" d="M1593.9,2093.7v3.735h4.515v1.352H1593.9v6.927a4.492,4.492,0,0,0,.081.823,2.152,2.152,0,0,0,.32.8,1.974,1.974,0,0,0,.676.617,2.272,2.272,0,0,0,1.146.251,3.7,3.7,0,0,0,1.1-.137,2.8,2.8,0,0,0,.71-.321,1.581,1.581,0,0,0,.4-.355c.084-.115.149-.2.195-.264l1.054.986c-.031.031-.114.127-.252.29a2.74,2.74,0,0,1-.63.512,5.237,5.237,0,0,1-1.065.489,4.748,4.748,0,0,1-1.536.221,3.927,3.927,0,0,1-1.81-.367,3.147,3.147,0,0,1-1.134-.951,3.613,3.613,0,0,1-.6-1.294,6,6,0,0,1-.172-1.421v-6.806h-2.223v-1.352h2.223V2093.7Z" fill="#0a1d3f"/>
      <path id="Path_580" data-name="Path 580" d="M1609.618,2097.433v9.395a8.707,8.707,0,0,0,.115,1.754,2.713,2.713,0,0,0,.183.584l-1.512.344a4.063,4.063,0,0,1-.2-.837,7.159,7.159,0,0,1-.08-1.065,4.944,4.944,0,0,1-.3.469,3.027,3.027,0,0,1-.688.676,4.638,4.638,0,0,1-1.168.608,4.984,4.984,0,0,1-1.719.263,4.527,4.527,0,0,1-1.959-.378,3.64,3.64,0,0,1-1.283-.985,3.816,3.816,0,0,1-.711-1.364,5.519,5.519,0,0,1-.217-1.535v-7.929h1.512v7.912a2.8,2.8,0,0,0,.756,2.172,2.885,2.885,0,0,0,2.017.686,4.2,4.2,0,0,0,1.512-.262,3.514,3.514,0,0,0,1.18-.732,3.342,3.342,0,0,0,1.043-2.458v-7.318Z" fill="#0a1d3f"/>
      <path id="Path_581" data-name="Path 581" d="M1612.844,2097.433l-.023,2.109a4,4,0,0,1,1.34-1.73,4.076,4.076,0,0,1,2.509-.7,2.553,2.553,0,0,1,.528.045l.3.069-.3,1.4a2.727,2.727,0,0,0-.321-.069,2.326,2.326,0,0,0-.321-.023,3.405,3.405,0,0,0-1.822.435,3.079,3.079,0,0,0-1.1,1.178,5.05,5.05,0,0,0-.538,1.692,13.744,13.744,0,0,0-.138,1.978v5.487h-1.535v-11.87Z" fill="#0a1d3f"/>
      <path id="Path_582" data-name="Path 582" d="M1618.214,2095.092a1.021,1.021,0,0,1,.32-.767,1.052,1.052,0,0,1,.757-.31,1.011,1.011,0,0,1,.744.31,1.04,1.04,0,0,1,.31.767.979.979,0,0,1-.321.768,1.069,1.069,0,0,1-.733.286,1.111,1.111,0,0,1-.745-.286A.961.961,0,0,1,1618.214,2095.092Z" fill="#0a1d3f"/>
      <rect id="Rectangle_354" data-name="Rectangle 354" width="1.512" height="11.87" transform="translate(1618.534 2097.433)" fill="#0a1d3f"/>
      <path id="Path_583" data-name="Path 583" d="M1627.582,2097.113a6.231,6.231,0,0,1,5.774,3.758,6.076,6.076,0,0,1,.5,2.474,6.4,6.4,0,0,1-.458,2.418,6.218,6.218,0,0,1-1.283,1.994,6.1,6.1,0,0,1-1.982,1.363,6.337,6.337,0,0,1-2.555.5,6.587,6.587,0,0,1-2.521-.47,5.875,5.875,0,0,1-1.982-1.317,6.092,6.092,0,0,1-1.306-1.994,6.506,6.506,0,0,1-.47-2.5,6.26,6.26,0,0,1,.458-2.371,6.117,6.117,0,0,1,1.3-1.994,6.2,6.2,0,0,1,1.993-1.363A6.279,6.279,0,0,1,1627.582,2097.113Zm-4.7,6.187a5.5,5.5,0,0,0,.331,1.938,4.717,4.717,0,0,0,.938,1.552,4.267,4.267,0,0,0,1.474,1.037,4.839,4.839,0,0,0,1.943.376,4.78,4.78,0,0,0,1.966-.387,4.419,4.419,0,0,0,1.475-1.049,4.714,4.714,0,0,0,.937-1.551,5.468,5.468,0,0,0,.331-1.916,4.868,4.868,0,0,0-.331-1.767,4.932,4.932,0,0,0-.937-1.528,4.46,4.46,0,0,0-1.475-1.072,4.655,4.655,0,0,0-1.966-.4,4.9,4.9,0,0,0-2.011.388,4.3,4.3,0,0,0-2.366,2.555A5.393,5.393,0,0,0,1622.884,2103.3Z" fill="#0a1d3f"/>
      <path id="Path_584" data-name="Path 584" d="M1645.043,2109.3h-1.513v-7.66a3.353,3.353,0,0,0-.286-1.463,2.524,2.524,0,0,0-.791-.961,3.278,3.278,0,0,0-1.226-.526,7.275,7.275,0,0,0-1.569-.16,8.978,8.978,0,0,0-1.925.16q-.688.16-.848.206v10.4h-1.512v-9.991c0-.29,0-.511-.012-.664a1.76,1.76,0,0,0-.046-.355.822.822,0,0,0-.091-.218c-.039-.061-.088-.145-.149-.252.03-.015.149-.061.355-.137a6.947,6.947,0,0,1,.871-.241q.561-.126,1.409-.229a16.228,16.228,0,0,1,1.948-.1q5.383,0,5.385,4.674Z" fill="#0a1d3f"/>
      <path id="Path_585" data-name="Path 585" d="M1547.038,2115.134s-5.394.93-8.371-1.674-2.976-6.976-2.325-9.674a10.342,10.342,0,0,1,7.069-7.348c4.465-1.581,7.471-.088,8.808-.3,1.5-.242,1.9-1.151,2.126-2.349a2.827,2.827,0,0,0-1.726-3.207c-1.674-.93-6.418-.93-9.208-.279a15.847,15.847,0,0,0-9.209,5.767,12.241,12.241,0,0,0-2.325,10.511,10.231,10.231,0,0,0,4.672,6.5,15.2,15.2,0,0,0,3.7,1.687,18.733,18.733,0,0,0,2.512.465A14.2,14.2,0,0,0,1547.038,2115.134Z" fill="#0a1d3f"/>
      <path id="Path_586" data-name="Path 586" d="M1547.3,2114.81s-3.258.587-5.213-.2-4.986-2.926-4.7-8.391a8.794,8.794,0,0,1,1.435-4.208,11.715,11.715,0,0,1,7.7-4.9,10.56,10.56,0,0,1,3.226,0c2.095.232,3.416,1.013,3.568,2.129.22,1.613.123,2.786-1.637,3.177s-1.955-.44-5.328.538a7.469,7.469,0,0,0-5.594,6.113c-.318,2.566.756,3.663,2.54,4.665A10.017,10.017,0,0,0,1547.3,2114.81Z" fill="#1f85c8"/>
      <path id="Path_587" data-name="Path 587" d="M1543.775,2107.405a2.96,2.96,0,0,0,.557,3.586c1.443,1.223,3.917.875,5.467-.06,1.614-.975,1.548-1.851,2.428-2.047s.819.525.672.867a7.317,7.317,0,0,1-4.534,2.819c-2.468.318-3.653-.2-4.631-1.475S1543.359,2108.187,1543.775,2107.405Z" fill="#1f85c8"/>
      <path id="Path_588" data-name="Path 588" d="M1543.58,2107.712a4.867,4.867,0,0,0-.481,4.042c.559,1.628,2.224,2.517,4.553,2.517a9.424,9.424,0,0,0,6.586-2.893c1.628-1.689.479-1.847.188-1.847a1.517,1.517,0,0,0-1.027.486,8.68,8.68,0,0,1-2.313,2.1,7.9,7.9,0,0,1-3.87,1.141,4.483,4.483,0,0,1-3.658-1.67C1542.97,2110.743,1542.743,2109.5,1543.58,2107.712Z" fill="#0a1d3f"/>
    </g>
    <rect id="Rectangle_616" data-name="Rectangle 616" width="165" height="73" transform="translate(-19655 -4388)" fill="none"/>
  </g>
</svg>
