<svg xmlns="http://www.w3.org/2000/svg" width="165" height="73" viewBox="0 0 165 73">
  <g id="EBAT" transform="translate(19272 3871)">
    <rect id="Rectangle_628" data-name="Rectangle 628" width="165" height="73" transform="translate(-19272 -3871)" fill="none"/>
    <g id="Group_904" data-name="Group 904" transform="translate(-20956.869 -5937.483)">
      <path id="Path_1208" data-name="Path 1208" d="M1735.9,2093.047c-10.674,0-11.1,8.271-11.027,10.462,0,0-.495,9.684,10.745,9.684,9.684,0,10.179-6.079,10.179-6.079h-4.454s-.848,3.323-5.725,3.252c-6.221-.141-6.433-6.15-6.433-6.15h17.177c.071,0,1.343-11.169-10.462-11.169m-6.5,8.271s.283-5.443,6.433-5.443c6.079,0,6.079,5.443,6.079,5.443Z" fill="#e23139"/>
      <path id="Path_1209" data-name="Path 1209" d="M1758.381,2093.047c-5.372,0-7.7,3.181-7.7,3.181v-10.745h-4.312l.071,22.692s0,2.615-.212,4.382h4.171l.212-2.545s1.979,3.181,7.634,3.181c5.726,0,10.179-3.534,10.321-10.037s-4.807-10.109-10.18-10.109m-.989,17.248c-6.786.071-6.645-7.21-6.645-7.21s-.212-7,6.645-7.21c6.927-.212,6.645,7.351,6.645,7.351s.141,7-6.645,7.069" fill="#0765d1"/>
      <path id="Path_1210" data-name="Path 1210" d="M1788.495,2108.033c0-2.9.071-5.584,0-7.422-.141-2.121.071-7.281-9.19-7.705,0,0-8.906-.778-9.825,5.8H1774s.353-3.039,4.948-2.969c4.383.071,5.16,2.192,5.16,4.878h-5.019c-2.262,0-10.108.283-10.815,5.089-.848,5.726,4.241,7.493,8.2,7.423,3.958,0,6.22-1.2,7.917-3.323l.212,2.616h3.959a38.893,38.893,0,0,1-.071-4.383m-11.24,2.4s-4.312,0-4.594-3.464c-.283-3.676,6.644-3.464,6.644-3.464h4.878c0,.071.778,7-6.928,6.928" fill="#f5ad03"/>
      <path id="Path_1211" data-name="Path 1211" d="M1786.092,2093.754h5.019l7.281,14.562,7.352-14.562h4.453l-13.148,25.943h-4.878l3.817-7.21Z" fill="#86b819"/>
    </g>
  </g>
</svg>
