<svg xmlns="http://www.w3.org/2000/svg" width="165" height="73" viewBox="0 0 165 73">
  <g id="ELECTRON" transform="translate(19677 4534)">
    <g id="Group_895" data-name="Group 895" transform="translate(-21003.027 -6508.225)">
      <g id="Group_428" data-name="Group 428">
        <path id="Path_589" data-name="Path 589" d="M1394.485,2018H1389.6l3.665-13.676h4.886Z" fill="#2b2b33"/>
        <path id="Path_590" data-name="Path 590" d="M1410.939,2013.356h-8.409l-.219.824a2.746,2.746,0,0,0-.114.719q0,.909.963.91a1.591,1.591,0,0,0,1.642-1.346h5.688q-1.861,3.636-7.94,3.636-6,0-6-3.56a5.588,5.588,0,0,1,.219-1.46l.229-.887q1.345-5.021,8.475-5.02,6.014,0,6.013,3.531a5.565,5.565,0,0,1-.229,1.5Zm-5.316-1.9.1-.382a2.726,2.726,0,0,0,.1-.7q.019-.935-.954-.935-1.29,0-1.728,1.632l-.1.382Z" fill="#2b2b33"/>
        <path id="Path_591" data-name="Path 591" d="M1425.655,2014.177q-1.785,3.922-8.084,3.922-5.992,0-6-3.55a5.54,5.54,0,0,1,.219-1.47l.229-.887q1.345-5.021,8.475-5.02,6,0,6,3.54c0,.121,0,.242-.01.363h-5.745a2.9,2.9,0,0,0,.1-.712q0-.9-.964-.9-1.289,0-1.718,1.623l-.83,3.1a2.709,2.709,0,0,0-.115.707q0,.915.964.916,1.289,0,1.727-1.632Z" fill="#2b2b33"/>
        <path id="Path_592" data-name="Path 592" d="M1437.136,2010.2h-2.386l-2.09,7.807h-4.887l2.09-7.807h-2.385l.792-2.93h2.386l.782-2.939h4.887l-.783,2.939h2.386Z" fill="#2b2b33"/>
        <path id="Path_593" data-name="Path 593" d="M1447.414,2009.634a13.359,13.359,0,0,0-2.271-.191q-1.957,0-2.577,2.3l-1.68,6.261H1436l2.882-10.737h4.886l-.095.363a7.18,7.18,0,0,1,2.539-.458q1.317,0,1.851.038Z" fill="#2b2b33"/>
        <path id="Path_594" data-name="Path 594" d="M1461.011,2013.07q-1.345,5.03-8.475,5.029-6.04,0-6-3.6a5.783,5.783,0,0,1,.219-1.431l.229-.878q1.345-5.021,8.475-5.02,6,0,6,3.559a5.477,5.477,0,0,1-.22,1.461Zm-6.136,1.116.83-3.1a2.916,2.916,0,0,0,.105-.707q0-.915-.964-.916-1.288,0-1.718,1.623l-.83,3.1a2.714,2.714,0,0,0-.115.707q0,.915.964.916Q1454.435,2015.809,1454.875,2014.186Z" fill="#2b2b33"/>
        <path id="Path_595" data-name="Path 595" d="M1472.988,2018H1468.1l1.861-6.939a3.313,3.313,0,0,0,.114-.706q0-.915-.963-.916-1.289,0-1.728,1.632l-1.861,6.929h-4.886l2.882-10.737h4.886l-.095.363a8.626,8.626,0,0,1,3.121-.458q3.54,0,3.541,2.739a6.067,6.067,0,0,1-.249,1.6Z" fill="#2b2b33"/>
        <rect id="Rectangle_355" data-name="Rectangle 355" width="13.648" height="3.412" transform="translate(1349.354 2004.343)" fill="#f16450"/>
        <rect id="Rectangle_356" data-name="Rectangle 356" width="3.412" height="13.648" transform="translate(1354.472 1999.225)" fill="#f16450"/>
        <rect id="Rectangle_357" data-name="Rectangle 357" width="13.648" height="3.412" transform="translate(1354.472 2014.577)" fill="#f16450"/>
        <rect id="Rectangle_358" data-name="Rectangle 358" width="3.412" height="13.648" transform="translate(1359.59 2009.459)" fill="#f16450"/>
        <path id="Path_596" data-name="Path 596" d="M1374.521,2009.461h-9.835v3.412h8.921Z" fill="#f16450"/>
        <path id="Path_597" data-name="Path 597" d="M1343.941,2009.461l-.914,3.412h9.74v-3.412Z" fill="#f16450"/>
        <path id="Path_598" data-name="Path 598" d="M1388.454,2018h-12.579l3.665-13.676h12.579l-.783,2.939H1384.6l-.658,2.434h5.783l-.782,2.93h-5.784l-.649,2.443h6.738Z" fill="#2b2b33"/>
      </g>
    </g>
    <rect id="Rectangle_616" data-name="Rectangle 616" width="165" height="73" transform="translate(-19677 -4534)" fill="none"/>
  </g>
</svg>
