<svg xmlns="http://www.w3.org/2000/svg" width="165" height="73" viewBox="0 0 165 73">
  <g id="HTC" transform="translate(19338 3993)">
    <rect id="Rectangle_624" data-name="Rectangle 624" width="165" height="73" transform="translate(-19338 -3993)" fill="none"/>
    <g id="Group_836" data-name="Group 836" transform="translate(-19767.189 -6058.49)">
      <path id="Path_798" data-name="Path 798" d="M541.221,2098.732c.88-.05,3.255-.041,7.54-.028l12.484.028v-5.183s-9.938-.01-12.931-.023c-4.012-.019-6.032-.023-7.313.023a10.052,10.052,0,0,0-7.006,2.97,11.633,11.633,0,0,0-2.92,7.387,35.135,35.135,0,0,0,0,4.71,11.313,11.313,0,0,0,2.92,7.107,10.416,10.416,0,0,0,7.011,2.974c2.093.023,20.239,0,20.239,0v-5.178s-5.509.023-8.319.049c-5.294.031-10.31.073-11.705-.049a5.089,5.089,0,0,1-4.94-4.822,25.486,25.486,0,0,1-.008-4.675c.259-2.647,2.474-5.174,4.948-5.29" fill="#8cc751"/>
      <path id="Path_799" data-name="Path 799" d="M496.573,2099h12.313v19.6h5.2V2099h12.32v-5.175H496.573" fill="#8cc751"/>
      <path id="Path_800" data-name="Path 800" d="M488.242,2096.5a11.19,11.19,0,0,0-7-2.965c-1.727-.1-8.526-.066-10.121,0a8.84,8.84,0,0,0-4.713,1.378.009.009,0,0,1-.015-.006v-9.417h-5.2V2118.7h5.194s-.1-13.591.015-15.071a5.272,5.272,0,0,1,4.748-4.924c2.039-.175,8.159-.124,10.084.008a5.09,5.09,0,0,1,4.737,5.021c.051,1.021,0,14.966,0,14.966h5.206s.011-13.89,0-15.09a9.963,9.963,0,0,0-2.932-7.107" fill="#8cc751"/>
    </g>
  </g>
</svg>
