<svg xmlns="http://www.w3.org/2000/svg" width="165" height="73" viewBox="0 0 165 73">
  <g id="N11" transform="translate(20741 4065)">
    <g id="Group_911" data-name="Group 911">
      <rect id="Rectangle_619" data-name="Rectangle 619" width="165" height="73" transform="translate(-20741 -4065)" fill="none"/>
      <path id="Path_1255" data-name="Path 1255" d="M-1.621,0H9V18H0Z" transform="translate(-20677.379 -4033)"/>
      <path id="Path_1256" data-name="Path 1256" d="M9,0H-1.621V18h9Z" transform="translate(-20690.379 -4033)"/>
      <g id="Group_856" data-name="Group 856" transform="translate(-21708.924 -6039.865)">
        <path id="Path_1064" data-name="Path 1064" d="M1025.673,1993.253a1.313,1.313,0,1,1-1.311-1.388,1.352,1.352,0,0,1,1.311,1.388"/>
        <path id="Path_1065" data-name="Path 1065" d="M1034.993,1993.253a1.313,1.313,0,1,1-1.311-1.388,1.352,1.352,0,0,1,1.311,1.388"/>
        <path id="Path_1066" data-name="Path 1066" d="M1049.486,2022.693a1.312,1.312,0,1,1-1.31-1.388,1.35,1.35,0,0,1,1.31,1.388"/>
        <path id="Path_1067" data-name="Path 1067" d="M1054.482,2011.647a7.61,7.61,0,0,1,9.869-.5.577.577,0,0,1,.276.471.751.751,0,0,1-.194.472l-.194.3a.576.576,0,0,1-.471.306.884.884,0,0,1-.471-.167,5.613,5.613,0,0,0-3.52-1.275,5.2,5.2,0,0,0-3.881,1.58,5.585,5.585,0,0,0-1.553,4.047,5.52,5.52,0,0,0,1.553,4.02,5.31,5.31,0,0,0,3.908,1.579,6.089,6.089,0,0,0,3.936-1.468.667.667,0,0,1,.417-.167.6.6,0,0,1,.5.332l.193.279a.688.688,0,0,1,.111.387.76.76,0,0,1-.277.554,7.617,7.617,0,0,1-4.961,1.775,7.169,7.169,0,0,1-5.24-2.025,7.672,7.672,0,0,1,0-10.505"/>
        <path id="Path_1068" data-name="Path 1068" d="M1069.473,2011.647a7.267,7.267,0,0,1,5.212-2.079,7.173,7.173,0,0,1,5.212,2.079,6.863,6.863,0,0,1,2.162,5.156,7.289,7.289,0,0,1-7.346,7.374,7.242,7.242,0,0,1-7.373-7.374,6.949,6.949,0,0,1,2.133-5.156m1.387,9.2a5.326,5.326,0,0,0,7.679,0,5.584,5.584,0,0,0,1.579-4.047,5.329,5.329,0,0,0-1.579-3.936,5.388,5.388,0,0,0-7.679,0,5.334,5.334,0,0,0-1.58,3.936,5.589,5.589,0,0,0,1.58,4.047"/>
        <path id="Path_1069" data-name="Path 1069" d="M1084.971,2010.594a.607.607,0,0,1,.694-.694h.5c.445,0,.666.223.666.694v1.608l-.111,1h.055a5.461,5.461,0,0,1,2.025-2.523,5.074,5.074,0,0,1,3.1-1.108c2.465,0,3.908,1.165,4.294,3.492h.056a6.055,6.055,0,0,1,2.025-2.439,5.243,5.243,0,0,1,3.1-1.053c3.3,0,4.63,1.83,4.63,5.405v8.178a.605.605,0,0,1-.692.693h-.5a.605.605,0,0,1-.693-.693v-7.707c0-2.633-.666-4.157-2.993-4.157a4.008,4.008,0,0,0-3.355,1.773,6.573,6.573,0,0,0-1.331,4.048v6.043c0,.471-.222.693-.665.693h-.526a.606.606,0,0,1-.694-.693v-7.707a6.65,6.65,0,0,0-.471-2.827,2.389,2.389,0,0,0-2.467-1.33,4.166,4.166,0,0,0-3.41,1.8,6.4,6.4,0,0,0-1.358,4.02v6.043c0,.471-.222.693-.666.693h-.525a.606.606,0,0,1-.694-.693Z"/>
        <path id="Path_1070" data-name="Path 1070" d="M994.924,2011.426a1.34,1.34,0,0,1,1.525-1.525H998a1.331,1.331,0,0,1,1.5,1.525v.249l-.028.36h.056a4.93,4.93,0,0,1,4.547-2.466c3.409,0,5.127,1.774,5.127,5.349v7.734a1.34,1.34,0,0,1-1.524,1.525h-1.747a1.34,1.34,0,0,1-1.524-1.525v-6.846c0-1.248-.527-1.885-1.58-1.885-2.024,0-3.1,1.607-3.1,3.8v4.934a1.341,1.341,0,0,1-1.525,1.525h-1.745a1.341,1.341,0,0,1-1.525-1.525Z"/>
        <path id="Path_1071" data-name="Path 1071" d="M1029.512,1999.787v30.679a15.346,15.346,0,0,0,0-30.679Zm9.477,21.834a4.447,4.447,0,0,1-.282,1.948,1.819,1.819,0,0,1-1.766.769,2.254,2.254,0,0,1-1.642-.475,2.879,2.879,0,0,1-.46-1.934V2014.5c0-.683-.01-1.092-.026-1.229a1.676,1.676,0,0,0-.487-.974,2.97,2.97,0,0,0-1.614-.281c-.975-.016-1.461-.488-1.461-1.409a1.3,1.3,0,0,1,.922-1.217q.922-.4,1.9-.783.615-.512,1.23-1a3.052,3.052,0,0,1,1.9-.692,1.543,1.543,0,0,1,1.64,1.024,9.589,9.589,0,0,1,.154,2.2Z" fill="#ff011b"/>
        <path id="Path_1072" data-name="Path 1072" d="M1013.7,2015.126a15.351,15.351,0,0,0,14.915,15.34v-30.679A15.351,15.351,0,0,0,1013.7,2015.126Zm11.4,6.495a4.462,4.462,0,0,1-.282,1.948,1.823,1.823,0,0,1-1.768.769,2.256,2.256,0,0,1-1.641-.475,2.879,2.879,0,0,1-.461-1.934V2014.5c0-.683-.009-1.092-.025-1.229a1.67,1.67,0,0,0-.487-.974,2.97,2.97,0,0,0-1.614-.281c-.975-.016-1.461-.488-1.461-1.409a1.3,1.3,0,0,1,.923-1.217q.921-.4,1.9-.783.616-.512,1.23-1a3.053,3.053,0,0,1,1.9-.692,1.542,1.542,0,0,1,1.639,1.024,9.628,9.628,0,0,1,.155,2.2Z" fill="#ff011b"/>
        <path id="Path_1073" data-name="Path 1073" d="M1029.064,1998.911a16.126,16.126,0,0,1,7.882,2.05,8.763,8.763,0,0,0-15.765,0A16.13,16.13,0,0,1,1029.064,1998.911Z"/>
      </g>
    </g>
  </g>
</svg>
