<svg xmlns="http://www.w3.org/2000/svg" width="165" height="73" viewBox="0 0 165 73">
  <g id="NEPHORA" transform="translate(19926 4319)">
    <g id="Group_420" data-name="Group 420" transform="translate(-21073.596 -6293.543)">
      <g id="Group_417" data-name="Group 417">
        <path id="Path_512" data-name="Path 512" d="M1161.6,1995.95h2.817l9.615,11.833h.042V1995.95h2.292v14.838h-2.783l-9.554-11.708h-.041v11.708H1161.6Z" fill="#078ac0"/>
        <path id="Path_513" data-name="Path 513" d="M1193.486,2000.044h2.363v1.456h.052c.746-1.185,2.5-1.7,4.389-1.7,4.229,0,6.431,2.619,6.431,5.653s-2.175,5.588-6.378,5.588c-1.409,0-3.431-.414-4.442-1.681h-.052v5.546h-2.363Zm6.485,1.31a3.84,3.84,0,0,0-4.2,4.053c0,2.117,1.223,4.072,4.335,4.072,3.087,0,4.123-2.057,4.123-4.156a3.882,3.882,0,0,0-4.256-3.969" fill="#078ac0"/>
        <path id="Path_514" data-name="Path 514" d="M1208.847,1995.95h2.262v5.674h.052c.745-1.289,2.686-1.829,4.337-1.829,3.616,0,4.735,1.62,4.735,3.927v7.066h-2.262v-7.272c0-1.311-1.064-2.162-2.793-2.162-2.74,0-4.069,1.433-4.069,3.365v6.069h-2.262Z" fill="#078ac0"/>
        <path id="Path_515" data-name="Path 515" d="M1236.794,1999.8c4.362,0,6.676,2.472,6.676,5.63,0,3.14-2.314,5.611-6.676,5.611s-6.676-2.471-6.676-5.611c0-3.158,2.314-5.63,6.676-5.63m0,9.684a4.068,4.068,0,1,0-4.283-4.054,3.956,3.956,0,0,0,4.283,4.054" fill="#078ac0"/>
        <path id="Path_516" data-name="Path 516" d="M1224.835,2002.3h0a5.655,5.655,0,0,1,5.1-2.6v1.93c-3.366,0-5,1.446-5,4.341v4.826h-2.4v-10.712h2.307Z" fill="#078ac0" fill-rule="evenodd"/>
        <path id="Path_517" data-name="Path 517" d="M1190.271,2001.816a7.37,7.37,0,0,0-9.811-.483,5.264,5.264,0,0,0-1.923,4.053,5.82,5.82,0,0,0,1.731,3.956,6.816,6.816,0,0,0,5,1.641,6.514,6.514,0,0,0,3.846-.965,4.8,4.8,0,0,0,2.118-2.7h-2.312c-.48,1.447-1.537,2.026-3.652,2.026a4.471,4.471,0,0,1-3.174-.965,2.759,2.759,0,0,1-1.153-2.51h10.388a6.014,6.014,0,0,0-1.058-4.051m-2.408.288a2.913,2.913,0,0,1,1.057,2.317h-7.979a3.955,3.955,0,0,1,1.25-2.317,4.79,4.79,0,0,1,2.788-.771,5.872,5.872,0,0,1,2.884.771" fill="#078ac0" fill-rule="evenodd"/>
      </g>
      <g id="Group_418" data-name="Group 418">
        <path id="Path_518" data-name="Path 518" d="M1279.944,2002.3h0a5.654,5.654,0,0,1,5.1-2.6v1.93c-3.366,0-5,1.446-5,4.341v4.826h-2.4v-10.712h2.307Z" fill="#0c4396" fill-rule="evenodd"/>
        <path id="Path_519" data-name="Path 519" d="M1268.886,2001.333c2.019,0,2.981.675,2.981,1.736,0,.484-.481.966-1.442,1.158l-3.173.482a16.142,16.142,0,0,0-3.366.772,2.559,2.559,0,0,0-1.443,2.413,2.468,2.468,0,0,0,1.443,2.413,5.752,5.752,0,0,0,3.174.676,6.978,6.978,0,0,0,5-1.64c0,1.156.672,1.64,1.923,1.64a7.045,7.045,0,0,0,1.634-.291v-1.349h-.673c-.481,0-.673,0-.673-.1l-.1-.965v-5.5c0-2.122-1.826-3.087-5.288-3.087a9.985,9.985,0,0,0-4.038.868,2.911,2.911,0,0,0-1.731,2.7h2.212c.192-1.255,1.25-1.93,3.557-1.93m2.981,3.86v1.736a1.892,1.892,0,0,1-.962,1.64,6.423,6.423,0,0,1-3.365.774c-1.731,0-2.692-.484-2.692-1.545,0-.966.961-1.64,2.885-1.931l2.211-.193a13.8,13.8,0,0,0,1.923-.481" fill="#0c4396" fill-rule="evenodd"/>
        <path id="Path_520" data-name="Path 520" d="M1296.771,2001.816a7.366,7.366,0,0,0-9.808-.483,5.267,5.267,0,0,0-1.923,4.053,5.821,5.821,0,0,0,1.732,3.956,6.813,6.813,0,0,0,5,1.641,6.512,6.512,0,0,0,3.846-.965,4.813,4.813,0,0,0,2.115-2.7h-2.308c-.481,1.447-1.538,2.026-3.653,2.026a4.469,4.469,0,0,1-3.174-.965,2.758,2.758,0,0,1-1.154-2.51h10.385a6.009,6.009,0,0,0-1.058-4.051m-2.4.288a2.917,2.917,0,0,1,1.058,2.317h-7.981a3.957,3.957,0,0,1,1.251-2.317,4.788,4.788,0,0,1,2.788-.771,5.869,5.869,0,0,1,2.884.771" fill="#0c4396" fill-rule="evenodd"/>
        <path id="Path_521" data-name="Path 521" d="M1258.6,1996.8a5.711,5.711,0,0,1,2.4,3.57h-2.6c-.577-2.123-2.211-3.185-4.808-3.185a4.9,4.9,0,0,0-4.326,1.93,5.887,5.887,0,0,0-1.443,4.15c0,4.052,1.923,6.08,5.674,6.08,2.98,0,4.807-1.449,5.1-4.151h2.6c-.48,4.054-3.269,5.983-7.886,5.983a8.228,8.228,0,0,1-6.249-2.413,7.993,7.993,0,0,1-1.923-5.306,7.583,7.583,0,0,1,2.115-5.693,8.754,8.754,0,0,1,6.346-2.22,9.32,9.32,0,0,1,5,1.255" fill="#0c4396" fill-rule="evenodd"/>
      </g>
      <g id="Group_419" data-name="Group 419">
        <path id="Path_522" data-name="Path 522" d="M1161.869,2019.7h3.6v.613H1162.6v1.741h2.515v.613H1162.6v2.508h-.729Z" fill="#9c9c9a"/>
        <path id="Path_523" data-name="Path 523" d="M1165.773,2021.214h.613v.836h.016a1.432,1.432,0,0,1,1.457-.928v.69c-1.05,0-1.434.591-1.434,1.6v1.765h-.652Z" fill="#9c9c9a"/>
        <path id="Path_524" data-name="Path 524" d="M1171.594,2023.92a1.586,1.586,0,0,1-1.695,1.35c-1.264,0-1.863-.882-1.9-2.086a1.9,1.9,0,0,1,1.864-2.062c1.4,0,1.832,1.311,1.794,2.27h-2.968a1.167,1.167,0,0,0,1.234,1.3.944.944,0,0,0,1.028-.775Zm-.629-1.1a1.139,1.139,0,0,0-1.142-1.119,1.124,1.124,0,0,0-1.135,1.119Z" fill="#9c9c9a"/>
        <path id="Path_525" data-name="Path 525" d="M1172.73,2023.928c.023.583.537.767,1.066.767.407,0,.959-.092.959-.59,0-1.02-2.592-.33-2.592-1.856,0-.8.782-1.128,1.48-1.128.89,0,1.564.277,1.626,1.243h-.652c-.038-.506-.5-.667-.921-.667-.39,0-.843.107-.843.506,0,.46.69.553,1.3.69.652.146,1.3.368,1.3,1.127,0,.951-.882,1.25-1.687,1.25-.89,0-1.641-.36-1.679-1.342Z" fill="#9c9c9a"/>
        <path id="Path_526" data-name="Path 526" d="M1179.549,2023.92a1.587,1.587,0,0,1-1.695,1.35c-1.265,0-1.863-.882-1.9-2.086a1.9,1.9,0,0,1,1.864-2.062c1.4,0,1.833,1.311,1.794,2.27h-2.968a1.168,1.168,0,0,0,1.235,1.3.943.943,0,0,0,1.027-.775Zm-.629-1.1a1.141,1.141,0,0,0-1.143-1.119,1.125,1.125,0,0,0-1.135,1.119Z" fill="#9c9c9a"/>
        <path id="Path_527" data-name="Path 527" d="M1180.286,2021.214h.613v.628h.016a1.372,1.372,0,0,1,1.288-.72c1.043,0,1.365.6,1.365,1.449v2.608h-.652v-2.684a.744.744,0,0,0-.805-.8,1.114,1.114,0,0,0-1.173,1.242v2.24h-.652Z" fill="#9c9c9a"/>
        <path id="Path_528" data-name="Path 528" d="M1185.241,2020.5h-.651v-.8h.651Zm-.651.714h.651v3.965h-.651Z" fill="#9c9c9a"/>
        <path id="Path_529" data-name="Path 529" d="M1189.536,2025.178h-.613v-.628h-.016a1.373,1.373,0,0,1-1.288.72c-1.043,0-1.365-.6-1.365-1.449v-2.608h.652v2.684a.744.744,0,0,0,.805.8,1.114,1.114,0,0,0,1.173-1.242v-2.24h.652Z" fill="#9c9c9a"/>
        <path id="Path_530" data-name="Path 530" d="M1190.918,2023.928c.023.583.536.767,1.066.767.406,0,.958-.092.958-.59,0-1.02-2.591-.33-2.591-1.856,0-.8.782-1.128,1.479-1.128.89,0,1.565.277,1.626,1.243h-.651c-.039-.506-.5-.667-.921-.667-.391,0-.844.107-.844.506,0,.46.69.553,1.3.69.651.146,1.295.368,1.295,1.127,0,.951-.882,1.25-1.687,1.25-.889,0-1.64-.36-1.679-1.342Z" fill="#9c9c9a"/>
        <path id="Path_531" data-name="Path 531" d="M1196.609,2019.7h1l1.725,4.6,1.733-4.6h1v5.475h-.69v-4.555h-.015l-1.71,4.555h-.621l-1.71-4.555h-.015v4.555h-.69Z" fill="#9c9c9a"/>
        <path id="Path_532" data-name="Path 532" d="M1206.55,2023.92a1.588,1.588,0,0,1-1.7,1.35c-1.265,0-1.863-.882-1.9-2.086a1.9,1.9,0,0,1,1.864-2.062c1.4,0,1.833,1.311,1.794,2.27h-2.968a1.168,1.168,0,0,0,1.235,1.3.943.943,0,0,0,1.027-.775Zm-.629-1.1a1.14,1.14,0,0,0-1.142-1.119,1.125,1.125,0,0,0-1.136,1.119Z" fill="#9c9c9a"/>
        <path id="Path_533" data-name="Path 533" d="M1210.83,2025.179h-.652v-.538h-.015a1.328,1.328,0,0,1-1.266.63,1.859,1.859,0,0,1-1.825-2.087,1.831,1.831,0,0,1,1.81-2.062,1.518,1.518,0,0,1,1.281.621h.015V2019.7h.652Zm-1.841-.484c.883,0,1.212-.759,1.212-1.495,0-.775-.352-1.5-1.249-1.5s-1.19.759-1.19,1.533c0,.745.384,1.465,1.227,1.465" fill="#9c9c9a"/>
        <path id="Path_534" data-name="Path 534" d="M1212.526,2020.5h-.652v-.8h.652Zm-.652.714h.652v3.965h-.652Z" fill="#9c9c9a"/>
        <path id="Path_535" data-name="Path 535" d="M1216.23,2022.487a.919.919,0,0,0-.982-.791c-.943,0-1.234.752-1.234,1.55,0,.736.33,1.449,1.158,1.449a1.014,1.014,0,0,0,1.088-.966h.668a1.638,1.638,0,0,1-1.748,1.541,1.8,1.8,0,0,1-1.856-2.024,1.868,1.868,0,0,1,1.871-2.124,1.52,1.52,0,0,1,1.71,1.365Z" fill="#9c9c9a"/>
        <path id="Path_536" data-name="Path 536" d="M1221.169,2025.163a.913.913,0,0,1-.467.107c-.338,0-.553-.183-.553-.613a1.732,1.732,0,0,1-1.4.613c-.721,0-1.312-.314-1.312-1.111,0-.9.668-1.1,1.343-1.22.713-.145,1.335-.084,1.335-.583,0-.574-.476-.659-.883-.659-.552,0-.958.168-.989.751h-.652c.039-.981.79-1.326,1.68-1.326.712,0,1.487.161,1.487,1.089v2.039c0,.307,0,.445.207.445a.649.649,0,0,0,.2-.038Zm-1.058-2.032c-.506.376-1.978.007-1.978.982,0,.429.368.582.767.582.859,0,1.211-.529,1.211-.9Z" fill="#9c9c9a"/>
        <rect id="Rectangle_350" data-name="Rectangle 350" width="0.652" height="5.475" transform="translate(1221.815 2019.704)" fill="#9c9c9a"/>
        <path id="Path_537" data-name="Path 537" d="M1228.2,2019.573a2.091,2.091,0,0,1,2.255,1.779h-.729a1.443,1.443,0,0,0-1.534-1.166c-1.3,0-1.855,1.074-1.855,2.217,0,1.249.552,2.292,1.863,2.292a1.549,1.549,0,0,0,1.58-1.58h.728a2.224,2.224,0,0,1-2.369,2.194c-1.7,0-2.53-1.258-2.53-2.853a2.593,2.593,0,0,1,2.591-2.883" fill="#9c9c9a"/>
        <path id="Path_538" data-name="Path 538" d="M1234.724,2025.163a.917.917,0,0,1-.468.107c-.337,0-.552-.183-.552-.613a1.734,1.734,0,0,1-1.4.613c-.721,0-1.311-.314-1.311-1.111,0-.9.668-1.1,1.342-1.22.713-.145,1.335-.084,1.335-.583,0-.574-.475-.659-.883-.659-.552,0-.958.168-.989.751h-.651c.038-.981.789-1.326,1.679-1.326.713,0,1.487.161,1.487,1.089v2.039c0,.307,0,.445.208.445a.649.649,0,0,0,.2-.038Zm-1.058-2.032c-.506.376-1.978.007-1.978.982,0,.429.367.582.766.582.859,0,1.212-.529,1.212-.9Z" fill="#9c9c9a"/>
        <path id="Path_539" data-name="Path 539" d="M1235.308,2021.214h.613v.836h.016a1.431,1.431,0,0,1,1.456-.928v.69c-1.05,0-1.433.591-1.433,1.6v1.765h-.652Z" fill="#9c9c9a"/>
        <path id="Path_540" data-name="Path 540" d="M1241.129,2023.92a1.587,1.587,0,0,1-1.7,1.35c-1.265,0-1.864-.882-1.9-2.086a1.9,1.9,0,0,1,1.863-2.062c1.4,0,1.832,1.311,1.794,2.27h-2.968a1.168,1.168,0,0,0,1.235,1.3.944.944,0,0,0,1.027-.775Zm-.629-1.1a1.14,1.14,0,0,0-1.143-1.119,1.125,1.125,0,0,0-1.135,1.119Z" fill="#9c9c9a"/>
        <path id="Path_541" data-name="Path 541" d="M1242.012,2019.7h.851v.852c0,.6-.261,1.126-.843,1.126v-.383c.345,0,.445-.391.445-.743h-.453Z" fill="#9c9c9a"/>
        <path id="Path_542" data-name="Path 542" d="M1244.029,2023.928c.024.583.537.767,1.065.767.407,0,.96-.092.96-.59,0-1.02-2.593-.33-2.593-1.856,0-.8.783-1.128,1.481-1.128.889,0,1.565.277,1.625,1.243h-.652c-.038-.506-.5-.667-.92-.667-.391,0-.843.107-.843.506,0,.46.69.553,1.3.69.652.146,1.3.368,1.3,1.127,0,.951-.882,1.25-1.687,1.25-.889,0-1.641-.36-1.68-1.342Z" fill="#9c9c9a"/>
        <path id="Path_543" data-name="Path 543" d="M1254.652,2025.178h-.76l-1.249-4.6h-.016l-1.265,4.6h-.759l-1.4-5.475h.744l1.073,4.555h.016l1.226-4.555h.79l1.212,4.555h.015l1.112-4.555h.728Z" fill="#9c9c9a"/>
        <path id="Path_544" data-name="Path 544" d="M1260.075,2025.163a.917.917,0,0,1-.468.107c-.337,0-.552-.183-.552-.613a1.732,1.732,0,0,1-1.4.613c-.72,0-1.311-.314-1.311-1.111,0-.9.667-1.1,1.342-1.22.714-.145,1.335-.084,1.335-.583,0-.574-.475-.659-.882-.659-.553,0-.959.168-.99.751h-.652c.039-.981.791-1.326,1.68-1.326.714,0,1.487.161,1.487,1.089v2.039c0,.307,0,.445.208.445a.649.649,0,0,0,.2-.038Zm-1.058-2.032c-.507.376-1.979.007-1.979.982,0,.429.369.582.767.582.86,0,1.212-.529,1.212-.9Z" fill="#9c9c9a"/>
        <path id="Path_545" data-name="Path 545" d="M1262.239,2025.707c-.307.767-.568,1.058-1.15,1.058a1.3,1.3,0,0,1-.453-.069v-.6a1.312,1.312,0,0,0,.383.093.551.551,0,0,0,.537-.361l.269-.675-1.572-3.941h.735l1.158,3.244h.017l1.111-3.244h.69Z" fill="#9c9c9a"/>
        <path id="Path_546" data-name="Path 546" d="M1268.514,2021.122a2.08,2.08,0,1,1-1.926,2.078,1.88,1.88,0,0,1,1.926-2.078m0,3.573c.682,0,1.234-.537,1.234-1.495s-.552-1.5-1.234-1.5-1.236.544-1.236,1.5.553,1.495,1.236,1.495" fill="#9c9c9a"/>
        <path id="Path_547" data-name="Path 547" d="M1271.475,2021.789h-.667v-.575h.667v-.59c0-.645.383-.982,1.1-.982a1.575,1.575,0,0,1,.421.062v.567a1.2,1.2,0,0,0-.368-.054c-.314,0-.5.1-.5.444v.553h.766v.575h-.766v3.389h-.652Z" fill="#9c9c9a"/>
        <path id="Path_548" data-name="Path 548" d="M1278.04,2019.573a2.09,2.09,0,0,1,2.254,1.779h-.728a1.443,1.443,0,0,0-1.534-1.166c-1.3,0-1.855,1.074-1.855,2.217,0,1.249.551,2.292,1.863,2.292a1.548,1.548,0,0,0,1.579-1.58h.728a2.222,2.222,0,0,1-2.368,2.194c-1.695,0-2.531-1.258-2.531-2.853a2.594,2.594,0,0,1,2.592-2.883" fill="#9c9c9a"/>
        <path id="Path_549" data-name="Path 549" d="M1284.567,2025.163a.913.913,0,0,1-.467.107c-.338,0-.553-.183-.553-.613a1.732,1.732,0,0,1-1.4.613c-.721,0-1.312-.314-1.312-1.111,0-.9.668-1.1,1.343-1.22.713-.145,1.334-.084,1.334-.583,0-.574-.475-.659-.882-.659-.552,0-.958.168-.989.751h-.652c.038-.981.789-1.326,1.68-1.326.712,0,1.487.161,1.487,1.089v2.039c0,.307,0,.445.207.445a.649.649,0,0,0,.2-.038Zm-1.058-2.032c-.506.376-1.978.007-1.978.982,0,.429.367.582.767.582.859,0,1.211-.529,1.211-.9Z" fill="#9c9c9a"/>
        <path id="Path_550" data-name="Path 550" d="M1285.152,2021.214h.613v.836h.015a1.432,1.432,0,0,1,1.457-.928v.69c-1.05,0-1.433.591-1.433,1.6v1.765h-.652Z" fill="#9c9c9a"/>
        <path id="Path_551" data-name="Path 551" d="M1288.418,2020.5h-.651v-.8h.651Zm-.65.714h.651v3.965h-.651Z" fill="#9c9c9a"/>
        <path id="Path_552" data-name="Path 552" d="M1289.432,2021.214h.613v.628h.015a1.374,1.374,0,0,1,1.289-.72c1.043,0,1.364.6,1.364,1.449v2.608h-.651v-2.684a.744.744,0,0,0-.806-.8,1.114,1.114,0,0,0-1.173,1.242v2.24h-.651Z" fill="#9c9c9a"/>
        <path id="Path_553" data-name="Path 553" d="M1297.116,2024.841c0,1.3-.582,1.947-1.84,1.947-.744,0-1.6-.307-1.641-1.165h.652c.023.468.606.644,1.028.644.851,0,1.188-.614,1.188-1.5v-.261h-.015a1.322,1.322,0,0,1-1.235.722,1.794,1.794,0,0,1-1.771-2.01,1.866,1.866,0,0,1,1.833-2.093,1.293,1.293,0,0,1,1.18.659h.008v-.567h.613Zm-.643-1.725c0-.7-.307-1.419-1.128-1.419s-1.173.682-1.173,1.442c0,.713.26,1.51,1.12,1.51s1.181-.79,1.181-1.533" fill="#9c9c9a"/>
      </g>
    </g>
    <rect id="Rectangle_351" data-name="Rectangle 351" width="165" height="73" transform="translate(-19926 -4319)" fill="none"/>
  </g>
</svg>
