<svg xmlns="http://www.w3.org/2000/svg" width="165" height="73" viewBox="0 0 165 73">
  <g id="NEXT" transform="translate(17984 4052)">
    <rect id="Rectangle_634" data-name="Rectangle 634" width="165" height="73" transform="translate(-17984 -4052)" fill="none"/>
    <g id="Group_907" data-name="Group 907" transform="translate(229 -150)">
      <g id="Group_906" data-name="Group 906" transform="translate(-19357.234 -6059.515)">
        <path id="Path_1215" data-name="Path 1215" d="M1210.964,2184.122h-6.642l-4.074,11.762-5.652-11.762h-6.642l-6.848,19.786h6.642l4.074-11.762,5.991,11.762h6.3Z" fill="#394245"/>
        <path id="Path_1216" data-name="Path 1216" d="M1253.318,2188.9h8.544l-5.191,15h6.642l4.454-12.873.735-2.125,0-.007h8.2l1.657-4.782h-19.556Z" fill="#394245"/>
        <path id="Path_1217" data-name="Path 1217" d="M1239.8,2198.732l2.073,5.176h7.862l-4.506-9.893Z" fill="#394245"/>
        <path id="Path_1218" data-name="Path 1218" d="M1240.423,2184.122h-24.96a3.1,3.1,0,0,0-2.973,1.978l-4.9,14.144a2.882,2.882,0,0,0,2.973,3.665h14.63l3.119-4.782h-13.692l1.141-3.1h7.843l1.387-4.013h-7.91l1.148-3.1,13.617-.007,1.229-3.544,4.025,8.491-11.46,10.058h8.2l7.705-9.893Z" fill="#394245"/>
        <path id="Path_1219" data-name="Path 1219" d="M1248.319,2184.122l-5.355,5.225,2.27,4.668,11.354-9.893Z" fill="#394245"/>
      </g>
      <path id="Path_1258" data-name="Path 1258" d="M-18116.85-3843.394l4.9,9.919-11.449,9.872,7.7-9.872Z" transform="translate(0 -32)" fill="#c4000b"/>
    </g>
  </g>
</svg>
