<svg xmlns="http://www.w3.org/2000/svg" width="165" height="73" viewBox="0 0 165 73">
  <g id="PERNOD" transform="translate(20129 4157)">
    <rect id="Rectangle_620" data-name="Rectangle 620" width="165" height="73" transform="translate(-20129 -4157)" fill="none"/>
    <g id="Group_900" data-name="Group 900" transform="translate(-21634.609 -6131.435)">
      <path id="Path_1116" data-name="Path 1116" d="M1644.349,2035.9c-.344-.175-.731-.219-1.085-.376a5.031,5.031,0,0,1-2.523-2.218,3.878,3.878,0,0,1-.476-1.022,7.437,7.437,0,0,1-.185-1.417,5.1,5.1,0,0,1,3.935-4.963,4.8,4.8,0,0,1,2.6.157,4.219,4.219,0,0,1,2.2,1.731c.053.076.113.146.167.214.12-.029.08-.12.08-.184,0-1.325,0-2.651.007-3.976,0-.207-.069-.247-.254-.241-.382.013-.764,0-1.145.008-.169.005-.229-.05-.214-.216.028-.3-.128-.7.065-.882.15-.146.541-.047.826-.049.551,0,1.1.01,1.654-.006.222-.007.282.054.281.279-.01,1.972-.006,3.944-.006,5.917,0,1.845.005,3.69-.005,5.535,0,.246.056.328.311.317.423-.02.848,0,1.272.005,0,.374,0,.747,0,1.121-.8,0-1.591-.008-2.385.019-.326.012-.435-.07-.414-.408.031-.508.008-1.019.008-1.529a5.209,5.209,0,0,1-2.093,1.8c-.394.182-.821.24-1.226.381Zm-3.015-5.027a3.881,3.881,0,1,0,7.762-.07,3.881,3.881,0,0,0-7.762.07Z" fill="#123f75"/>
      <path id="Path_1117" data-name="Path 1117" d="M1580.309,2035.9c-.338-.182-.724-.219-1.077-.372a4.857,4.857,0,0,1-2.85-3.018,4.7,4.7,0,0,1-.331-1.756,5.141,5.141,0,0,1,1.9-3.859,4.617,4.617,0,0,1,2.844-1.091,4.41,4.41,0,0,1,4.036,2.027c.04.059.036.2.152.158s.05-.148.051-.224c0-1.3,0-2.609.007-3.913,0-.2-.055-.255-.25-.247-.371.015-.743-.005-1.113.008-.187.007-.271-.033-.255-.241a6.137,6.137,0,0,0,0-.731c-.006-.143.049-.179.184-.178.816.005,1.633.009,2.45,0,.2,0,.191.1.191.238q0,1.385,0,2.768c0,2.885.007,5.77-.009,8.654,0,.339.1.41.406.387.348-.026.7,0,1.049-.009.153,0,.192.047.2.2.049.95.053.949-.874.949-.573,0-1.146-.008-1.718.005-.2.005-.277-.045-.271-.261.015-.54.005-1.081.005-1.62-.125-.032-.159.07-.2.129a4.39,4.39,0,0,1-3.005,1.944c-.022,0-.038.038-.058.058Zm.915-8.938a3.892,3.892,0,1,0,3.861,3.857A3.85,3.85,0,0,0,1581.224,2026.959Z" fill="#123f75"/>
      <path id="Path_1118" data-name="Path 1118" d="M1624.806,2035.9c-.064-.175-.244-.106-.349-.127a4.579,4.579,0,0,1-2.7-1.694,4.873,4.873,0,0,1-1.029-2.642,5.148,5.148,0,0,1,.355-2.577,4.673,4.673,0,0,1,2.746-2.724,5.007,5.007,0,0,1,4.16.222,4.245,4.245,0,0,1,1.369,1.2c.051.065.065.222.185.176a.293.293,0,0,0,.166-.31c-.011-.413.005-.827-.008-1.24-.005-.183.054-.232.232-.23q1.177.014,2.354,0c.189,0,.234.064.224.237a5.11,5.11,0,0,0,0,.667c.017.208-.069.25-.256.243-.349-.014-.7.012-1.049-.01-.243-.015-.3.064-.3.3.01,2.025.006,4.051.006,6.077a6.851,6.851,0,0,1-.006.731c-.028.266.084.315.32.3.359-.018.721,0,1.081-.008.151,0,.207.042.2.2-.016.3.094.694-.056.892s-.555.051-.848.056c-.53.009-1.06-.009-1.59.008-.238.007-.331-.042-.319-.3.023-.526.007-1.053.007-1.657-.284.328-.483.632-.74.889a4.321,4.321,0,0,1-2.413,1.258c-.044.007-.082.014-.094.064Zm1.018-1.19a3.86,3.86,0,1,0-.147-7.717,3.86,3.86,0,0,0,.147,7.717Z" fill="#123f75"/>
      <path id="Path_1119" data-name="Path 1119" d="M1585.784,1986.435a33.388,33.388,0,0,1,1.2,3.912,27.925,27.925,0,0,1,.76,3.927,26.529,26.529,0,0,1,.211,3.225c0,.236-.054.32-.319.335a5.611,5.611,0,0,0-2.075.589c-.289.137-.326-.009-.344-.207a20.019,20.019,0,0,0-.419-2.253,20.85,20.85,0,0,0-.966-3.151c-.4-1.065-.89-2.095-1.392-3.118-.3-.618-.583-1.249-.931-1.846-.133-.228.113-.218.2-.256a15.605,15.605,0,0,1,2.487-.833l1.334-.324Z" fill="#76a0cd"/>
      <path id="Path_1120" data-name="Path 1120" d="M1591.067,1986.435a6.856,6.856,0,0,0,1.546.366,4.332,4.332,0,0,1,.855.258c.462.179.939.344,1.392.561.216.1.2.164.112.335a52.376,52.376,0,0,0-2.274,4.883,25.737,25.737,0,0,0-1.366,5.1c-.034.194.03.462-.133.554-.14.079-.333-.118-.5-.188a5.377,5.377,0,0,0-1.9-.475c-.158,0-.166-.1-.162-.209.027-.748-.015-1.5.074-2.245.052-.445.085-.892.131-1.339a21.293,21.293,0,0,1,.372-2.174,40.62,40.62,0,0,1,1.348-4.932c.058-.168.125-.332.187-.5Z" fill="#76a0cd"/>
      <path id="Path_1121" data-name="Path 1121" d="M1538.932,2035.9c-.391-.189-.828-.228-1.225-.415a5,5,0,0,1-2.966-4.88,4.908,4.908,0,0,1,1.173-3.029,4.782,4.782,0,0,1,4.341-1.743,4.948,4.948,0,0,1,2.941,1.285,4.893,4.893,0,0,1,1.534,2.855,10.05,10.05,0,0,1,.064,1.009c.017.232-.07.274-.285.274-2.746-.008-5.493,0-8.239-.011-.279,0-.335.035-.287.34a3.846,3.846,0,0,0,6.146,2.433,3.783,3.783,0,0,0,.868-.927.3.3,0,0,1,.3-.163c.356.017.713.006,1.112.006a5.055,5.055,0,0,1-1.932,2.2,4.933,4.933,0,0,1-1.855.713c-.012,0-.021.033-.031.05Zm.894-5.655h3.5c.367,0,.368,0,.273-.37a3.762,3.762,0,0,0-2.074-2.548,3.864,3.864,0,0,0-5.487,2.508c-.1.41-.1.41.326.41Z" fill="#123f75"/>
      <path id="Path_1122" data-name="Path 1122" d="M1569.1,2035.9c-.136-.12-.317-.1-.477-.143a5.275,5.275,0,0,1-1.84-.936,4.881,4.881,0,0,1-1.51-2.029,5,5,0,0,1-.371-2.028,5.083,5.083,0,0,1,9.3-2.717,5.044,5.044,0,0,1-1.359,6.964,5.166,5.166,0,0,1-1.958.819c-.05.009-.108,0-.124.07Zm4.716-5.051a3.848,3.848,0,1,0-3.84,3.843A3.845,3.845,0,0,0,1573.821,2030.846Z" fill="#123f75"/>
      <path id="Path_1123" data-name="Path 1123" d="M1614.557,2035.9a8.253,8.253,0,0,0-.909-.3,5.007,5.007,0,0,1-2.511-2.068,6.575,6.575,0,0,1-.661-1.412,3.843,3.843,0,0,1-.076-1.192,4.926,4.926,0,0,1,1.531-3.753,4.7,4.7,0,0,1,1.253-.878,4.6,4.6,0,0,1,5.4.867c.036.038.08.068.171.144,0-.407.006-.769,0-1.132,0-.158.032-.23.208-.22a6.365,6.365,0,0,0,.732,0c.174-.01.211.06.21.22q-.011,1.242,0,2.482c0,.156-.033.248-.209.222a.118.118,0,0,0-.032,0,1.33,1.33,0,0,1-1.39-.547,3.252,3.252,0,0,0-2.37-1.275,3.567,3.567,0,0,0-3.187,1.118,3.823,3.823,0,0,0-1.077,3,3.85,3.85,0,0,0,5.339,3.189,4.526,4.526,0,0,0,1.475-1.122c.089-.1.078-.232.153-.343a.689.689,0,0,1,.721-.31,3.476,3.476,0,0,0,.6,0c.2-.01.264.021.173.242a4.77,4.77,0,0,1-1.57,2.018,4.96,4.96,0,0,1-2.291.98c-.044.007-.082.015-.094.065Z" fill="#123f75"/>
      <path id="Path_1124" data-name="Path 1124" d="M1524.667,2023.678l-.058,0v-1.209l.063.005Q1524.669,2023.075,1524.667,2023.678Z" fill="#9c9c9a"/>
      <path id="Path_1125" data-name="Path 1125" d="M1524.609,2034.433l.063.005q0,.6,0,1.2l-.064.007Z" fill="#9c9c9a"/>
      <path id="Path_1126" data-name="Path 1126" d="M1651.924,2035.642l-.065-.011c0-.374,0-.747,0-1.121l.066-.014Z" fill="#9c9c9a"/>
      <path id="Path_1127" data-name="Path 1127" d="M1586.867,2010.442c.35.071.643-.083.909-.05.515.062,1.03.029,1.544.069a22.106,22.106,0,0,1,2.423.373,9.893,9.893,0,0,1,1.3.441,12.982,12.982,0,0,1,2.27,1.055,13.821,13.821,0,0,1,2.146,1.542,17.8,17.8,0,0,1,1.353,1.3c.132.142.149.235-.015.369a17.4,17.4,0,0,1-3.656,2.277c-.151.071-.2,0-.263-.113a7.377,7.377,0,0,0-1.715-2.019,5.726,5.726,0,0,0-1.962-1.183,13.319,13.319,0,0,0-1.293-.449,7.717,7.717,0,0,0-2.542-.133,7.265,7.265,0,0,0-2.98,1.029,8.158,8.158,0,0,0-2.686,2.716c-.1.161-.157.228-.375.13a17.007,17.007,0,0,1-3.624-2.27c-.162-.13-.081-.239-.01-.311.368-.376.726-.76,1.131-1.1.363-.307.723-.618,1.107-.9a14.271,14.271,0,0,1,5.832-2.553A5.5,5.5,0,0,0,1586.867,2010.442Z" fill="#123f75"/>
      <path id="Path_1128" data-name="Path 1128" d="M1598.44,2029.978c.627-.031,1.22,0,1.814-.05a3.1,3.1,0,0,0,2.9-3.59,2.878,2.878,0,0,0-2.024-2.5,4.912,4.912,0,0,0-1.309-.15c-.849,0-1.7.006-2.546-.005-.213,0-.29.042-.29.275q.012,5.109,0,10.217c0,.22.075.263.272.256.371-.014.743,0,1.114-.007.153,0,.207.05.2.2-.021.325.128.735-.057.954-.165.195-.58.055-.884.057-1.124.007-2.249,0-3.373.008-.225,0-.3-.06-.278-.282a3.722,3.722,0,0,0,0-.668c-.023-.235.073-.283.287-.273.349.017.7-.013,1.049.011.27.018.356-.046.353-.339-.016-1.9-.008-3.8-.008-5.7v-4.233c0-.477,0-.476-.493-.477-.329,0-.658-.006-.987,0-.151,0-.2-.047-.2-.2.009-.275.013-.552,0-.827-.01-.179.068-.207.223-.206,2.026.006,4.052-.014,6.078.016a4.054,4.054,0,0,1,4.05,2.995,4.146,4.146,0,0,1-1.7,4.76,3.79,3.79,0,0,1-1.827.574c-.059.005-.133-.025-.172.041-.049.082.018.135.063.193q1.227,1.607,2.452,3.214a.413.413,0,0,0,.375.181c.434-.013.87,0,1.3-.008.175,0,.251.042.236.229-.025.316.125.717-.055.925s-.58.052-.883.059c-.477.012-.955,0-1.432.006a.339.339,0,0,1-.318-.151q-1.935-2.7-3.878-5.4A.691.691,0,0,1,1598.44,2029.978Z" fill="#123f75"/>
      <path id="Path_1129" data-name="Path 1129" d="M1524.673,2035.635q0-.6,0-1.2c.466,0,.933-.016,1.4,0,.2,0,.246-.064.245-.254q-.008-5.121,0-10.241c0-.193-.054-.258-.251-.254-.466.01-.932,0-1.4-.008l.005-1.208c1.92,0,3.841-.03,5.76.01a4.2,4.2,0,0,1,3.016,1.168,3.832,3.832,0,0,1,1.1,2.508,4.01,4.01,0,0,1-2.3,3.937,3.1,3.1,0,0,1-1.257.316c-1.008.014-2.016.024-3.023.02-.232,0-.334.034-.33.305.017,1.146.012,2.292,0,3.437,0,.213.062.272.268.263.381-.015.764.009,1.145-.009.219-.011.272.07.26.271a6.594,6.594,0,0,0,0,.732c.009.166-.045.219-.214.218C1527.622,2035.638,1526.147,2035.637,1524.673,2035.635Zm2.97-9.2c0,.838.008,1.676-.006,2.513,0,.228.066.283.286.28.753-.014,1.506-.005,2.259-.006a4.075,4.075,0,0,0,1.072-.114,2.7,2.7,0,0,0,1.986-2.765,2.75,2.75,0,0,0-2.469-2.6c-.974-.1-1.951-.03-2.926-.054-.219-.005-.2.123-.2.266C1527.644,2024.781,1527.643,2025.608,1527.643,2026.436Z" fill="#123f75"/>
      <path id="Path_1130" data-name="Path 1130" d="M1582.8,2000.813a15.575,15.575,0,0,0-3.227-4.661,17.046,17.046,0,0,0-4.646-3.182,4.1,4.1,0,0,1,.7-.9,15.522,15.522,0,0,1,1.2-1.246c.377-.31.742-.643,1.106-.972a.258.258,0,0,1,.387-.025,18.2,18.2,0,0,1,4.059,4.2,21.125,21.125,0,0,1,2.22,4.694c.043.122.061.22-.06.3a6.311,6.311,0,0,0-1.635,1.7A.646.646,0,0,1,1582.8,2000.813Z" fill="#76a0cd"/>
      <path id="Path_1131" data-name="Path 1131" d="M1601.576,1992.925c-.042.11-.145.127-.225.165a18.32,18.32,0,0,0-2.614,1.535,15.085,15.085,0,0,0-4.3,4.786,8.561,8.561,0,0,0-.61,1.209c-.078.2-.15.184-.268.016a5.8,5.8,0,0,0-1.522-1.558c-.151-.1-.144-.226-.088-.388a27.652,27.652,0,0,1,1.313-3.13,15,15,0,0,1,3.454-4.483c.482-.443,1.005-.842,1.507-1.263a.22.22,0,0,1,.313-.005,16.29,16.29,0,0,1,2.964,3.018C1601.526,1992.86,1601.552,1992.893,1601.576,1992.925Z" fill="#76a0cd"/>
      <path id="Path_1132" data-name="Path 1132" d="M1556.056,2027.542a3.5,3.5,0,0,1,2.387-1.662,3.9,3.9,0,0,1,3.948,1.391,3.836,3.836,0,0,1,.727,2.112c.146,1.6.041,3.2.058,4.8,0,.269.072.343.333.324.338-.024.679,0,1.018-.01.2-.008.288.038.27.258-.023.283.089.656-.053.83s-.536.056-.819.058c-1.114.006-2.227,0-3.341.007-.211,0-.28-.059-.26-.266.027-.282-.116-.651.055-.827s.542-.051.825-.053c.768-.008.777,0,.767-.77-.019-1.378.072-2.758-.052-4.134-.172-1.905-1.3-2.664-3.163-2.581a2.825,2.825,0,0,0-2.084,1.014,2.727,2.727,0,0,0-.6,1.8c-.019,1.484-.007,2.969-.015,4.454,0,.163.04.221.212.216.392-.012.785.005,1.176-.008.187-.006.242.06.228.236-.024.293.118.671-.056.859s-.542.05-.825.051c-1.1.006-2.206,0-3.309.007-.216,0-.307-.045-.284-.276a3.045,3.045,0,0,0,0-.6c-.024-.236.076-.282.288-.273.371.016.743-.005,1.114.008.186.007.254-.034.253-.24q-.012-3.468,0-6.936c0-.18-.049-.238-.23-.233-.392.013-.785,0-1.177.007-.167,0-.241-.03-.247-.223-.031-.919-.038-.919.881-.919.572,0,1.145.008,1.718,0,.2,0,.279.037.269.257C1556.043,2026.623,1556.056,2027.036,1556.056,2027.542Z" fill="#123f75"/>
      <path id="Path_1133" data-name="Path 1133" d="M1603.9,2000.3a15.293,15.293,0,0,0-8.721,3.268c-.125.1-.231.218-.355.318-.108.088-.185.09-.2-.087a5.241,5.241,0,0,0-.484-2,.3.3,0,0,1,.053-.318,11.166,11.166,0,0,1,1.967-2.158,14.1,14.1,0,0,1,1.843-1.378,16.693,16.693,0,0,1,5.138-2,.219.219,0,0,1,.289.161c.132.343.275.681.416,1.02a17.09,17.09,0,0,1,.756,2.826c.058.254.013.417-.306.355A2.489,2.489,0,0,0,1603.9,2000.3Z" fill="#76a0cd"/>
      <path id="Path_1134" data-name="Path 1134" d="M1571.916,2000.081a13.681,13.681,0,0,1,.39-1.784,16.486,16.486,0,0,1,.8-2.2c.071-.16.152-.18.32-.143a15.862,15.862,0,0,1,5.843,2.509,12.526,12.526,0,0,1,2.951,2.843.562.562,0,0,1,.093.627,5.018,5.018,0,0,0-.415,1.833c0,.07.03.164-.049.2s-.125-.056-.176-.1a14.351,14.351,0,0,0-3.5-2.224,15.083,15.083,0,0,0-3.53-1.114,12.5,12.5,0,0,0-2.494-.232C1571.913,2000.3,1571.912,2000.3,1571.916,2000.081Z" fill="#76a0cd"/>
      <path id="Path_1135" data-name="Path 1135" d="M1602.025,2002.859a4.252,4.252,0,0,1,1.078.034,8.635,8.635,0,0,1,1.6.287c.064.019.16.06.141.1-.134.3.161.617-.031.919a.455.455,0,0,0-.053.243,12.192,12.192,0,0,1-.408,2.376c-.047.261-.123.516-.171.776-.024.129-.064.145-.182.1a13.389,13.389,0,0,0-1.874-.689c-.55-.134-1.1-.26-1.66-.342a12.985,12.985,0,0,0-2.953-.114,14.844,14.844,0,0,0-3.3.592c-.082.026-.177.081-.234.017s.032-.149.066-.216a6.943,6.943,0,0,0,.595-1.967.37.37,0,0,1,.235-.29,15.04,15.04,0,0,1,4.468-1.6A17.937,17.937,0,0,1,1602.025,2002.859Z" fill="#123f75"/>
      <path id="Path_1136" data-name="Path 1136" d="M1582.629,2007.211c-.515-.128-.975-.265-1.445-.353-.626-.117-1.258-.2-1.894-.264a13.089,13.089,0,0,0-2.34-.045,12.819,12.819,0,0,0-4.292,1.083c-.131.058-.184.1-.244-.08a15.063,15.063,0,0,1-.56-2.481,13.42,13.42,0,0,1-.138-1.649c-.007-.148.019-.215.189-.252a13,13,0,0,1,3.554-.263,13.526,13.526,0,0,1,3.4.589,19.1,19.1,0,0,1,2.883,1.228c.092.048.193.087.2.219A6.464,6.464,0,0,0,1582.629,2007.211Z" fill="#123f75"/>
      <path id="Path_1137" data-name="Path 1137" d="M1590.612,2010.116c.387-.277.847-.415,1.232-.693a7.519,7.519,0,0,0,1.4-1.29.527.527,0,0,1,.439-.167c.569.037,1.132-.032,1.7-.049a11.917,11.917,0,0,1,1.44,0,17.475,17.475,0,0,1,2.808.5,19.084,19.084,0,0,1,3.187,1.25c.359.167.4.3.218.646a16.594,16.594,0,0,1-2.206,3.252c-.123.143-.2.211-.389.05a11.753,11.753,0,0,0-1.538-1.118,18.368,18.368,0,0,0-2.326-1.229,12.941,12.941,0,0,0-2.389-.806,11.9,11.9,0,0,0-2.261-.3C1591.493,2010.158,1591.064,2010.083,1590.612,2010.116Z" fill="#123f75"/>
      <path id="Path_1138" data-name="Path 1138" d="M1585.99,2010.1c-.219.159-.38,0-.549.007a14.023,14.023,0,0,0-5.729,1.21,16.181,16.181,0,0,0-3.6,2.272c-.183.152-.274.125-.4-.02a14.179,14.179,0,0,1-1.222-1.612,19.987,19.987,0,0,1-1.033-1.767c-.1-.2-.066-.285.111-.4a12.709,12.709,0,0,1,3.331-1.372,14.158,14.158,0,0,1,4.031-.523c.7.01,1.391.08,2.087.115a.509.509,0,0,1,.357.236A6.717,6.717,0,0,0,1585.99,2010.1Z" fill="#123f75"/>
      <path id="Path_1139" data-name="Path 1139" d="M1548.339,2027.663a4.725,4.725,0,0,1,.677-.866,3.66,3.66,0,0,1,2.231-.832c.151-.013.176.062.172.188a3.128,3.128,0,0,0,0,.6c.051.324-.134.383-.385.413a2.8,2.8,0,0,0-2.624,2.493,24.284,24.284,0,0,0-.073,3.014c-.013.53,0,1.061-.006,1.591,0,.177.044.24.229.234.381-.013.763,0,1.145-.007.165,0,.261.022.24.219-.031.3.129.7-.066.882-.153.145-.543.045-.827.046-1.1,0-2.207,0-3.31.005-.2,0-.284-.042-.266-.259.024-.283-.088-.655.054-.829s.536-.055.818-.058c.773-.008.774,0,.774-.77,0-2.1-.005-4.2.005-6.3,0-.258-.053-.358-.326-.34-.359.024-.721,0-1.082.009-.168.005-.256-.029-.242-.223.02-.294-.087-.67.058-.861s.534-.051.816-.055c.573-.009,1.146.006,1.719-.008.206-.005.276.051.269.264C1548.328,2026.7,1548.339,2027.181,1548.339,2027.663Z" fill="#123f75"/>
      <path id="Path_1140" data-name="Path 1140" d="M1636.667,2027.855a2.816,2.816,0,0,1,2.328-1.814c.766-.136.768-.124.768.652,0,.465-.006.422-.484.484a2.742,2.742,0,0,0-2.435,2.061,5.423,5.423,0,0,0-.174,1.438c-.01,1.177,0,2.355-.01,3.533,0,.245.069.307.3.294.37-.02.742,0,1.113-.008.164,0,.234.043.217.214-.028.3.129.7-.066.883-.152.146-.542.049-.827.049-1.092,0-2.185-.005-3.278.006-.224,0-.33-.034-.3-.289.029-.272-.083-.63.054-.8s.517-.041.789-.059c.252-.017.576.1.737-.047s.051-.481.052-.732c0-2.1,0-4.2.009-6.3,0-.265-.067-.348-.332-.33-.36.024-.722,0-1.082.008-.161,0-.216-.045-.226-.213-.051-.926-.056-.926.872-.926.563,0,1.126.014,1.687-.007.248-.009.3.074.293.3C1636.655,2026.762,1636.667,2027.27,1636.667,2027.855Z" fill="#123f75"/>
      <path id="Path_1141" data-name="Path 1141" d="M1609,2030.265c0,1.314.006,2.629-.006,3.943,0,.24.061.309.3.3.359-.021.721.007,1.08-.011.2-.01.261.061.242.252-.03.291.125.681-.064.849-.163.144-.544.047-.828.048-1.1,0-2.2-.006-3.307.005-.225,0-.336-.034-.3-.289.032-.271-.109-.623.052-.8s.52-.045.791-.059.616.087.77-.046c.18-.157.058-.519.059-.791.005-2.067,0-4.133.008-6.2,0-.275-.052-.4-.361-.373-.347.03-.7,0-1.048.01-.162,0-.216-.044-.223-.214-.04-.928-.045-.928.868-.928.551,0,1.1.015,1.653-.007.274-.01.328.082.326.339C1608.988,2027.615,1609,2028.94,1609,2030.265Z" fill="#123f75"/>
      <path id="Path_1142" data-name="Path 1142" d="M1608.992,2023.419c0,.244,0,.487,0,.73,0,.164-.064.236-.227.219-.021,0-.042,0-.063,0-.294-.016-.671.122-.86-.053s-.046-.56-.06-.853c-.012-.243.014-.488-.007-.729s.073-.294.287-.272c.3.032.708-.131.881.066.15.17.041.566.047.861Z" fill="#123f75"/>
    </g>
  </g>
</svg>
