<svg xmlns="http://www.w3.org/2000/svg" width="165" height="73" viewBox="0 0 165 73">
  <g id="SKODA" transform="translate(20659 4390)">
    <g id="Group_866" data-name="Group 866" transform="translate(-22344.242 -6364.327)">
      <path id="Path_1143" data-name="Path 1143" d="M1703.858,2022.644c2.729.127,7.179.255,9.75.255,11.223,0,12.562-.024,12.562-6.124,0-4.812-1.414-5.2-7.359-5.377l-6.9-.207c-3.163-.1-3.217-.437-3.217-1.852,0-1.467.386-1.467,7.978-1.467,1.439,0,6.021.077,8.443.128a.342.342,0,0,0,.385-.386v-3.14a.366.366,0,0,0-.362-.41c-2.393-.132-6.3-.26-9.11-.26-11.013,0-12.788.207-12.788,5.893,0,4.865,1.079,5.509,8.13,5.742l6.329.2c2.962.1,3.015.462,3.015,1.569,0,1.521-.13,1.6-7.132,1.6-3.267,0-6.638-.128-9.7-.233-.257-.025-.386.1-.386.361v3.294a.368.368,0,0,0,.36.413m118.774-6.82H1814.4l3.784-7.492h.669Zm-24.048-2.6v.258c0,4.761-.389,4.916-6.563,4.916h-5.1v-10.09h5.1c6.174,0,6.563.155,6.563,4.916m-26.721,0v.258c0,5.2-.205,5.277-6.279,5.277s-6.281-.077-6.281-5.277v-.258c0-5.2.207-5.274,6.281-5.274s6.279.076,6.279,5.274m59.907,8.931-8.879-17.783a.422.422,0,0,0-.437-.284h-7.874a.421.421,0,0,0-.44.284l-8.879,17.783c-.131.284-.024.463.281.463h5.124a.417.417,0,0,0,.436-.284l1.34-2.625h12.147l1.337,2.625a.422.422,0,0,0,.44.284h5.12c.31,0,.412-.179.284-.463m-39.777-18.067h-10.268a.344.344,0,0,0-.387.387v17.757a.342.342,0,0,0,.387.386h10.268c10.991,0,12.432-.542,12.432-9.189v-.154c0-8.647-1.441-9.187-12.432-9.187m-39.752,18.067L1742,2012.142l9.624-7.592c.285-.205.178-.463-.182-.463h-6.278a.663.663,0,0,0-.463.18l-9.83,7.852v-7.645a.343.343,0,0,0-.387-.387h-4.786a.344.344,0,0,0-.388.387v17.757a.342.342,0,0,0,.388.386h4.786a.341.341,0,0,0,.387-.386v-4.477l2.908-2.292,7.05,6.95a.612.612,0,0,0,.488.2h6.744c.335,0,.439-.231.184-.463m1.091-8.931v.258c0,8.98,1.47,9.524,12.252,9.524s12.25-.544,12.25-9.552v-.23c0-8.98-1.466-9.522-12.25-9.522s-12.252.542-12.252,9.522m-43.376-13.432,2.343,2.674a.532.532,0,0,0,.462.207h4.916a.531.531,0,0,0,.464-.207l2.343-2.674c.2-.233.128-.464-.207-.464h-3.317a.555.555,0,0,0-.468.231l-1,1.442h-.543l-1-1.442a.565.565,0,0,0-.489-.231h-3.294c-.337,0-.41.231-.207.464" fill="#0f3b2e"/>
    </g>
    <rect id="Rectangle_596" data-name="Rectangle 596" width="165" height="73" transform="translate(-20659 -4390)" fill="none"/>
  </g>
</svg>
