<svg xmlns="http://www.w3.org/2000/svg" width="165" height="73" viewBox="0 0 165 73">
  <g id="TAT" transform="translate(20058 4151)">
    <rect id="Rectangle_636" data-name="Rectangle 636" width="165" height="73" transform="translate(-20058 -4151)" fill="none"/>
    <g id="Group_909" data-name="Group 909" transform="translate(-21742.658 -6308.768)">
      <path id="Path_1220" data-name="Path 1220" d="M1763.937,2199.059a3.129,3.129,0,0,0,3.24,3.24,3.282,3.282,0,0,0,1.939-.589l-.049-6.849C1766.539,2194.861,1763.937,2196.04,1763.937,2199.059Z" fill="#c9322d"/>
      <path id="Path_1221" data-name="Path 1221" d="M1773.51,2213.591c18.631-2.627,29.9-10.261,29.9-21.97-.025-13.721-16.005-22.877-35.838-22.853s-35.937,11.095-35.912,24.768c.024,14.654,16.446,25.749,46.54,25.725,1.007-.074,2.529-.54.614-.835s-6.75-1.841-6.75-3.436C1772.037,2213.738,1773.51,2213.591,1773.51,2213.591Zm5.081-27.051c2.209-.442,5.5-3.461,8.3-7.708h1.08v5.867h6.186v2.578h-6.186s-.049,8.885-.049,12.788c0,1.989.491,2.48,2.332,2.48a5.305,5.305,0,0,0,3.976-2.529l.491.589a9.065,9.065,0,0,1-7.707,4.861c-4.468,0-5.72-1.35-5.72-6.53v-11.684h-2.7Zm-29.407,18.926c-4.467,0-5.719-1.35-5.719-6.53v-11.684h-2.7v-.712c2.209-.442,5.5-3.461,8.3-7.708h1.08v5.867h6.186v2.578h-6.186s-.049,8.885-.049,12.788c0,1.989.491,2.48,2.332,2.48a5.307,5.307,0,0,0,3.977-2.529l.491.589A9.066,9.066,0,0,1,1749.184,2205.466Zm20.325-1.964a12.606,12.606,0,0,1-6.407,1.988,5.536,5.536,0,0,1-5.768-5.4c.024-5.253,7.683-6.309,11.733-6.48V2190.1c0-2.307-.638-3.78-1.669-3.78-2.038,0-3.019,2.16-2.6,5.327a12.489,12.489,0,0,1-3.191.491,14.426,14.426,0,0,1-3.388-.491c-.589-4.247,3.879-7.34,10.678-7.119,4.32.148,7.119,2.75,7.119,7.07v7.781c0,1.939.368,3.191,1.792,3.191a1.932,1.932,0,0,0,1.939-.957l.712.859c-1.129,1.988-2.97,3.24-7.119,3.24A3.832,3.832,0,0,1,1769.509,2203.5Z" fill="#c9322d"/>
    </g>
  </g>
</svg>
