<svg xmlns="http://www.w3.org/2000/svg" width="165" height="73" viewBox="0 0 165 73">
  <g id="AGT_LOGO" data-name="AGT LOGO" transform="translate(19414 589)">
    <g id="Group_820" data-name="Group 820" transform="translate(-19414 -564.857)">
      <path id="Path_741" data-name="Path 741" d="M123.556,1999.851H103.924v18.686h4.939v-13.747h14.694Z" transform="translate(-103.924 -1999.3)" fill="#7b858f"/>
      <path id="Path_742" data-name="Path 742" d="M128.5,2004.788h-4.939v13.781H108.863v4.935H128.5Z" transform="translate(-103.924 -1999.3)" fill="#7b858f"/>
      <path id="Path_743" data-name="Path 743" d="M151.118,1999.765h-8.252l-8.552,23.774H140.9l1.427-4.367,9.3.016,1.171,4.308h6.83Zm-7.429,14.757,3.335-9.877c0-.048,3.271,9.877,3.271,9.877Z" transform="translate(-103.924 -1999.3)" fill="#7b858f"/>
      <path id="Path_744" data-name="Path 744" d="M183.3,2006.083l-.011-6.2h18.151v6.221H195.48v17.445H189l.021-17.445Z" transform="translate(-103.924 -1999.3)" fill="#7b858f"/>
      <path id="Path_745" data-name="Path 745" d="M183.785,2009.9l-12.955,0v4.722h6.113a6.479,6.479,0,0,1-5.9,4.34c-3.566,0-6.457-3.274-6.457-7.312s2.891-7.311,6.457-7.311a6.307,6.307,0,0,1,5.42,3.34l5.411-2.706a12.994,12.994,0,0,0-10.831-5.68,12.367,12.367,0,1,0,12.87,12.357A12.076,12.076,0,0,0,183.785,2009.9Z" transform="translate(-103.924 -1999.3)" fill="#7b858f"/>
    </g>
    <rect id="Rectangle_573" data-name="Rectangle 573" width="165" height="73" transform="translate(-19414 -589)" fill="none"/>
  </g>
</svg>
