<svg xmlns="http://www.w3.org/2000/svg" width="165" height="73" viewBox="0 0 165 73">
  <g id="AKBANK_LOGO" data-name="AKBANK LOGO" transform="translate(21270 3062)">
    <g id="Group_822" data-name="Group 822" transform="translate(-21528.713 -5036.584)">
      <path id="Path_746" data-name="Path 746" d="M270.7,2007.327l3.217,6.067h-6.348Zm-3.224-3.742-8.758,16.145h5.552l1.441-2.848h10.052l1.54,2.848h5.527l-8.888-16.145Z" fill="#7b858f"/>
      <path id="Path_747" data-name="Path 747" d="M298.673,2003.585l-6.246,5.93H290.1v-5.93h-4.96v16.145h4.96v-6.2h2.188l7.154,6.2h7.012l-9.79-8.254,8.767-7.891Z" fill="#7b858f"/>
      <path id="Path_748" data-name="Path 748" d="M313.82,2013.335H322.7c1.078,0,1.8.239,1.8,1.334,0,.93-.719,1.173-1.8,1.173H313.82Zm-4.956,6.4h15.795c2.829,0,4.929-.742,4.929-4.284,0-2.429-.809-3.587-2.962-3.872v-.047c1.373-.409,2.377-.927,2.377-3.7,0-3.165-1.919-4.238-5.879-4.238h-14.26Zm4.956-12.26H322.6c.914,0,1.441.328,1.441,1.258s-.527,1.248-1.441,1.248H313.82Z" fill="#7b858f"/>
      <path id="Path_749" data-name="Path 749" d="M343.522,2007.327l3.227,6.067H340.4Zm-11.963,12.4H337.1l1.443-2.848h10.069l1.525,2.848h5.516l-8.884-16.145h-6.456Z" fill="#7b858f"/>
      <path id="Path_750" data-name="Path 750" d="M357.975,2003.584h7.69l9.308,11.74h.046v-11.74h4.963v16.145h-7.691l-9.314-11.719h-.039v11.719h-4.963Z" fill="#7b858f"/>
      <path id="Path_751" data-name="Path 751" d="M383.9,2003.584h4.943v5.93h2.321l6.261-5.93h6.737l-8.75,7.891,9.777,8.254h-7l-7.159-6.2h-2.184v6.2H383.9Z" fill="#7b858f"/>
    </g>
    <rect id="Rectangle_574" data-name="Rectangle 574" width="165" height="73" transform="translate(-21270 -3062)" fill="none"/>
  </g>
</svg>
