<svg xmlns="http://www.w3.org/2000/svg" width="165" height="73" viewBox="0 0 165 73">
  <g id="ALLIANZ" transform="translate(-428.502 -1974.793)">
    <g id="Group_824" data-name="Group 824" transform="translate(-16.4)">
      <path id="Path_752" data-name="Path 752" d="M456.989,2012.621h-4.528l2.41-7.868Zm-6.876,8.675,1.544-5.17h6.1l1.445,5.17h5.654l-5.618-19.722a2.08,2.08,0,0,0-2.252-1.7h-8v1.862h.673c.835,0,1.287.326,1.287.966a5.181,5.181,0,0,1-.426,1.732L444.9,2021.3Z" fill="#7b858f"/>
      <path id="Path_753" data-name="Path 753" d="M471.371,2021.3v-19.784a1.493,1.493,0,0,0-1.6-1.641h-4.945v1.862h.322c.835,0,1.187.354,1.187,1.2V2021.3Z" fill="#7b858f"/>
      <path id="Path_754" data-name="Path 754" d="M479.945,2021.3v-19.784a1.5,1.5,0,0,0-1.607-1.641h-4.944v1.862h.315c.839,0,1.192.354,1.192,1.2V2021.3Z" fill="#7b858f"/>
      <path id="Path_755" data-name="Path 755" d="M488.739,2001.825c0-1.436-1.063-2.3-2.89-2.3-1.8,0-2.895.869-2.895,2.3,0,1.454,1.1,2.315,2.895,2.315,1.827,0,2.89-.861,2.89-2.315m-.094,19.471v-14.423a1.5,1.5,0,0,0-1.61-1.635h-4.88v1.827h.287c.835,0,1.188.384,1.188,1.22V2021.3Z" fill="#7b858f"/>
      <path id="Path_756" data-name="Path 756" d="M499.685,2013.583v3.122a4.089,4.089,0,0,1-2.726,1.387c-.905,0-1.222-.444-1.222-1.647s.252-1.729,1.153-2.08a13.058,13.058,0,0,1,2.795-.782m-6.782-3.749a12.118,12.118,0,0,1,4.947-1.254c1.354,0,1.835.482,1.835,1.886v.359c-2.054.325-2.7.456-3.855.711a11.712,11.712,0,0,0-1.9.607c-2.026.813-2.983,2.378-2.983,4.785,0,3.051,1.315,4.526,4.044,4.526a7.279,7.279,0,0,0,2.7-.509,8.972,8.972,0,0,0,2.153-1.379v.224a1.339,1.339,0,0,0,1.509,1.506h4.592v-1.73h-.226c-.866,0-1.186-.389-1.186-1.412v-7.649c0-4.078-1.414-5.5-5.5-5.5a17.107,17.107,0,0,0-3.848.455,12.955,12.955,0,0,0-3.4,1.285Z" fill="#7b858f"/>
      <path id="Path_757" data-name="Path 757" d="M513.264,2021.3v-10.858a3.515,3.515,0,0,1,2.7-1.353c1.064,0,1.317.421,1.317,2.036V2021.3h5.011v-10.919c0-2.541-.186-3.344-.991-4.206a3.914,3.914,0,0,0-3.025-1.124c-1.961,0-3.341.608-5.2,2.342v-.64a1.358,1.358,0,0,0-1.548-1.511h-4.759v1.827h.29c.835,0,1.192.384,1.192,1.22V2021.3Z" fill="#7b858f"/>
      <path id="Path_758" data-name="Path 758" d="M537.159,2017.924h-7l6.683-9.374v-3.314H526.37a1.508,1.508,0,0,0-1.735,1.736v2.919H526.5v-.287c0-.737.385-1.091,1.183-1.091h3.6l-6.746,9.478v3.305h12.622Z" fill="#7b858f"/>
      <path id="Path_759" data-name="Path 759" d="M563.459,2020.886v-18.153c0-1.446-.513-1.933-1.919-1.933h-4.248v2.027h.253c.971,0,1.159.218,1.159,1.386v16.673Zm2.1,0h4.72v-14.138c0-1.419-.548-1.93-1.931-1.93h-2.789Zm-8.934,0v-16.068h-2.8c-1.383,0-1.926.511-1.926,1.93v14.138Zm18.118-9.226c0,8-5.751,13.814-13.652,13.814s-13.655-5.816-13.655-13.814,5.752-13.817,13.655-13.817,13.652,5.852,13.652,13.817m2.794,0a16.448,16.448,0,1,0-16.446,16.445,16.05,16.05,0,0,0,16.446-16.445" fill="#7b858f"/>
    </g>
    <rect id="Rectangle_575" data-name="Rectangle 575" width="165" height="73" transform="translate(428.502 1974.793)" fill="none"/>
  </g>
</svg>
