<svg xmlns="http://www.w3.org/2000/svg" width="165.943" height="73" viewBox="0 0 165.943 73">
  <g id="AMERIKAN_LOGO" data-name="AMERIKAN LOGO" transform="translate(-606.572 -1974.793)">
    <g id="Group_826" data-name="Group 826" transform="translate(606.573 1995.733)">
      <path id="Path_760" data-name="Path 760" d="M662.936,2026.871v-6h2.688v6H669.5V2012.45h-3.877v5.538h-2.688v-5.538h-3.878v14.422h3.878" transform="translate(-624.84 -1996.097)" fill="#7b858f"/>
      <path id="Path_761" data-name="Path 761" d="M677.635,2021.526h-2.247l1.124-6.461h.044l1.079,6.461m-3.127,5.345.462-2.807h3.04l.551,2.807h3.921l-3.591-14.421h-4.67l-3.613,14.421Z" transform="translate(-624.933 -1996.097)" fill="#7b858f" fill-rule="evenodd"/>
      <path id="Path_762" data-name="Path 762" d="M683.016,2022.045v1.538c0,1.9,1.5,3.634,5.045,3.634,3.216,0,4.979-1.538,4.979-4.307a3.963,3.963,0,0,0-1.432-3.442,28.147,28.147,0,0,0-3.613-2.038c-.771-.461-1.278-.9-1.168-1.769a1.114,1.114,0,0,1,1.344-.961c1.278.076,1.234,1.23,1.278,2.077h3.569c.176-2.712-1.543-4.673-4.913-4.673-3,0-4.869,1.385-4.869,4.1a3.891,3.891,0,0,0,1.124,2.883,11.11,11.11,0,0,0,2.93,1.885c1.013.539,2.159,1,2.159,2.211a1.3,1.3,0,0,1-1.3,1.443,1.366,1.366,0,0,1-1.542-1.558v-1.019h-3.591" transform="translate(-625.023 -1996.097)" fill="#7b858f"/>
      <path id="Path_763" data-name="Path 763" d="M694.173,2015.335h3.04v11.537h3.877v-11.537h3.129v-2.885H694.173v2.885" transform="translate(-625.109 -1996.097)" fill="#7b858f"/>
      <path id="Path_764" data-name="Path 764" d="M711.94,2021.526h-2.248l1.124-6.461h.043l1.081,6.461m-3.129,5.345.462-2.807h3.041l.551,2.807h3.921L713.2,2012.45h-4.671l-3.613,14.421Z" transform="translate(-625.201 -1996.097)" fill="#7b858f" fill-rule="evenodd"/>
      <path id="Path_765" data-name="Path 765" d="M724.3,2026.871h3.965V2012.45H724.59l.375,8.057H724.9l-3-8.057h-3.987v14.422h3.679l-.353-8.037.044-.038,3.019,8.076" transform="translate(-625.294 -1996.097)" fill="#7b858f"/>
      <path id="Path_766" data-name="Path 766" d="M739.378,2026.871v-2.884h-5.266v-3.115h4.847v-2.884h-4.847v-2.654h5v-2.885h-8.878v14.422h9.143" transform="translate(-625.511 -1996.097)" fill="#7b858f"/>
      <path id="Path_767" data-name="Path 767" d="M740.6,2022.045v1.538c0,1.9,1.5,3.634,5.045,3.634,3.216,0,4.978-1.538,4.978-4.307a3.963,3.963,0,0,0-1.431-3.442,28.147,28.147,0,0,0-3.613-2.038c-.772-.461-1.278-.9-1.168-1.769a1.113,1.113,0,0,1,1.344-.961c1.278.076,1.233,1.23,1.278,2.077H750.6c.176-2.712-1.543-4.673-4.913-4.673-3,0-4.869,1.385-4.869,4.1a3.887,3.887,0,0,0,1.124,2.883,11.11,11.11,0,0,0,2.93,1.885c1.013.539,2.159,1,2.159,2.211a1.3,1.3,0,0,1-1.3,1.443,1.365,1.365,0,0,1-1.542-1.558v-1.019H740.6" transform="translate(-625.511 -1996.097)" fill="#7b858f"/>
      <path id="Path_768" data-name="Path 768" d="M752.4,2015.63h4v-3.417h-4Zm0,11.241h4v-10.392h-4Z" transform="translate(-625.511 -1996.097)" fill="#7b858f" fill-rule="evenodd"/>
      <path id="Path_769" data-name="Path 769" d="M666.558,2005.524h-2.514l1.231-5.085,1.283,5.085m-3.729,4.828.455-1.872h3.966l.472,1.872h3.965l-4.353-14.188h-4.05l-4.353,14.188Z" transform="translate(-624.844 -1996.097)" fill="#7b858f" fill-rule="evenodd"/>
      <path id="Path_770" data-name="Path 770" d="M675.984,2010.352v-4.808l-.085-2.207-.168-2.088h.034l2.21,9.1h2.767l2.211-9.1h.034l-.2,2.562-.051,2.207v4.335h3.577v-14.187H681.5l-2.143,8.847-2.143-8.847h-4.809v14.187h3.577" transform="translate(-624.954 -1996.097)" fill="#7b858f" fill-rule="evenodd"/>
      <path id="Path_771" data-name="Path 771" d="M698.265,2010.352v-3.311h-6.159v-2.226h5.011v-3.31h-5.011v-2.03h5.923v-3.31h-9.9v14.187h10.141" transform="translate(-625.063 -1996.097)" fill="#7b858f"/>
      <path id="Path_772" data-name="Path 772" d="M703.558,1999.475h1.855a1.414,1.414,0,0,1,1.6,1.477c0,.986-.658,1.341-1.89,1.341h-1.568v-2.818m1.214,5.931c1.856,0,2.126.611,2.126,2.463a10.855,10.855,0,0,0,.2,2.483h4.033v-.434c-.472,0-.422-.631-.422-2.483,0-2.857-.776-3.212-2.058-3.763,1.417-.453,2.041-1.833,2.041-3.468,0-2.759-1.333-4.04-5.382-4.04h-5.736v14.188h3.982v-4.946Z" transform="translate(-625.158 -1996.097)" fill="#7b858f" fill-rule="evenodd"/>
      <rect id="Rectangle_576" data-name="Rectangle 576" width="3.983" height="9.919" transform="translate(87.258 4.335)" fill="#7b858f"/>
      <path id="Path_773" data-name="Path 773" d="M718.547,2010.352h3.982v-4.493l.945-1.162,2.919,5.655h4.775l-4.909-8.847,4.438-5.34h-4.673l-3.494,4.591v-4.591h-3.982v14.187" transform="translate(-625.313 -1996.097)" fill="#7b858f"/>
      <path id="Path_774" data-name="Path 774" d="M738.667,2005.524h-2.514l1.232-5.085,1.282,5.085m-3.729,4.828.456-1.872h3.965l.472,1.872H743.8l-4.352-14.188h-4.05l-4.353,14.188Z" transform="translate(-625.511 -1996.097)" fill="#7b858f" fill-rule="evenodd"/>
      <path id="Path_775" data-name="Path 775" d="M748.4,1996.164h-3.729v14.187h3.813v-4.493l-.152-3.231,4.336,7.724h3.729v-14.187h-3.813v4.512l.152,3.232-4.336-7.744" transform="translate(-625.511 -1996.097)" fill="#7b858f"/>
      <rect id="Rectangle_577" data-name="Rectangle 577" width="4.011" height="3.409" transform="translate(87.23)" fill="#7b858f"/>
      <rect id="Rectangle_578" data-name="Rectangle 578" width="30.268" height="30.723" fill="#7b858f"/>
    </g>
    <rect id="Rectangle_579" data-name="Rectangle 579" width="165" height="73" transform="translate(607.515 1974.793)" fill="none"/>
  </g>
</svg>
