<svg xmlns="http://www.w3.org/2000/svg" width="165" height="73" viewBox="0 0 165 73">
  <g id="ASSET_LOGO" data-name="ASSET LOGO" transform="translate(20372 2931)">
    <rect id="Rectangle_598" data-name="Rectangle 598" width="165" height="73" transform="translate(-20372 -2931)" fill="none"/>
    <g id="Group_875" data-name="Group 875" transform="translate(-21555.07 -4996.347)">
      <g id="Group_873" data-name="Group 873">
        <path id="Path_1174" data-name="Path 1174" d="M1199.487,2088.069h-.62a1.812,1.812,0,0,0-1.754,1.384,9.191,9.191,0,1,0,0,15.613,1.809,1.809,0,0,0,1.754,1.384h.62a1.813,1.813,0,0,0,1.807-1.807v-14.767A1.813,1.813,0,0,0,1199.487,2088.069Zm-2.427,11.491a5.321,5.321,0,1,1,0-4.6,5.326,5.326,0,0,1,0,4.6Z" fill="#7b858f"/>
        <path id="Path_1175" data-name="Path 1175" d="M1219.117,2100.846a5.77,5.77,0,0,1-4.384,5.6h-9.14a2.2,2.2,0,0,1-2.192-2.192,2.26,2.26,0,0,1,2.253-2.253h7.395a1.247,1.247,0,0,0,.129-2.487c-.044,0-.085-.005-.129-.005s-.084,0-.128.005h-3.96a5.853,5.853,0,0,1-1.209-.125,5.782,5.782,0,0,1-4.412-4.322,5.627,5.627,0,0,1-.155-1.325,5.941,5.941,0,0,1,.131-1.232,5.78,5.78,0,0,1,4.579-4.445h8.087a2.2,2.2,0,0,1,2.192,2.192,2.26,2.26,0,0,1-2.253,2.253h-6.669a1.279,1.279,0,1,0,0,2.557h4.089a5.863,5.863,0,0,1,1.208.125,5.779,5.779,0,0,1,3.622,2.487A5.716,5.716,0,0,1,1219.117,2100.846Z" fill="#7b858f"/>
        <path id="Path_1176" data-name="Path 1176" d="M1236.076,2100.846a5.91,5.91,0,0,1-.116,1.159,5.781,5.781,0,0,1-4.267,4.445h-9.141a2.2,2.2,0,0,1-2.192-2.192,2.262,2.262,0,0,1,2.253-2.253h7.4a1.247,1.247,0,0,0,.128-2.487c-.044,0-.084-.005-.128-.005s-.085,0-.129.005h-3.96a5.758,5.758,0,0,1-5.621-4.447,5.678,5.678,0,0,1-.155-1.325,5.875,5.875,0,0,1,.132-1.232,5.779,5.779,0,0,1,4.579-4.445h8.087a2.2,2.2,0,0,1,2.192,2.192,2.262,2.262,0,0,1-2.254,2.253h-6.668a1.279,1.279,0,1,0,0,2.557h4.089a5.871,5.871,0,0,1,1.208.125,5.786,5.786,0,0,1,4.567,5.65Z" fill="#7b858f"/>
        <path id="Path_1177" data-name="Path 1177" d="M1255.955,2097.52a9.024,9.024,0,0,0-.324-2.667,9.184,9.184,0,1,0-4.21,10.333c.064-.038.131-.079.195-.12a2.354,2.354,0,0,0-2.539-3.963l-.044.026c-.038.03-.079.056-.119.082a.163.163,0,0,1-.024.018,4.013,4.013,0,0,1-2.121.575c-1.819,0-3.293-1.092-3.293-2.44h10.6A1.887,1.887,0,0,0,1255.955,2097.52Zm-9.186-4.618c1.818,0,3.292,1.095,3.292,2.443h-6.585C1243.476,2094,1244.95,2092.9,1246.769,2092.9Z" fill="#7b858f"/>
        <g id="Group_872" data-name="Group 872">
          <path id="Path_1179" data-name="Path 1179" d="M1271.592,2099.618a2.253,2.253,0,0,0-1.629.7,2.72,2.72,0,0,1-.2.244l0,.006a4.261,4.261,0,0,1-7.385-2.368c0-.05.006-.1.006-.153v-4.569h6.587a2.122,2.122,0,0,0,1.891-1.168c-.218.017-.462.029-.723.029a5.033,5.033,0,0,1-4.678-2.364l-.016-.055a5.634,5.634,0,0,1,.026-.97h-3.087v-3.475a2.128,2.128,0,0,0-2.121-2.123h-.283a2.13,2.13,0,0,0-2.124,2.123V2097.7c0,.223.008.445.025.662v.011a8.752,8.752,0,0,0,15.382,5.011c.022-.028.047-.053.069-.08a2.251,2.251,0,0,0-1.734-3.683Z" fill="#7b858f"/>
        </g>
        <path id="Path_1263" data-name="Path 1263" d="M-1118.689,1973.435a2.857,2.857,0,0,1,2.752-2.862,21.261,21.261,0,0,1,6.457,0s-.572,4.806-4.605,5.044C-1114.086,1975.617-1117.465,1975.795-1118.689,1973.435Z" transform="translate(2384.537 116.299)" fill="#7b858f"/>
      </g>
      <g id="Group_874" data-name="Group 874">
        <path id="Path_1180" data-name="Path 1180" d="M1201.891,2117.143a1.857,1.857,0,0,1-1.846,1.859h-1.58a.187.187,0,0,1-.2-.177c-.038-.556-.063-2-.063-4.336,0-2.25.025-3.641.063-4.158a.186.186,0,0,1,.2-.177h1.58a1.808,1.808,0,0,1,1.3.53,1.774,1.774,0,0,1,.544,1.315Zm-1.846.822a.819.819,0,0,0,.822-.822V2112a.748.748,0,0,0-.24-.582.785.785,0,0,0-.582-.24h-.442c-.19,0-.3.127-.316.367-.038.379-.051,1.39-.051,3.021a13.213,13.213,0,0,0,.2,3.2.421.421,0,0,0,.405.2Z" fill="#7b858f"/>
        <path id="Path_1181" data-name="Path 1181" d="M1206.505,2117.27a1.812,1.812,0,0,1-1.845,1.845,1.854,1.854,0,0,1-1.833-1.845v-3.223a1.856,1.856,0,0,1,1.833-1.846,1.814,1.814,0,0,1,1.845,1.846v.973a.51.51,0,0,1-.429.5,4.2,4.2,0,0,1-.885.064,3.543,3.543,0,0,0-.9.076.57.57,0,0,0-.43.568v1.037a.78.78,0,0,0,.241.581.745.745,0,0,0,.556.241.789.789,0,0,0,.594-.241.745.745,0,0,0,.24-.581v-.1c0-.051.038-.076.126-.089h.759c.088.013.126.038.126.089Zm-1.011-3.223a.784.784,0,0,0-.24-.582.791.791,0,0,0-.594-.24.747.747,0,0,0-.556.24.78.78,0,0,0-.241.582v.252a.256.256,0,0,0,.253.266h1.15a.244.244,0,0,0,.228-.266Z" fill="#7b858f"/>
        <path id="Path_1182" data-name="Path 1182" d="M1208.187,2117.27a.783.783,0,0,0,.24.581.774.774,0,0,0,.569.241.723.723,0,0,0,.632-.354,1.256,1.256,0,0,0,.2-.734c0-.594-.328-.884-.986-.884a1.542,1.542,0,0,1-1.162-.468,1.907,1.907,0,0,1-.519-1.416,2.229,2.229,0,0,1,.443-1.39,1.652,1.652,0,0,1,1.39-.645,1.858,1.858,0,0,1,1.846,1.846v.088c0,.063-.038.089-.127.1h-.758c-.089-.012-.127-.038-.127-.1v-.088a.783.783,0,0,0-.24-.582.81.81,0,0,0-.594-.24.726.726,0,0,0-.632.341,1.207,1.207,0,0,0-.19.683.71.71,0,0,0,.443.746,1.446,1.446,0,0,0,.43.075c.227.026.379.051.455.064a1.659,1.659,0,0,1,1.327,1.845,2.451,2.451,0,0,1-.417,1.466,1.655,1.655,0,0,1-1.416.67,1.769,1.769,0,0,1-1.3-.543,1.731,1.731,0,0,1-.544-1.3v-.1c0-.051.038-.076.127-.089h.784c.088.013.126.038.126.089Z" fill="#7b858f"/>
        <path id="Path_1183" data-name="Path 1183" d="M1212.22,2111.493a.667.667,0,0,1-.493-.2.6.6,0,0,1-.2-.467.637.637,0,0,1,.2-.469.709.709,0,0,1,.493-.189.672.672,0,0,1,.468.189.67.67,0,0,1-.468,1.138Zm-.076,7.509c-.252-.013-.392-.19-.43-.519-.025-.354-.038-1.314-.038-2.894a9.75,9.75,0,0,1,.266-3.148.331.331,0,0,1,.366-.253c.241.038.38.405.418,1.087v2.314c0,1.656-.026,2.654-.064,3a.42.42,0,0,1-.454.417Z" fill="#7b858f"/>
        <path id="Path_1184" data-name="Path 1184" d="M1217.365,2119.988a1.854,1.854,0,0,1-1.845,1.845h-.178a.154.154,0,0,1-.164-.139,2.106,2.106,0,0,1-.012-.366,2.513,2.513,0,0,1,.012-.392.145.145,0,0,1,.164-.127h.178a.819.819,0,0,0,.821-.821v-.873a.116.116,0,0,0-.126-.113,2.1,2.1,0,0,0-.3.05,2.006,2.006,0,0,1-.391.063,1.854,1.854,0,0,1-1.833-1.845v-3.223a1.856,1.856,0,0,1,1.833-1.846,4.252,4.252,0,0,1,.492.063l.228.076c.013.013.025.013.051.013s.025-.026.05-.064a.158.158,0,0,1,.139-.1h.43c.228,0,.366.152.4.455.038.544.051,1.682.051,3.426Zm-2.642-2.718a.778.778,0,0,0,.228.581.7.7,0,0,0,.569.241.821.821,0,0,0,.821-.822v-3.223a.783.783,0,0,0-.24-.582.8.8,0,0,0-.581-.24.736.736,0,0,0-.569.24.82.82,0,0,0-.228.582Z" fill="#7b858f"/>
        <path id="Path_1185" data-name="Path 1185" d="M1222.131,2117.523a8.289,8.289,0,0,1-.038,1.062.461.461,0,0,1-.467.417c-.266,0-.418-.152-.481-.455a8.409,8.409,0,0,1-.038-1.1v-3.4a.78.78,0,0,0-.24-.582.8.8,0,0,0-.581-.24.819.819,0,0,0-.822.822v3.476a6.348,6.348,0,0,1-.05,1.087.44.44,0,0,1-.456.392h-.038c-.24-.013-.379-.177-.416-.468-.038-.392-.051-1.391-.051-3,0-1.643,0-2.427-.013-2.338.038-.658.2-1,.48-1.012h.4a.156.156,0,0,1,.139.1c.013.038.025.064.038.064a1.721,1.721,0,0,0,.367-.076,1.611,1.611,0,0,1,.417-.076,1.856,1.856,0,0,1,1.845,1.846Z" fill="#7b858f"/>
        <path id="Path_1186" data-name="Path 1186" d="M1227.517,2119a1.858,1.858,0,0,1-1.833-1.846v-3.6q0-2.352.038-2.883c.026-.34.19-.517.48-.517s.443.126.481.366c.013.088.013.253.025.518,0,.3.013.556.026.771.012.291.189.455.518.518s.493.228.493.493c0,.291-.165.455-.481.519s-.505.227-.518.48a5.668,5.668,0,0,0-.025.733v2.6a.776.776,0,0,0,.24.569.748.748,0,0,0,.556.24h.127c.076,0,.113.19.113.556,0,.316-.037.481-.113.481Z" fill="#7b858f"/>
        <path id="Path_1187" data-name="Path 1187" d="M1232.081,2118.269c-.038.467-.19.72-.455.733-.342,0-.531-.241-.582-.708v-4.247a.783.783,0,0,0-.24-.582.809.809,0,0,0-1.15,0,.783.783,0,0,0-.24.582v2.49c0,1.112,0,1.706-.013,1.782-.051.455-.227.683-.543.683q-.362,0-.418-.455c-.038-.8-.063-2.137-.063-4.045,0-1.96.025-3.287.076-3.957.038-.265.177-.391.405-.391.341,0,.518.2.556.619a4.68,4.68,0,0,1,.012.644c-.012.329-.012.582,0,.746.013.089.064.139.127.139a1.536,1.536,0,0,0,.291-.05,1.585,1.585,0,0,1,.391-.051,1.764,1.764,0,0,1,1.3.544,1.723,1.723,0,0,1,.544,1.3Z" fill="#7b858f"/>
        <path id="Path_1188" data-name="Path 1188" d="M1236.67,2117.27a1.814,1.814,0,0,1-1.846,1.845,1.854,1.854,0,0,1-1.832-1.845v-3.223a1.856,1.856,0,0,1,1.832-1.846,1.816,1.816,0,0,1,1.846,1.846v.973a.511.511,0,0,1-.43.5,4.19,4.19,0,0,1-.884.064,3.536,3.536,0,0,0-.9.076.57.57,0,0,0-.43.568v1.037a.783.783,0,0,0,.24.581.748.748,0,0,0,.556.241.791.791,0,0,0,.595-.241.744.744,0,0,0,.24-.581v-.1c0-.051.038-.076.126-.089h.759c.088.013.126.038.126.089Zm-1.011-3.223a.783.783,0,0,0-.24-.582.793.793,0,0,0-.595-.24.75.75,0,0,0-.556.24.784.784,0,0,0-.24.582v.252a.256.256,0,0,0,.253.266h1.15a.244.244,0,0,0,.228-.266Z" fill="#7b858f"/>
        <path id="Path_1189" data-name="Path 1189" d="M1240.564,2119c-.252-.013-.392-.177-.429-.493-.026-.506-.038-1.517-.038-3.047v-3.577a1.778,1.778,0,0,1,.543-1.315,1.733,1.733,0,0,1,1.29-.555h.176a.133.133,0,0,1,.152.126,2.313,2.313,0,0,1,.013.391,2.532,2.532,0,0,1-.013.405.133.133,0,0,1-.152.126h-.176a.821.821,0,0,0-.822.822v1.846a2,2,0,0,0,.063.606.344.344,0,0,0,.367.228c.277,0,.417.114.417.354v.341c0,.24-.14.354-.417.354h-.051a.357.357,0,0,0-.341.341,4.287,4.287,0,0,0-.038.746v.632c0,.721-.013,1.125-.025,1.214-.051.3-.215.455-.481.455Z" fill="#7b858f"/>
        <path id="Path_1190" data-name="Path 1190" d="M1245.394,2119a.166.166,0,0,1-.127-.089l-.038-.05-.291.126a1.272,1.272,0,0,1-.505.126,1.856,1.856,0,0,1-1.833-1.845V2114.6c0-1.113,0-1.694.012-1.745.038-.442.216-.67.506-.67s.467.241.506.734c.012.063.012.657.012,1.807v2.541a.737.737,0,0,0,.241.569.786.786,0,0,0,.556.227.824.824,0,0,0,.581-.227.739.739,0,0,0,.24-.569v-3.527a6.736,6.736,0,0,1,.051-1.137.453.453,0,0,1,.467-.418c.266,0,.417.152.455.468.038.405.051,1.428.051,3.072v2.3c-.038.632-.2.961-.468.974Z" fill="#7b858f"/>
        <path id="Path_1191" data-name="Path 1191" d="M1249.161,2119a1.857,1.857,0,0,1-1.833-1.846v-3.6q0-2.352.038-2.883c.026-.34.19-.517.48-.517s.443.126.481.366c.013.088.013.253.025.518,0,.3.013.556.026.771.012.291.189.455.517.518s.493.228.493.493c0,.291-.164.455-.48.519s-.505.227-.518.48a5.668,5.668,0,0,0-.025.733v2.6a.776.776,0,0,0,.24.569.748.748,0,0,0,.556.24h.127c.076,0,.113.19.113.556,0,.316-.037.481-.113.481Z" fill="#7b858f"/>
        <path id="Path_1192" data-name="Path 1192" d="M1252.789,2119a.166.166,0,0,1-.126-.089l-.038-.05-.291.126a1.272,1.272,0,0,1-.506.126,1.854,1.854,0,0,1-1.832-1.845V2114.6c0-1.113,0-1.694.012-1.745.038-.442.215-.67.506-.67s.467.241.505.734c.013.063.013.657.013,1.807v2.541a.739.739,0,0,0,.24.569.788.788,0,0,0,.556.227.826.826,0,0,0,.582-.227.739.739,0,0,0,.24-.569v-3.527a6.736,6.736,0,0,1,.051-1.137.453.453,0,0,1,.467-.418c.266,0,.417.152.455.468.038.405.051,1.428.051,3.072v2.3c-.038.632-.2.961-.468.974Z" fill="#7b858f"/>
        <path id="Path_1193" data-name="Path 1193" d="M1255.242,2119c-.252,0-.4-.165-.442-.481q-.038-.72-.038-2.958c0-1.453.013-2.427.038-2.894.037-.316.19-.481.442-.481h.089c.265,0,.4.038.442.114l.05.127.076-.026a1.306,1.306,0,0,1,.683-.177l.215.013c.291,0,.442.088.442.253a1.349,1.349,0,0,1-.126.531c-.089.189-.139.278-.177.278l-.392-.076c-.518,0-.771.278-.771.822v4.234c-.051.48-.215.721-.506.721Z" fill="#7b858f"/>
        <path id="Path_1194" data-name="Path 1194" d="M1261.348,2117.27a1.812,1.812,0,0,1-1.846,1.845,1.856,1.856,0,0,1-1.833-1.845v-3.223a1.858,1.858,0,0,1,1.833-1.846,1.814,1.814,0,0,1,1.846,1.846v.973a.512.512,0,0,1-.43.5,4.188,4.188,0,0,1-.885.064,3.528,3.528,0,0,0-.9.076.57.57,0,0,0-.43.568v1.037a.783.783,0,0,0,.24.581.746.746,0,0,0,.556.241.791.791,0,0,0,.6-.241.745.745,0,0,0,.24-.581v-.1c0-.051.038-.076.126-.089h.758c.089.013.127.038.127.089Zm-1.011-3.223a.784.784,0,0,0-.24-.582.794.794,0,0,0-.6-.24.749.749,0,0,0-.556.24.783.783,0,0,0-.24.582v.252a.256.256,0,0,0,.253.266h1.15a.244.244,0,0,0,.228-.266Z" fill="#7b858f"/>
      </g>
    </g>
  </g>
</svg>
