<svg xmlns="http://www.w3.org/2000/svg" width="165" height="73" viewBox="0 0 165 73">
  <g id="BALPARMAK_LOGO" data-name="BALPARMAK LOGO" transform="translate(20731.999 3062)">
    <g id="Group_828" data-name="Group 828" transform="translate(-21529.016 -5036.817)">
      <path id="Path_776" data-name="Path 776" d="M931.947,1994.713h-.662v-.864h.7c.3,0,.61.046.61.427C932.592,1994.679,932.258,1994.713,931.947,1994.713Zm.582,1.36h.357l-.737-1.123c.432-.012.766-.19.766-.668,0-.4-.219-.646-.864-.646h-1.066v2.437h.3v-1.123h.547Zm-.732-3.111a1.9,1.9,0,1,1-1.843,1.89A1.822,1.822,0,0,1,931.8,1992.962Zm0-.288a2.184,2.184,0,1,0,2.178,2.178A2.187,2.187,0,0,0,931.8,1992.674Z" fill="#7b858f" fill-rule="evenodd"/>
      <path id="Path_777" data-name="Path 777" d="M808.886,1994.646c-.474,2.005-1.978,8.007-3.373,13.547,1.113-2.1,2.964-4.227,4.867-4.2,2.907.047,3.665,3.783,3.546,5.726a15.48,15.48,0,0,1-2.18,7.186c-.864,1.511-3.559,4.3-6.137,4.3-1.524,0-2.757-1.793-2.34-4.828l.025-.182-.694,2.744a2.149,2.149,0,0,1-1.917,1.785h-3.668a2.178,2.178,0,0,0,1.813-1.18c.886-3.384,4.835-19.227,5.689-22.9.209-1.064.517-1.507-.082-2.252-.555-.7-2.287-.79-2.366-.826a25.471,25.471,0,0,0,6.693-1.6C809.535,1991.99,809.056,1993.815,808.886,1994.646Zm.675,17.286a20.361,20.361,0,0,0,.651-4.043c.108-1.752-.332-2.422-1.119-2.447-1.526-.047-3.615,3.5-4.139,5.506-.273,1.046-.834,3.5-1.07,4.63-.394,1.879.042,4.432,1.221,4.469.679.022,1.787-.444,2.908-3.246A31.178,31.178,0,0,0,809.561,2011.932Zm58.713,1.808.3-1.207c.63-2.552,1.357-5.489,1.558-6.349.349-1.311-.5-1.713-.5-1.713h4.539l-.822,3.4,0,.109a15.339,15.339,0,0,1,2.084-2.831,4.876,4.876,0,0,1,3.269-1.617c1.747,0,2.858,1.662,2.6,4.227a6.622,6.622,0,0,1-5.136,5.983,2.129,2.129,0,0,1-2.1-.478c-.17-.2.393-.917.393-.917a1.371,1.371,0,0,0,1.355,1.092c.656.024,1.693-.819,2.228-4.151.393-2.446.4-3.8-.818-3.81a3.206,3.206,0,0,0-2.4,1.364,10.076,10.076,0,0,0-1.984,3.964l-1.949,8.007a1.415,1.415,0,0,0,.874,1.923h-5.013l1.025-4.125-.051.084c-.19.353-.539.887-.729,1.179-1.231,1.885-3.221,3.419-4.513,3.342-2.229-.131-2.653-2.693-2.172-4.572l.208-.828c-1.082,2.392-3.559,5.336-5.575,5.336-2.919,0-3.266-3.808-3.062-5.753a16.82,16.82,0,0,1,2.288-7.218c.867-1.518,3.175-4.223,5.763-4.223,1.383,0,2.37,1.58,2.344,3.954l.877-3.439,4.521,0a2.418,2.418,0,0,0-1.274,1.713c-.9,3.583-2.167,8.784-2.953,12.019-.16.657-.449,1.66.3,1.66.641,0,3.121-2.228,3.863-4.151a9.153,9.153,0,0,0,.65-1.914Zm-11.917-.514a36.927,36.927,0,0,0-.752,4.061c-.213,1.584-.165,2.458.625,2.458,1.36,0,3.828-3.511,4.354-5.53.274-1.051.765-3.184,1.071-4.429.46-1.873-.039-4.674-1.223-4.713-.681-.022-1.4.447-2.52,3.262A31.327,31.327,0,0,0,856.357,2013.226Zm-10.255-8.611c-1.6.118-2.66,1.748-2.957,3.052-.416,1.822-1.252,5.258-2.15,8.9-.178.746-.717,2.958-1.174,4.824,4.084-.676,4.957-3.2,5.988-6.213a30.536,30.536,0,0,0,1.687-7.209C847.725,2005.791,847.212,2004.71,846.1,2004.615Zm-6.977,19.611c-1.529,6.074-6.779,9.272-13.027,9.272-7.6,0-10.48-3.723-11.453-5.308a3.092,3.092,0,0,1-.5-2c.153-.961.907-1.486,1.606-2.1a3.424,3.424,0,0,0,.195,2.709c.57,1.242,3.3,5.922,10.414,5.922,3.932,0,7.153-1.222,8.376-6.552.141-.615.568-2.251,1.07-4.392a7.158,7.158,0,0,1-5.248-6.138c-1.158,2.905-3.605,5.571-5.265,5.571-2.233,0-2.84-2.6-2.272-4.567.043-.151.109-.414.28-.988-1.032,2.411-3.573,5.49-5.632,5.49-2.907,0-3.254-3.791-3.05-5.727a16.729,16.729,0,0,1,2.279-7.185c.863-1.511,3.13-4.282,5.708-4.282,1.313,0,2.391,1.579,2.4,3.889l.879-3.387,4.5.013a2.47,2.47,0,0,0-1.313,1.735c-.786,3.19-2,8.258-2.83,11.732-.1.433-.624,1.922.209,1.922.9,0,3.713-3.189,4.216-6.2,0,0,1.748-7.253,3.016-12.234,1.295-5.094,5.657-11.6,16.143-11.6,3.452,0,6.03,1.2,7.122,2.383a3.156,3.156,0,0,1,1,2.49c-.153.961-.907,1.486-1.606,2.1a3.121,3.121,0,0,0-.195-2.709c-.545-1.251-2.342-3.486-6.578-3.486-3.932,0-9.723.952-12.169,11.482-.883,3.8-3.258,12.927-3.671,14.681-.619,2.631.744,4.038,2.19,4.566.742-2.928,2.019-8.079,2.78-11.033.975-3.784,3.343-6.273,6.935-6.494.055-.009.215-.013.353-.016.22-.005.437,0,.565.01,3.345.351,4.694,2.926,4.666,5.783a12.181,12.181,0,0,1-11.532,12.4C839.408,2023.08,839.187,2023.981,839.125,2024.226Zm-20.044-10.967a36.813,36.813,0,0,0-.75,4.043c-.212,1.577-.142,2.446.646,2.446,1.355,0,3.79-3.494,4.315-5.505.272-1.045.775-3.081,1.1-4.545.455-2.032-.175-4.587-1.223-4.609-.679-.014-1.423.5-2.543,3.3A31.166,31.166,0,0,0,819.081,2013.259Zm88.75.053a37.134,37.134,0,0,0-.752,4.076c-.213,1.59-.049,2.36.65,2.382,1.332.041,3.8-3.439,4.324-5.466.274-1.054.825-3.529,1.074-4.668.435-1.991.02-4.482-1.226-4.569-.59-.041-1.4.509-2.517,3.335A31.452,31.452,0,0,0,907.831,2013.312Zm-5.708-3.417s-.775,3.218-1.4,5.8l-.495,2.046-.12.468c-.16.658-.35,1.66.4,1.66.5,0,1.946-1.454,2.9-3.011,0-.762.063-1.52.076-2.179l0-.059a16.861,16.861,0,0,1,2.156-6.425c.865-1.524,3.27-4.239,5.855-4.239,1.314,0,2.26,1.59,2.276,3.889l.874-3.365,4.519-.009a2.506,2.506,0,0,0-1.273,1.723c-.918,3.495-2.228,8.78-3.015,12.015-.16.658-.349,1.66.4,1.66.476,0,1.789-1.3,2.736-2.753.307-.5.736-1.276,1.074-1.9.227-.685.69-2.229.928-3.174.216-.94,3.234-13.02,3.78-15.292.209-1.064.748-1.567.149-2.311-.555-.7-2.286-.791-2.366-.827A24.634,24.634,0,0,0,928.18,1992c.773.01.246,1.771.076,2.6-.595,2.451-2.164,8.6-3.553,14.222,1.518-2.422,4.493-5.253,7.372-5.212,2.987.042,3.121,3.326,1.263,5.9-1.136,1.574-4.375,3.049-7.215,3.049a7.069,7.069,0,0,1,4.218,2.4c1.355,1.747,2.671,3.865,3.539,4.978,3.261,4.183,4.949,3.672,5.916,2.993a3.65,3.65,0,0,0,1.4-4.282,2.664,2.664,0,0,0-1.365-1.813,1.929,1.929,0,0,1,2.612,1.7c.276,1.292-.753,3.865-2.569,4.981-4.62,2.84-8.48-.319-10.21-2.8-1.768-2.532-2.662-4.1-4.363-6.6a3.356,3.356,0,0,0-1.6-1.352c-.808,3.058-1.047,4.375-1.507,6.095a1.374,1.374,0,0,0,.939,1.857l-5.046-.022,1.028-4.107.1-.476c-.136.238-.277.473-.463.821s-.464.71-.666,1.028c-1.2,1.751-2.78,3.322-4.062,3.246-2.23-.132-2.687-2.675-2.206-4.553l.2-.787c-1.125,2.362-3.5,5.287-5.462,5.287-1.862,0-2.778-1.575-3.081-3.211-.007-.066-.014-.132-.019-.2l-.118.176c-1.2,1.769-2.795,3.362-4.086,3.286a2.554,2.554,0,0,1-2.337-1.746,6.683,6.683,0,0,1-.015-3.769c.541-2.268,2-8.236,2-8.236.126-.526.262-1.889-.679-2.107a2.832,2.832,0,0,0-2.2,1.136,7.292,7.292,0,0,0-2,3.8c-.279,1.2-2.709,10.431-2.709,10.431h-3.865s2.4-9.12,3.408-13.315c.126-.525.073-1.835-.868-2.053-.511-.119-1.367.338-2.2,1.136a7.122,7.122,0,0,0-2.1,3.8c-.437,1.879-2.59,10.431-2.59,10.431H878.14a2.633,2.633,0,0,0,1.64-2.084c.142-.62,2.577-10.227,3.086-12.41a1.429,1.429,0,0,0-.687-1.769h4.647l-.708,3.2a8.978,8.978,0,0,1,1.075-1.463c1.005-1.049,2.853-2.336,4.448-2.227,1.616.111,2.684,1.518,2.7,3.782a11.932,11.932,0,0,1,1.382-1.915,5.362,5.362,0,0,1,4.055-1.867C901.851,2004.118,902.909,2006.422,902.123,2009.9Zm21.654,2.478c4.664-.03,6.593-2.437,7.156-4.259.742-2.4-1.91-2.522-3.528-1.18a10.846,10.846,0,0,0-3.253,3.916Z" fill="#7b858f"/>
    </g>
    <rect id="Rectangle_580" data-name="Rectangle 580" width="165" height="73" transform="translate(-20732 -3062)" fill="none"/>
  </g>
</svg>
