<svg xmlns="http://www.w3.org/2000/svg" width="165" height="73" viewBox="0 0 165 73">
  <g id="BORUSAN_LOGO" data-name="BORUSAN LOGO" transform="translate(21090 2840)">
    <g id="Group_852" data-name="Group 852" transform="translate(-21526.67 -4996.393)">
      <path id="Path_1017" data-name="Path 1017" d="M436.67,2184.192l10.324,10.336,1.96-1.977-12.28-12.28,2.127-2.127,12.294,12.295,2.12-2.138-12.3-12.281,2.135-2.148,12.3,12.3,1.958-1.964L447,2173.889h12.6v17.19a5.532,5.532,0,0,1-1.727,4.014,6.407,6.407,0,0,1-4.334,1.729H436.67Z" fill="#7b858f"/>
      <g id="Group_851" data-name="Group 851">
        <g id="Group_850" data-name="Group 850">
          <path id="Path_1018" data-name="Path 1018" d="M493.79,2190.791a8.286,8.286,0,1,1,6.505-2.525A8.551,8.551,0,0,1,493.79,2190.791Zm0-13.656a3.687,3.687,0,0,0-3.2,1.543,6.6,6.6,0,0,0,0,6.828,4.094,4.094,0,0,0,6.406,0,6.61,6.61,0,0,0,0-6.828A3.689,3.689,0,0,0,493.79,2177.135Z" fill="#7b858f" fill-rule="evenodd"/>
          <path id="Path_1019" data-name="Path 1019" d="M508.452,2190.45h-4.459v-16.558h8.928a7.777,7.777,0,0,1,4.268,1.067,4.029,4.029,0,0,1,1.936,3.595,4.519,4.519,0,0,1-.7,2.481,4.015,4.015,0,0,1-2.084,1.67v.046q2.281.51,2.581,3.966.074.951.173,1.9a3.274,3.274,0,0,0,.571,1.831h-4.619a7.15,7.15,0,0,1-.468-2.643,6.049,6.049,0,0,0-.521-2.319,2.193,2.193,0,0,0-2.06-1.067h-3.551Zm3.725-13.1h-3.725v3.733h3.923q2.134,0,2.134-1.948Q514.509,2177.348,512.177,2177.348Z" fill="#7b858f" fill-rule="evenodd"/>
          <path id="Path_1020" data-name="Path 1020" d="M560.083,2178.483h-.05l-2.01,5.8h4.02Zm-4.244,11.967H551.1l6.625-16.559h4.69l6.626,16.559h-4.814l-1.092-2.968h-6.18Z" fill="#7b858f" fill-rule="evenodd"/>
          <path id="Path_1021" data-name="Path 1021" d="M545.879,2177.218a3.24,3.24,0,0,0-.775-.265,3.641,3.641,0,0,0-.967-.1c-1.459-.025-2.133.422-2.148,1.282-.008.475.458.9,1.514,1.258q1.727.441,3.451.905a9.983,9.983,0,0,1,3.47,1.561,3.933,3.933,0,0,1,1.561,3.312,4.7,4.7,0,0,1-2.483,4.3,10.352,10.352,0,0,1-10.754-.351,4.327,4.327,0,0,1-1.783-2.223l-.028-.074,3.919-1.327.032.048a3.583,3.583,0,0,0,2.334,1.677,6.425,6.425,0,0,0,1.317.146c.044,0,.088,0,.132,0a3.974,3.974,0,0,0,1.748-.508,1.426,1.426,0,0,0,.862-1.27c.03-.572-.406-1.134-1.483-1.436q-1.7-.465-3.43-.953a10.292,10.292,0,0,1-3.494-1.56,3.911,3.911,0,0,1-1.585-3.313,4.284,4.284,0,0,1,2.426-3.842,9.5,9.5,0,0,1,4.847-1.069,8.6,8.6,0,0,1,4.808,1.355,4.621,4.621,0,0,1,1.513,1.589l.04.07-3.621,1.784-.036-.054A3.038,3.038,0,0,0,545.879,2177.218Z" fill="#7b858f"/>
          <path id="Path_1022" data-name="Path 1022" d="M531.4,2173.813h4.616v9.8q0,3.642-1.836,5.405-1.911,1.785-5.882,1.786t-5.857-1.763q-1.861-1.785-1.862-5.428v-9.8h4.617v10.059q0,3.223,3.1,3.224t3.1-3.224Z" fill="#7b858f" fill-rule="evenodd"/>
          <path id="Path_1023" data-name="Path 1023" d="M574.384,2190.45H570.04v-16.562h4.74l6.156,10.207h.049v-10.207h4.344v16.562h-4.741l-6.156-10.322h-.049Z" fill="#7b858f" fill-rule="evenodd"/>
          <path id="Path_1024" data-name="Path 1024" d="M476.933,2183.192h-3.7v3.8h3.7q2.482,0,2.482-1.855Q479.415,2183.192,476.933,2183.192Zm.2,7.258H468.62v-16.558h8.288q6.4,0,6.4,4.151a3.537,3.537,0,0,1-2.332,3.34,3.953,3.953,0,0,1,3.053,3.919Q484.031,2190.45,477.132,2190.45Zm-.323-13.218h-3.573v3.177h3.573a2.184,2.184,0,0,0,1.241-.348,1.372,1.372,0,0,0,.645-1.229Q478.7,2177.231,476.809,2177.232Z" fill="#7b858f" fill-rule="evenodd"/>
        </g>
        <path id="Path_1025" data-name="Path 1025" d="M480.595,2213.307v-3.692h-7.683v-12.782H468.62v16.473Z" fill="#7b858f" fill-rule="evenodd"/>
        <path id="Path_1026" data-name="Path 1026" d="M510.354,2208.093v-11.259h-4.291v10.982c0,1.592-.554,2.146-1.546,2.146a1.514,1.514,0,0,1-1.661-1.684v-1.523h-4.038v.715c0,3.668,1.408,6.183,5.768,6.183C508.462,2213.653,510.354,2211.785,510.354,2208.093Z" fill="#7b858f" fill-rule="evenodd"/>
        <path id="Path_1027" data-name="Path 1027" d="M547.1,2200.525v-3.691h-14.12v3.691h4.915v12.782h4.291v-12.782Z" fill="#7b858f" fill-rule="evenodd"/>
        <path id="Path_1028" data-name="Path 1028" d="M571.022,2213.307l-6.852-9.99,6.091-6.483h-5.33l-5.422,6.322v-6.322h-4.292v16.473h4.292v-5.076l1.753-1.846,4.43,6.922Z" fill="#7b858f" fill-rule="evenodd"/>
        <path id="Path_1029" data-name="Path 1029" d="M517.169,2195.546v-2.883h-4.315v2.883Zm0,17.759v-16.468h-4.289V2213.3Z" fill="#7b858f" fill-rule="evenodd"/>
        <path id="Path_1030" data-name="Path 1030" d="M552.8,2195.546v-2.883h-4.316v2.883Zm0,17.764v-16.472H548.5v16.472Z" fill="#7b858f" fill-rule="evenodd"/>
        <path id="Path_1031" data-name="Path 1031" d="M489.24,2213.653a8.285,8.285,0,1,1,6.506-2.525A8.552,8.552,0,0,1,489.24,2213.653Zm0-13.656a3.689,3.689,0,0,0-3.2,1.543,6.6,6.6,0,0,0,0,6.828,4.094,4.094,0,0,0,6.406,0,6.6,6.6,0,0,0,0-6.828A3.688,3.688,0,0,0,489.24,2200Z" fill="#7b858f" fill-rule="evenodd"/>
        <path id="Path_1032" data-name="Path 1032" d="M527.17,2200.068a3.3,3.3,0,0,0-.775-.264,3.655,3.655,0,0,0-.968-.1c-1.459-.025-2.132.422-2.147,1.282-.008.474.458.9,1.514,1.258q1.725.441,3.45.905a9.99,9.99,0,0,1,3.471,1.561,3.926,3.926,0,0,1,1.56,3.312,4.7,4.7,0,0,1-2.482,4.3,10.351,10.351,0,0,1-10.754-.351,4.333,4.333,0,0,1-1.784-2.224l-.027-.073,3.919-1.327.032.048a3.585,3.585,0,0,0,2.334,1.677,6.375,6.375,0,0,0,1.317.146c.044,0,.088,0,.131,0a4,4,0,0,0,1.749-.508,1.425,1.425,0,0,0,.861-1.27c.031-.572-.4-1.135-1.482-1.437q-1.7-.464-3.43-.952a10.3,10.3,0,0,1-3.494-1.56,3.908,3.908,0,0,1-1.585-3.313,4.284,4.284,0,0,1,2.426-3.842,9.5,9.5,0,0,1,4.846-1.069,8.608,8.608,0,0,1,4.809,1.354,4.646,4.646,0,0,1,1.513,1.59l.039.07-3.619,1.784-.038-.054A3.04,3.04,0,0,0,527.17,2200.068Z" fill="#7b858f"/>
      </g>
    </g>
    <rect id="Rectangle_588" data-name="Rectangle 588" width="165" height="73" transform="translate(-21090 -2840)" fill="none"/>
  </g>
</svg>
