<svg xmlns="http://www.w3.org/2000/svg" width="165" height="73" viewBox="0 0 165 73">
  <g id="CINE_LOGO" data-name="CINE LOGO" transform="translate(20732 2840)">
    <path id="Path_1063" data-name="Path 1063" d="M815.728,2180.61a5.666,5.666,0,0,0-5.769,4.6l-2.8,15.8a4.55,4.55,0,0,0,.867,3.457,4.145,4.145,0,0,0,3.23,1.181h.136l110.591-1.869c1.754-.029,5.2-1.072,5.71-4.809l1.477-10.918a4.886,4.886,0,0,0-1.005-3.519,4.5,4.5,0,0,0-3.395-1.326l-108.928-2.6Zm-4.309,26.812h-.169a5.935,5.935,0,0,1-4.632-1.8,6.156,6.156,0,0,1-1.288-4.9l2.806-15.8c.85-4.8,5.172-6.075,7.592-6.075h.156l109.127.206a8.453,8.453,0,0,1,8.739,9.685l-1.476,10.917c-.9,6.643-6.989,8.5-10.084,8.549Zm9.6-19.279a14.459,14.459,0,0,0-.533,1.664c-1.843-.4-3.391-.777-4.592.2a4.144,4.144,0,0,0-1.2,2.462c-.291,1.333-.775,2.913-.266,4.06.658,1.487,3.183.979,4.724.532,0,.6.112,1.086.067,1.73-3.551,1.047-7.229.567-6.921-3.726.246-3.433,1.558-7.047,5.177-7.386A9.959,9.959,0,0,1,821.024,2188.143Zm87.795,10.985,1.143-7.764a4.362,4.362,0,0,1,1.389-2.407,4.757,4.757,0,0,1,3.025-1.074,4.7,4.7,0,0,1,2.352.526,2.993,2.993,0,0,1,.679.514,3.358,3.358,0,0,1,1-.607,4.817,4.817,0,0,1,2.2-.44,3.887,3.887,0,0,1,2.519.781,2.323,2.323,0,0,1,.751,1.447,4.91,4.91,0,0,1-.026,1.334l-1.116,7.69H919.9s.991-6.8,1.044-7.2a2.6,2.6,0,0,0-.106-1.574,1.315,1.315,0,0,0-1.137-.427c-.373.027-1.144.141-1.349,1.375s-1.177,7.823-1.177,7.823h-2.825s1.037-7.07,1.083-7.443.114-1.254-.385-1.575a1.418,1.418,0,0,0-1.762.261,2.835,2.835,0,0,0-.571,1.527c-.127.774-1.057,7.23-1.057,7.23Zm-8.369-10.9h2.819s-1.044,7.15-1.124,7.683-.027,1.375.466,1.615a1.717,1.717,0,0,0,1.621-.095,2.224,2.224,0,0,0,.811-1.52c.173-.933,1.157-7.7,1.157-7.7h2.779s-.945,6.59-1.051,7.391a4.638,4.638,0,0,1-1.343,2.828c-.85.68-1.767,1.027-3.988,1.027s-3.084-1.334-3.217-2.2a9.132,9.132,0,0,1,.146-2.869C899.713,2193.219,900.45,2188.23,900.45,2188.23Zm-16.943,10.9,1.144-7.764a4.356,4.356,0,0,1,1.389-2.407,4.756,4.756,0,0,1,3.024-1.074,4.7,4.7,0,0,1,2.353.526,3,3,0,0,1,.678.514,3.357,3.357,0,0,1,1-.607,4.815,4.815,0,0,1,2.2-.44,3.893,3.893,0,0,1,2.521.781,2.342,2.342,0,0,1,.75,1.447,4.957,4.957,0,0,1-.026,1.334l-1.117,7.69h-2.839s.991-6.8,1.044-7.2a2.588,2.588,0,0,0-.106-1.574,1.315,1.315,0,0,0-1.137-.427c-.372.027-1.143.141-1.349,1.375s-1.176,7.823-1.176,7.823h-2.826s1.037-7.07,1.084-7.443.113-1.254-.386-1.575a1.417,1.417,0,0,0-1.761.261,2.843,2.843,0,0,0-.572,1.527c-.126.774-1.057,7.23-1.057,7.23Zm-13.825-1.374s3.3-4.549,3.37-4.649a.6.6,0,0,0-.006-.52c-.094-.173-2.1-3.615-2.2-3.808a1.861,1.861,0,0,1-.046-1.335,1.2,1.2,0,0,1,.863-1.02c.214-.033.42.047.665.427s2.26,3.408,2.347,3.542.226.173.338.013,4.208-5.823,4.408-6.1a2.273,2.273,0,0,1,1.19-.894,1.469,1.469,0,0,1,1.189.24,1.526,1.526,0,0,1,.571,1.327,3.26,3.26,0,0,1-.837,1.628c-.479.607-4.792,5.876-4.906,6a.612.612,0,0,0-.093.494,2.862,2.862,0,0,0,.4.674l2.693,4.015,1.382-9.578h2.686l-1.59,10.919h-1.568l1.39,2.073-2.739,2.182-4.507-7.884c-.066-.113-.166-.273-.385.007s-3.669,4.555-3.669,4.555Zm4.122-12.072c.24-1.15,1.1-2.081,1.916-2.081s1.285.931,1.045,2.081-1.1,2.081-1.917,2.081S873.564,2186.832,873.8,2185.682Zm-4.774,3.1a2.728,2.728,0,0,1,.825,2.654c-.107.76-.918,6.283-.918,6.283l-.718.56a7.107,7.107,0,0,1-3.589,1.148c-1.476.133-3.377-.254-4.094-1.881a3.54,3.54,0,0,1,1.7-4.709,12.691,12.691,0,0,1,5-.961s.226-.907-.267-1.347c-.547-.49-1.116-.333-2.352-.133a13.242,13.242,0,0,0-2.619.794l.319-2.262a7.334,7.334,0,0,1,2.938-.92C867.356,2187.683,868.1,2188.083,869.03,2188.777Zm-2.047,4.948s-.625.041-1.076.081a7.194,7.194,0,0,0-2.035.44,1.779,1.779,0,0,0-1.236,1.747,1.464,1.464,0,0,0,1.569,1.494,4.167,4.167,0,0,0,2.313-.693Zm-22.294,5.4,1.144-7.764a4.362,4.362,0,0,1,1.389-2.407,4.756,4.756,0,0,1,3.024-1.074,4.7,4.7,0,0,1,2.353.526,3,3,0,0,1,.678.514,3.357,3.357,0,0,1,1-.607,4.816,4.816,0,0,1,2.2-.44,3.887,3.887,0,0,1,2.519.781,2.333,2.333,0,0,1,.751,1.447,4.907,4.907,0,0,1-.026,1.334l-1.117,7.69H855.77s.99-6.8,1.044-7.2a2.6,2.6,0,0,0-.107-1.574,1.314,1.314,0,0,0-1.137-.427c-.372.027-1.143.141-1.349,1.375s-1.177,7.823-1.177,7.823H850.22s1.037-7.07,1.083-7.443.113-1.254-.385-1.575a1.418,1.418,0,0,0-1.762.261,2.843,2.843,0,0,0-.572,1.527c-.126.774-1.057,7.23-1.057,7.23ZM824.3,2186.672a1.08,1.08,0,1,1,1.08-1.08A1.08,1.08,0,0,1,824.3,2186.672Zm5.921,1c2.487-.243,4.829,1.468,4.55,4.067-.046.732-.145,1.272-.246,2.018l-.709,5.3h-1.906s0,0,.69-5.225c.112-.863.225-1.479.289-2.372.229-2.138-4.081-3-4.571.066-.15.944-.14,1.067-.318,2.188l-.715,5.343h-1.906s0,0,.691-5.228C826.531,2190.233,827.075,2188.044,830.223,2187.669Zm-5.273.388-1.548,11H821.5l1.563-11Zm17.629,2.881c.21-1.966-2.47-1.764-3.393-.865a4.6,4.6,0,0,0-1.065,2.728C839.949,2192.624,842.405,2192.58,842.579,2190.938Zm.8-2.662a3.064,3.064,0,0,1,.466,4.259c-1.127,1.229-3.7,1.581-5.989,1.73-1.224,3.592,2.665,3.7,4.991,2.729.024.6.082,1.16.133,1.73-3.716,1.312-7.5.387-7.187-3.726.261-3.439,1.48-6.979,4.791-7.32A4.344,4.344,0,0,1,843.378,2188.276Z" transform="translate(-21537.25 -4996.844)" fill="#7b858f"/>
    <rect id="Rectangle_590" data-name="Rectangle 590" width="165" height="73" transform="translate(-20732 -2840)" fill="none"/>
  </g>
</svg>
