<svg xmlns="http://www.w3.org/2000/svg" width="165" height="73" viewBox="0 0 165 73">
  <g id="ELECTRON_LOGO" data-name="ELECTRON LOGO" transform="translate(20182 3060)">
    <g id="Group_863" data-name="Group 863" transform="translate(-21508.031 -5034.301)">
      <rect id="Rectangle_594" data-name="Rectangle 594" width="165" height="73" transform="translate(1326.031 1974.301)" fill="none"/>
    </g>
    <g id="Group_883" data-name="Group 883" transform="translate(-21525.027 -5034.225)">
      <g id="Group_882" data-name="Group 882">
        <path id="Path_1234" data-name="Path 1234" d="M1394.485,2018H1389.6l3.665-13.676h4.886Z" fill="#7b858f"/>
        <path id="Path_1235" data-name="Path 1235" d="M1410.939,2013.356h-8.409l-.219.824a2.746,2.746,0,0,0-.114.719q0,.909.963.91a1.591,1.591,0,0,0,1.642-1.346h5.688q-1.861,3.636-7.94,3.636-6,0-6-3.56a5.588,5.588,0,0,1,.219-1.46l.229-.887q1.345-5.021,8.475-5.02,6.014,0,6.013,3.531a5.565,5.565,0,0,1-.229,1.5Zm-5.316-1.9.1-.382a2.726,2.726,0,0,0,.1-.7q.019-.935-.954-.935-1.29,0-1.728,1.632l-.1.382Z" fill="#7b858f"/>
        <path id="Path_1236" data-name="Path 1236" d="M1425.655,2014.177q-1.785,3.922-8.084,3.922-5.992,0-6-3.55a5.54,5.54,0,0,1,.219-1.47l.229-.887q1.345-5.021,8.475-5.02,6,0,6,3.54c0,.121,0,.242-.01.363h-5.745a2.9,2.9,0,0,0,.1-.712q0-.9-.964-.9-1.289,0-1.718,1.623l-.83,3.1a2.709,2.709,0,0,0-.115.707q0,.915.964.916,1.289,0,1.727-1.632Z" fill="#7b858f"/>
        <path id="Path_1237" data-name="Path 1237" d="M1437.136,2010.2h-2.386l-2.09,7.807h-4.887l2.09-7.807h-2.385l.792-2.93h2.386l.782-2.939h4.887l-.783,2.939h2.386Z" fill="#7b858f"/>
        <path id="Path_1238" data-name="Path 1238" d="M1447.414,2009.634a13.359,13.359,0,0,0-2.271-.191q-1.957,0-2.577,2.3l-1.68,6.261H1436l2.882-10.737h4.886l-.095.363a7.18,7.18,0,0,1,2.539-.458q1.317,0,1.851.038Z" fill="#7b858f"/>
        <path id="Path_1239" data-name="Path 1239" d="M1461.011,2013.07q-1.345,5.03-8.475,5.029-6.04,0-6-3.6a5.783,5.783,0,0,1,.219-1.431l.229-.878q1.345-5.021,8.475-5.02,6,0,6,3.559a5.477,5.477,0,0,1-.22,1.461Zm-6.136,1.116.83-3.1a2.916,2.916,0,0,0,.105-.707q0-.915-.964-.916-1.288,0-1.718,1.623l-.83,3.1a2.714,2.714,0,0,0-.115.707q0,.915.964.916Q1454.435,2015.809,1454.875,2014.186Z" fill="#7b858f"/>
        <path id="Path_1240" data-name="Path 1240" d="M1472.988,2018H1468.1l1.861-6.939a3.313,3.313,0,0,0,.114-.706q0-.915-.963-.916-1.289,0-1.728,1.632l-1.861,6.929h-4.886l2.882-10.737h4.886l-.095.363a8.626,8.626,0,0,1,3.121-.458q3.54,0,3.541,2.739a6.067,6.067,0,0,1-.249,1.6Z" fill="#7b858f"/>
        <rect id="Rectangle_611" data-name="Rectangle 611" width="13.648" height="3.412" transform="translate(1349.354 2004.343)" fill="#7b858f"/>
        <rect id="Rectangle_612" data-name="Rectangle 612" width="3.412" height="13.648" transform="translate(1354.472 1999.225)" fill="#7b858f"/>
        <rect id="Rectangle_613" data-name="Rectangle 613" width="13.648" height="3.412" transform="translate(1354.472 2014.577)" fill="#7b858f"/>
        <rect id="Rectangle_614" data-name="Rectangle 614" width="3.412" height="13.648" transform="translate(1359.59 2009.459)" fill="#7b858f"/>
        <path id="Path_1241" data-name="Path 1241" d="M1374.521,2009.461h-9.835v3.412h8.921Z" fill="#7b858f"/>
        <path id="Path_1242" data-name="Path 1242" d="M1343.941,2009.461l-.914,3.412h9.74v-3.412Z" fill="#7b858f"/>
        <path id="Path_1243" data-name="Path 1243" d="M1388.454,2018h-12.579l3.665-13.676h12.579l-.783,2.939H1384.6l-.658,2.434h5.783l-.782,2.93h-5.784l-.649,2.443h6.738Z" fill="#7b858f"/>
      </g>
    </g>
  </g>
</svg>
