<svg xmlns="http://www.w3.org/2000/svg" width="165" height="73" viewBox="0 0 165 73">
  <g id="ETI_SODA_LOGO" data-name="ETI SODA LOGO" transform="translate(21472 2939)">
    <g id="Group_830" data-name="Group 830" transform="translate(-21566.094 -5004.685)">
      <path id="Path_778" data-name="Path 778" d="M94.093,2099.482h12.66v3H97.69v3.978h8.365v3H97.69v4.507h9.469v3H94.093Z" fill="#7b858f"/>
      <path id="Path_779" data-name="Path 779" d="M108.526,2099.482h14v3h-5.1v14.481h-3.6v-14.481h-5.3Z" fill="#7b858f"/>
      <path id="Path_780" data-name="Path 780" d="M127.945,2116.96h-3.6v-17.478h3.6Zm-3.115-22.726h2.632v2.924H124.83Z" fill="#7b858f"/>
      <path id="Path_781" data-name="Path 781" d="M150.768,2104.8h-3.381a2.246,2.246,0,0,0-.865-1.894,4.165,4.165,0,0,0-2.732-.862c-2-.033-3.053.641-3.164,2.012a1.69,1.69,0,0,0,.215,1.2,2.017,2.017,0,0,0,.89.553q.333.36,4.384,1.078a7.593,7.593,0,0,1,4.111,1.7,4.24,4.24,0,0,1,1.139,3.092,6.136,6.136,0,0,1-.61,2.674,4.516,4.516,0,0,1-1.617,1.927,10.713,10.713,0,0,1-5.469,1.224,7.444,7.444,0,0,1-1.988-.262,6.392,6.392,0,0,1-2.3-.962,5.807,5.807,0,0,1-2.445-4.5h3.5a2.51,2.51,0,0,0,.742,1.8,4.167,4.167,0,0,0,3.285,1.029,4.111,4.111,0,0,0,2.781-.816,2.083,2.083,0,0,0,.075-2.949,6.171,6.171,0,0,0-3.024-1.148q-3.235-.6-3.835-.814a4.162,4.162,0,0,1-3.188-4.173c0-.225.007-.449.023-.672a4.846,4.846,0,0,1,1.8-3.474,7.429,7.429,0,0,1,4.771-1.367q4.147,0,5.9,2.229a4.694,4.694,0,0,1,1.055,2.97,1.51,1.51,0,0,1-.047.41" fill="#7b858f"/>
      <path id="Path_782" data-name="Path 782" d="M169.944,2108.353a11.074,11.074,0,0,1-.683,3.848,8.778,8.778,0,0,1-1.907,3.128,8.868,8.868,0,0,1-11.649,0,8.786,8.786,0,0,1-1.9-3.128,11.138,11.138,0,0,1,0-7.7,8.806,8.806,0,0,1,1.9-3.127,8.868,8.868,0,0,1,11.649,0,8.8,8.8,0,0,1,1.907,3.127,11.089,11.089,0,0,1,.683,3.849m-8.413,6.017a4.543,4.543,0,0,0,3.212-1.176,7.574,7.574,0,0,0,0-9.684,4.985,4.985,0,0,0-6.425,0,7.574,7.574,0,0,0,0,9.684,4.54,4.54,0,0,0,3.213,1.176" fill="#7b858f"/>
      <path id="Path_783" data-name="Path 783" d="M172.655,2116.96v-17.478h8.126q3.619,0,5.585,4.076a8.824,8.824,0,0,1,.768,3.884,11.726,11.726,0,0,1-1.607,6.449,7.241,7.241,0,0,1-2.264,2.227,5.108,5.108,0,0,1-2.722.842Zm3.6-14.481v11.484h2.878a3.839,3.839,0,0,0,3.763-2.351,8.566,8.566,0,0,0,.623-3.715,6.869,6.869,0,0,0-.887-3.811,3.615,3.615,0,0,0-1.438-1.294,3.949,3.949,0,0,0-1.7-.313Z" fill="#7b858f"/>
      <path id="Path_784" data-name="Path 784" d="M198.975,2099.482l5.995,17.478H201.3l-1.2-3.5h-6.471l-1.227,3.5H188.74l6.09-17.478Zm-2.061,4.2-2.157,6.785h4.482Z" fill="#7b858f"/>
      <path id="Path_785" data-name="Path 785" d="M209.73,2095.22a1.916,1.916,0,0,1,1,.234,1.249,1.249,0,0,1,.526.947l.016.617v1.218l-.016.62a.887.887,0,0,1-.559.843l-.287.076v3.38h-1.906v-3.38l-.283-.076a.805.805,0,0,1-.559-.843l-.016-.62v-1.218l.006-.617a1.093,1.093,0,0,1,.525-.947,1.9,1.9,0,0,1,1.013-.234l-.35-.275a1.1,1.1,0,0,1-.355-.774.991.991,0,0,1,.286-.687.9.9,0,0,1,.687-.323.894.894,0,0,1,.671.315,1.066,1.066,0,0,1,.292.706,1.036,1.036,0,0,1-.353.763Z" fill="#7b858f" fill-rule="evenodd"/>
      <path id="Path_786" data-name="Path 786" d="M204.505,2090.085a3.113,3.113,0,0,1,1.655.383,2.059,2.059,0,0,1,.864,1.554l.032,1.02v2.013l-.032,1.02a1.458,1.458,0,0,1-.918,1.387l-.469.127v5.567h-3.143v-5.567l-.468-.127a1.331,1.331,0,0,1-.921-1.387l-.027-1.02v-2.013l.012-1.02a1.794,1.794,0,0,1,.866-1.554,3.1,3.1,0,0,1,1.669-.383l-.581-.452a1.824,1.824,0,0,1-.577-1.279,1.641,1.641,0,0,1,.465-1.132,1.5,1.5,0,0,1,1.134-.537,1.465,1.465,0,0,1,1.105.524,1.656,1.656,0,0,1-.1,2.424Z" fill="#7b858f" fill-rule="evenodd"/>
      <path id="Path_787" data-name="Path 787" d="M198.935,2089.664a1.909,1.909,0,0,1,1,.233,1.245,1.245,0,0,1,.527.944l.016.621v1.218l-.016.621a.884.884,0,0,1-.56.841l-.281.077v3.379h-1.911v-3.379l-.283-.077a.808.808,0,0,1-.561-.841l-.015-.621v-1.218l.009-.621a1.087,1.087,0,0,1,.524-.944,1.9,1.9,0,0,1,1.014-.233l-.352-.275a1.1,1.1,0,0,1-.354-.774.991.991,0,0,1,.284-.686.911.911,0,0,1,.688-.328.892.892,0,0,1,.67.316,1.065,1.065,0,0,1,.295.71,1.039,1.039,0,0,1-.356.762Z" fill="#7b858f" fill-rule="evenodd"/>
    </g>
    <rect id="Rectangle_581" data-name="Rectangle 581" width="165" height="73" transform="translate(-21472 -2939)" fill="none"/>
  </g>
</svg>
