<svg xmlns="http://www.w3.org/2000/svg" width="165" height="73" viewBox="0 0 165 73">
  <g id="HONDA_LOGO" data-name="HONDA LOGO" transform="translate(21277 2961)">
    <g id="Group_834" data-name="Group 834" transform="translate(-21575.285 -5027.083)">
      <g id="Group_832" data-name="Group 832">
        <path id="Path_788" data-name="Path 788" d="M306.345,2122.295l1.012.119c.454.056.507.435.507.681v1.2h-4.683v-1.2c0-.246.048-.625.508-.681l1.012-.119v-1.026H298.62v1.026l1.014.119c.459.056.507.435.507.681v3.941a.586.586,0,0,1-.507.677l-1.014.117v1.025H304.7v-1.025l-1.012-.117a.586.586,0,0,1-.508-.677v-1.2h4.683v1.2a.589.589,0,0,1-.507.677l-1.012.117v1.025h6.079v-1.025l-1.012-.117a.586.586,0,0,1-.508-.677v-3.941c0-.246.049-.625.508-.681l1.012-.119v-1.026h-6.079Z" fill="#7b858f"/>
        <path id="Path_789" data-name="Path 789" d="M346.906,2121.269H339.4v1.026l.9.095a.532.532,0,0,1,.532.62v4.026a.589.589,0,0,1-.508.677l-1.013.117v1.025h7.6c2.723,0,4.96-1.093,4.96-3.8S349.629,2121.269,346.906,2121.269Zm-.555,6.131-2.545.008v-4.684h2.545c1.506,0,2.015.708,2.015,2.335S347.857,2127.4,346.351,2127.4Z" fill="#7b858f"/>
        <path id="Path_790" data-name="Path 790" d="M364.649,2127.72a1.011,1.011,0,0,1-.778-.591l-3.5-5.355c-.253-.385-.437-.5-.81-.5h-5.765v1.026l1.378.158a.4.4,0,0,1,.238.642l-2.587,4.205a.728.728,0,0,1-.535.413l-1.031.117v1.025h4.866v-1.025l-.84-.088c-.355-.041-.549-.286-.374-.579l.391-.63h4.666l.347.518c.3.464-.081.65-.41.689l-.858.09v1.025h6.571v-1.025Zm-8.523-2.532,1.437-2.337,1.529,2.337Z" fill="#7b858f"/>
        <path id="Path_791" data-name="Path 791" d="M333.964,2122.295l1.018.119c.454.056.5.435.5.681v3.792l-4.015-5.3c-.178-.246-.337-.322-.768-.322h-5.218v1.026l1.018.119c.454.056.5.435.5.681v3.941a.585.585,0,0,1-.5.677l-1.018.117v1.025h4.859v-1.025l-1.017-.117a.586.586,0,0,1-.5-.677v-3.8l4.015,5.294c.183.247.338.322.768.322h3.7v-5.76c0-.246.053-.625.507-.681l1.013-.119v-1.026h-4.86Z" fill="#7b858f"/>
        <path id="Path_792" data-name="Path 792" d="M318.943,2121.01c-4.941,0-6.218,2.161-6.218,4.049s1.277,4.055,6.218,4.055,6.215-2.161,6.215-4.055S323.882,2121.01,318.943,2121.01Zm0,6.661c-1.916,0-2.714-.806-2.714-2.612s.8-2.606,2.714-2.606,2.712.806,2.712,2.606S320.857,2127.671,318.943,2127.671Z" fill="#7b858f"/>
      </g>
      <g id="Group_833" data-name="Group 833">
        <path id="Path_793" data-name="Path 793" d="M316.3,2119.853l-3.655-3.387,18.477-2.141,8.94,5.528Z" fill="#7b858f"/>
        <path id="Path_794" data-name="Path 794" d="M347.442,2105.352l-38.927,7.288,3.385,3.135,17.921-2.256a.539.539,0,0,1-.338-.513.5.5,0,0,1,.455-.483c.2-.022,9.962-1.46,10.631-1.556a6.942,6.942,0,0,0,2.007-.617,6.617,6.617,0,0,0,1.688-1.143c.232-.21,1.02-1,1.527-1.572.36-.4.616-.7.834-.941.233-.275.733-.879.933-1.152A.118.118,0,0,0,347.442,2105.352Z" fill="#7b858f"/>
        <path id="Path_795" data-name="Path 795" d="M353.531,2096.82l-48.6,12.507,2.924,2.71,14.957-2.857c-.265-.156-.394-.273-.394-.527a.5.5,0,0,1,.407-.491l24.331-4.713a6.184,6.184,0,0,0,2.008-.783,6.248,6.248,0,0,0,1.459-1.258c.318-.366.893-1.106,1.313-1.67.316-.43.581-.835.792-1.14s.743-1.177.963-1.568A.142.142,0,0,0,353.531,2096.82Z" fill="#7b858f"/>
        <path id="Path_796" data-name="Path 796" d="M347.1,2082.692c.67-.278,3.883-1.667,4.613-2,.708-.325,2.866-1.291,3.654-1.648.875-.393,3.433-1.6,3.818-1.78,1.8-.859,4.023-1.922,4.476-2.163a.179.179,0,0,1,.254.217,37.081,37.081,0,0,1-1.341,3.592,23.114,23.114,0,0,1-1.212,2.5,8.1,8.1,0,0,1-1.5,1.831,7.6,7.6,0,0,1-2.417,1.551c-.518.2-1.519.6-2.193.857-.168.058-2.875,1.076-3.43,1.257l-47.956,16.916c-1.118.389-2.428,1.138-2.428,2.593a3.177,3.177,0,0,0,1.136,2.139l12.109,11.291h-5.613a6.456,6.456,0,0,0-.487-1.131,4.836,4.836,0,0,0-.947-1.235c-.477-.486-.963-.979-1.13-1.153l-6.391-6.387a5.936,5.936,0,0,1-1.83-4.08c0-1.922,1.066-3.758,4.244-5.057Z" fill="#7b858f"/>
        <path id="Path_797" data-name="Path 797" d="M352.389,2089.121c.661-.217,1.866-.629,2.183-.744s1.563-.564,1.784-.652c.892-.34,1.732-.664,2.6-1.023a.158.158,0,0,1,.221.205c-.1.239-.658,1.423-.811,1.707-.4.732-.745,1.394-1.146,2.016-.35.547-.873,1.36-1.182,1.734a7.643,7.643,0,0,1-1.733,1.594,7.342,7.342,0,0,1-2.193.987l-35.334,9.5a.506.506,0,0,0-.372.488.56.56,0,0,0,.359.5l-12.516,3.26-1.022-.952a1.646,1.646,0,0,1-.544-1.172c0-.916.719-1.348,1.823-1.707Z" fill="#7b858f"/>
      </g>
    </g>
    <rect id="Rectangle_582" data-name="Rectangle 582" width="165" height="73" transform="translate(-21277 -2961)" fill="none"/>
  </g>
</svg>
