<svg xmlns="http://www.w3.org/2000/svg" width="165" height="73" viewBox="0 0 165 73">
  <g id="KOCTAS_LOGO" data-name="KOCTAS LOGO" transform="translate(20551 2839)">
    <rect id="Rectangle_602" data-name="Rectangle 602" width="165" height="73" transform="translate(-20551 -2839)" fill="none"/>
    <g id="Group_878" data-name="Group 878" transform="translate(-21577.563 -4996.517)">
      <path id="Path_1212" data-name="Path 1212" d="M1040.88,2206.191c-.314-.313-.721-.5-1.109-.148-.349.351-.166.758.165,1.089l4.138,4.138c.314.314.72.5,1.107.148.351-.351.165-.758-.166-1.091Z" fill="#7b858f"/>
      <path id="Path_1213" data-name="Path 1213" d="M1059.262,2194.238l1,1c.48.479.793.537,1.107.223s.258-.629-.221-1.109l-2.18-2.18C1058.782,2193.018,1058.579,2193.553,1059.262,2194.238Z" fill="#7b858f"/>
      <path id="Path_1214" data-name="Path 1214" d="M1050.686,2165.517l-24.124,23.73v33.265h47.81v-33.265Zm-9.61,52.723-5.741-3.3-.018.017,4.52,4.52-2.132,2.13-10.286-10.286,2.132-2.129,5.064,5.063-1.872-4.018,2.168-2.168,2.184,4.593,6.279,3.278Zm5.638-5.214c-1.44,1.441-3.435,2.03-5.024.442l-3.9-3.9c-1.606-1.606-1.016-3.6.425-5.041s3.435-2.032,5.023-.444l3.915,3.914v-.035h0C1048.764,2209.571,1048.174,2211.566,1046.714,2213.026Zm1.131-5.9-3.694-3.694c-1.422-1.422-1.44-3.4.259-5.1,1.44-1.44,3.269-2.125,5.116-.278l.647.647-2.125,2.123-.978-.979c-.314-.313-.721-.5-1.109-.11-.369.369-.186.775.128,1.089l4.341,4.341c.313.314.72.5,1.126.13.369-.369.186-.775-.148-1.107l-1.42-1.422,2.123-2.125,1.257,1.257.017.017c1.626,1.624,1.109,3.362-.461,4.931C1051.262,2208.517,1049.506,2208.794,1047.845,2207.13Zm5.088,3.7-1.545-1.544,3.967-3.969,1.545,1.545Zm4.972-9.422c-1.367,1.365-2.677.349-4.045-1.016l-4.062-4.065-.74.738-1.551-1.551.738-.738-2.13-2.127,2.163-2.159,2.13,2.128.83-.831,1.553,1.551-.833.83,3.842,3.842c.517.517,1.127,1.089,1.681.535l.221-.221,1.644,1.643Zm5.273-5.254-.5-.313a2.656,2.656,0,0,1-1,2.215,2.251,2.251,0,0,1-3.27-.276l-1.367-1.4c-2.216-2.291,1.533-4.675-.148-6.354-.351-.351-.665-.627-1.072-.221-.386.389-.2.8.148,1.147l.776.775-2.178,2.181-.776-.776c-1.46-1.458-.886-3.4.535-4.82,1.809-1.809,3.656-1.626,4.765-.517l6.225,6.223Zm.838-5.087-.7-.7,2.033-2.033.757.72c.462.424,1.036.592,1.4.259a.8.8,0,0,0-.11-1.182c-1.478-1.478-5.172,1.144-7.2-.888-1.571-1.569-1.237-3.453.163-4.856,1.646-1.643,3.787-1.608,4.951-.444l.607.61-2.012,2.015-.647-.685a.779.779,0,0,0-1.2-.055c-.333.333-.258.7.093,1.053.923.924,4.931-1.385,7.2.888,1.7,1.7,1.312,3.341-.535,5.187A3.167,3.167,0,0,1,1064.016,2191.07Zm5.02,3.655-1.545-1.544,3.968-3.97,1.545,1.545Z" fill="#7b858f"/>
    </g>
  </g>
</svg>
