<svg xmlns="http://www.w3.org/2000/svg" width="165" height="73" viewBox="0 0 165 73">
  <g id="KORD_SA" data-name="KORD SA" transform="translate(20911 2931)">
    <g id="Group_838" data-name="Group 838" transform="translate(-21535.094 -4996.8)">
      <path id="Path_801" data-name="Path 801" d="M641.318,2095.452h-5.563l-5.5,4.96h-2.111v-4.96h-4.047v13.3h4.047v-5.1h2.031l6,5.1h5.882l-8.374-6.718Z" fill="#7b858f" fill-rule="evenodd"/>
      <path id="Path_802" data-name="Path 802" d="M657.846,2095.491a44.077,44.077,0,0,0-5.862-.179,39.028,39.028,0,0,0-4.406.16c-2.033.216-3.328,1-3.825,2.372-.383,1-.441,1.613-.441,4.284a22.008,22.008,0,0,0,.139,3.153,3.645,3.645,0,0,0,1.915,2.967c1.137.541,2.272.64,6.877.64,2.252,0,3.846-.04,4.866-.12,2.19-.181,3.586-1.178,4.023-2.89a12.346,12.346,0,0,0,.324-3.671,19.981,19.981,0,0,0-.163-3.407A3.609,3.609,0,0,0,657.846,2095.491Zm-1.536,9.867c-.6.239-1.414.277-4.5.277-4.188,0-4.408-.176-4.408-3.624,0-2.137.22-2.811,1-3.153.578-.238,1.416-.3,3.907-.3,3.132,0,3.809.06,4.389.4s.736,1.013.736,2.967C657.427,2104.343,657.2,2105.019,656.31,2105.358Z" fill="#7b858f" fill-rule="evenodd"/>
      <path id="Path_803" data-name="Path 803" d="M681.407,2099.835c0-2.093-.5-3.288-1.589-3.866a8.159,8.159,0,0,0-3.694-.52H664.661v13.3h4.028v-3.35h6.2c1.1,0,1.416.04,1.737.259.357.258.493.677.493,1.439v1.652h4.109v-2.095a3.358,3.358,0,0,0-.4-1.972c-.4-.656-.958-.839-2.471-.938l-.658-.037a5.378,5.378,0,0,0,2.572-.72C681.029,2102.469,681.407,2101.41,681.407,2099.835Zm-6.4,2.312h-6.319v-3.428h6.459c1.215,0,1.535.061,1.855.379.26.279.338.637.338,1.576C677.341,2101.891,676.942,2102.147,675.008,2102.147Z" fill="#7b858f" fill-rule="evenodd"/>
      <path id="Path_804" data-name="Path 804" d="M696.221,2095.449H684.735v13.3h12.023c2.711,0,3.646-.239,4.5-1.137.978-1,1.259-2.255,1.259-5.5,0-3.089-.34-4.507-1.259-5.424S699.028,2095.449,696.221,2095.449Zm.995,9.969a3.98,3.98,0,0,1-1.655.159h-6.78v-6.817h6.859c2.333,0,2.814.579,2.814,3.35C698.454,2104.442,698.192,2105.119,697.216,2105.418Z" fill="#7b858f" fill-rule="evenodd"/>
      <path id="Path_805" data-name="Path 805" d="M743.576,2088.8a13.31,13.31,0,0,0-12.634,9.133,13.3,13.3,0,1,0,0,8.331,13.3,13.3,0,1,0,12.634-17.464Zm-20.47,19.849a49.686,49.686,0,0,1-5.586.2,22.806,22.806,0,0,1-5.342-.339c-1.493-.377-2.131-1.337-2.131-3.228,0-.142,0-.48.021-.782h3.965c.04,1,.182,1.237.779,1.378a18.022,18.022,0,0,0,2.531.141c4.765,0,5.262-.12,5.262-1.3,0-.677-.4-1.053-1.215-1.132a19.17,19.17,0,0,0-1.993-.042h-3.669a12.8,12.8,0,0,1-3.766-.34c-1.4-.477-1.957-1.494-1.957-3.591,0-2.648.859-3.726,3.33-4.045a34.44,34.44,0,0,1,4.986-.219c3.886,0,4.941.083,5.959.461,1.337.495,1.778,1.414,1.778,3.707h-3.95c0-1.155-.378-1.315-3.112-1.315-1.234,0-3.026.057-3.647.1-1,.082-1.354.36-1.354,1.1a1.019,1.019,0,0,0,.9,1.075,6.772,6.772,0,0,0,1.593.08h3.768c.238,0,1.037.019,2.113.062,2,.079,2.81.318,3.43,1.038a4.406,4.406,0,0,1,.819,2.97C726.615,2107.295,725.656,2108.39,723.106,2108.649Zm26.073.1-1.314-2.372H739.29l-1.275,2.372H733.43l7.475-13.3h5.425l7.277,13.3Z" fill="#7b858f" fill-rule="evenodd"/>
      <path id="Path_806" data-name="Path 806" d="M740.745,2103.6h5.7l-2.87-5.3Z" fill="#7b858f" fill-rule="evenodd"/>
    </g>
    <rect id="Rectangle_584" data-name="Rectangle 584" width="165" height="73" transform="translate(-20911 -2931)" fill="none"/>
  </g>
</svg>
