<svg xmlns="http://www.w3.org/2000/svg" width="165" height="73" viewBox="0 0 165 73">
  <g id="MIELE_LOGO" data-name="MIELE LOGO" transform="translate(20732 2931)">
    <g id="Group_841" data-name="Group 841" transform="translate(-21552.422 -4997.039)">
      <path id="Path_807" data-name="Path 807" d="M913.787,2120.907v-9.527h2.038v7.8h3.253v1.732Zm-10.763,0,3.624-9.527h2.331l3.675,9.527h-2.316l-.775-2.024h-3.69l-.663,2.024Zm6.063-3.626-1.067-3.078c-.03-.091-.068-.246-.116-.468s-.1-.492-.149-.814c-.058.309-.112.584-.161.832s-.093.408-.119.49l-1.029,3.038Zm-16.18,3.626v-9.527h2.114l4.218,5.543a4.6,4.6,0,0,1,.4.661c.145.283.295.62.454,1.005-.049-.282-.085-.562-.106-.839s-.032-.624-.032-1.042v-5.328H901.9v9.527h-2l-4.334-5.649a4.009,4.009,0,0,1-.4-.661c-.144-.282-.295-.623-.457-1.017a8.1,8.1,0,0,1,.1.83c.022.28.034.63.034,1.057v5.44Zm-6.66-1.562a2.784,2.784,0,0,0,2.138-.91,3.479,3.479,0,0,0-.01-4.55,2.937,2.937,0,0,0-4.275,0,3.493,3.493,0,0,0-.013,4.559,2.811,2.811,0,0,0,2.16.9m5.074-3.184a4.937,4.937,0,0,1-.378,1.932,4.757,4.757,0,0,1-1.1,1.6,5.276,5.276,0,0,1-1.672,1.086,5.087,5.087,0,0,1-1.926.377,5.028,5.028,0,0,1-1.707-.3,5.259,5.259,0,0,1-1.533-.85,4.84,4.84,0,0,1-1.377-1.711,4.9,4.9,0,0,1-.477-2.141,4.955,4.955,0,0,1,.377-1.929,4.768,4.768,0,0,1,1.107-1.6,5.09,5.09,0,0,1,1.66-1.079,5.17,5.17,0,0,1,1.95-.384,5.078,5.078,0,0,1,1.934.384,5.172,5.172,0,0,1,1.664,1.079,4.758,4.758,0,0,1,1.1,1.609,4.906,4.906,0,0,1,.377,1.924m-13.829-4.781h2.036v9.527h-2.036Zm-8.249,8.313,1.134-1.279a1.738,1.738,0,0,0,.691.829,1.93,1.93,0,0,0,1.067.3,1.755,1.755,0,0,0,1.131-.337,1.113,1.113,0,0,0,.416-.911c0-.45-.464-.9-1.384-1.345-.3-.146-.535-.262-.71-.354a5.293,5.293,0,0,1-1.731-1.27,2.347,2.347,0,0,1-.482-1.482,2.385,2.385,0,0,1,.934-1.936,3.723,3.723,0,0,1,2.422-.757,3.4,3.4,0,0,1,1.494.3,3.053,3.053,0,0,1,1.109.948l-1.2,1.151a1.489,1.489,0,0,0-.568-.621,1.691,1.691,0,0,0-.855-.2,1.493,1.493,0,0,0-.976.3.972.972,0,0,0-.37.785c0,.5.492.962,1.47,1.378l.45.2a5.01,5.01,0,0,1,1.791,1.249,2.4,2.4,0,0,1,.581,1.587,2.681,2.681,0,0,1-.915,2.137,3.6,3.6,0,0,1-2.457.8,4.289,4.289,0,0,1-1.873-.377,2.534,2.534,0,0,1-1.165-1.089m-7.595,0,1.134-1.279a1.734,1.734,0,0,0,.689.829,1.934,1.934,0,0,0,1.066.3,1.761,1.761,0,0,0,1.133-.337,1.115,1.115,0,0,0,.415-.911c0-.45-.462-.9-1.384-1.345-.3-.146-.535-.262-.71-.354a5.293,5.293,0,0,1-1.731-1.27,2.347,2.347,0,0,1-.482-1.482,2.388,2.388,0,0,1,.934-1.936,3.725,3.725,0,0,1,2.422-.757,3.4,3.4,0,0,1,1.494.3,3.037,3.037,0,0,1,1.109.948l-1.2,1.151a1.482,1.482,0,0,0-.571-.621,1.677,1.677,0,0,0-.854-.2,1.493,1.493,0,0,0-.976.3.972.972,0,0,0-.37.785q0,.754,1.471,1.378l.448.2a5.014,5.014,0,0,1,1.792,1.249,2.394,2.394,0,0,1,.583,1.587,2.685,2.685,0,0,1-.917,2.137,3.6,3.6,0,0,1-2.455.8,4.285,4.285,0,0,1-1.874-.377,2.536,2.536,0,0,1-1.164-1.089m-7.131,1.214v-9.527h5.609v1.717h-3.573v1.96h3.573v1.732h-3.573v2.386h3.573v1.732Zm-7.717,0v-9.527h5.608v1.717h-3.572v1.96h3.572v1.732h-3.572v4.118Zm-6.526-1.562a2.787,2.787,0,0,0,2.139-.91,3.482,3.482,0,0,0-.01-4.55,2.939,2.939,0,0,0-4.276,0,3.492,3.492,0,0,0-.013,4.559,2.812,2.812,0,0,0,2.16.9m5.075-3.184a4.975,4.975,0,0,1-.379,1.932,4.758,4.758,0,0,1-1.1,1.6,5.284,5.284,0,0,1-1.671,1.086,5.092,5.092,0,0,1-1.927.377,5.032,5.032,0,0,1-1.707-.3,5.272,5.272,0,0,1-1.533-.85,4.84,4.84,0,0,1-1.377-1.711,4.9,4.9,0,0,1-.477-2.141,4.956,4.956,0,0,1,.377-1.929,4.754,4.754,0,0,1,1.107-1.6,5.084,5.084,0,0,1,1.661-1.079,5.168,5.168,0,0,1,1.949-.384,5.075,5.075,0,0,1,1.934.384,5.171,5.171,0,0,1,1.664,1.079,4.745,4.745,0,0,1,1.1,1.609,4.944,4.944,0,0,1,.378,1.924m-15.526-.722h.3a3.254,3.254,0,0,0,1.632-.27,1.052,1.052,0,0,0,.4-.939,1.133,1.133,0,0,0-.426-1,3.049,3.049,0,0,0-1.6-.294h-.3Zm4.854,5.468h-2.35l-2.5-4.451v4.451h-2.038v-9.527H830.7a4.2,4.2,0,0,1,2.6.673,2.407,2.407,0,0,1,.866,2.028,2.5,2.5,0,0,1-.592,1.679,2.306,2.306,0,0,1-1.529.812Zm-14.17,0v-9.527h2.342a4.388,4.388,0,0,1,2.767.716,2.659,2.659,0,0,1,.895,2.212,2.735,2.735,0,0,1-.9,2.174,3.665,3.665,0,0,1-2.495.786h-.559v3.639Zm2.049-5.227h.293a1.772,1.772,0,0,0,1.209-.344,1.439,1.439,0,0,0,.377-1.106,1.276,1.276,0,0,0-.377-1.024,1.842,1.842,0,0,0-1.209-.322h-.293Z" fill="#7b858f"/>
      <g id="Group_840" data-name="Group 840">
        <path id="Path_808" data-name="Path 808" d="M875.337,2092.78a1.309,1.309,0,0,0-1.277,1.276v1.649h2.568v-1.642A1.3,1.3,0,0,0,875.337,2092.78Z" fill="#7b858f" fill-rule="evenodd"/>
        <path id="Path_809" data-name="Path 809" d="M906.834,2092.78a1.309,1.309,0,0,0-1.277,1.276v1.649h2.567v-1.642A1.3,1.3,0,0,0,906.834,2092.78Z" fill="#7b858f" fill-rule="evenodd"/>
        <path id="Path_810" data-name="Path 810" d="M820.422,2083.039v24.249h98.646v-24.249Zm40.82,3.385,1.193,2.267-3.765,1.965-1.193-2.292Zm-9.1,3.226H850.3v10.5h1.847v2.573H840.171v-2.573h1.848v-6.807l-6.8,9.38-6.829-9.38v6.807h1.847v2.573h-6.618v-2.573h1.824v-10.5h-1.824v-2.572h10.454l4.443,6.1,4.42-6.1h9.214Zm13.635,13.075H853.8v-2.573h1.848v-6.62H853.8v-2.572h10.127v9.192h1.848Zm18.357-5.005H874.06v1.2a2.121,2.121,0,0,0,2.339,1.934,3.063,3.063,0,0,0,3.037-2.2h4.583c-.682,2.123-3.5,4.644-8.675,4.644-6.748,0-8.863-3.654-8.863-6.448,0-2.981,2.442-6.526,8.851-6.526,5.541,0,8.854,3.211,8.854,6.527A6.246,6.246,0,0,1,884.137,2097.72Zm13.121,5H884.931v-2.571h1.826v-10.5h-1.826v-2.572H895.41v13.075h1.848Zm18.376-5H905.557v1.2a2.121,2.121,0,0,0,2.339,1.934,3.065,3.065,0,0,0,3.038-2.2h4.581c-.681,2.123-3.5,4.644-8.674,4.644-6.748,0-8.863-3.654-8.863-6.448,0-2.981,2.442-6.526,8.852-6.526,5.539,0,8.852,3.211,8.852,6.527A6.363,6.363,0,0,1,915.634,2097.72Z" fill="#7b858f" fill-rule="evenodd"/>
      </g>
    </g>
    <rect id="Rectangle_585" data-name="Rectangle 585" width="165" height="73" transform="translate(-20732 -2931)" fill="none"/>
  </g>
</svg>
