<svg xmlns="http://www.w3.org/2000/svg" width="165" height="73" viewBox="0 0 165 73">
  <g id="PO_LOGO" data-name="PO LOGO" transform="translate(20192 2839)">
    <rect id="Rectangle_604" data-name="Rectangle 604" width="165" height="73" transform="translate(-20192 -2839)" fill="none"/>
    <g id="Group_930" data-name="Group 930" transform="translate(-17.225 -0.343)">
      <path id="Path_1244" data-name="Path 1244" d="M1417.374,2194.317a1.851,1.851,0,1,0,1.851,1.852A1.851,1.851,0,0,0,1417.374,2194.317Z" transform="translate(-21518.502 -4996.301)" fill="#7b858f"/>
      <path id="Path_1245" data-name="Path 1245" d="M1400.341,2194.176a1.865,1.865,0,0,0-1.753,1.125h3.446A1.654,1.654,0,0,0,1400.341,2194.176Z" transform="translate(-21518.502 -4996.301)" fill="#7b858f"/>
      <path id="Path_1246" data-name="Path 1246" d="M1392.525,2191.2h-1.471v3.809h1.471a1.9,1.9,0,1,0,0-3.809Z" transform="translate(-21518.502 -4996.301)" fill="#7b858f"/>
      <path id="Path_1247" data-name="Path 1247" d="M1433.313,2191.142a3.388,3.388,0,1,0,3.387,3.389A3.389,3.389,0,0,0,1433.313,2191.142Z" transform="translate(-21518.502 -4996.301)" fill="#7b858f"/>
      <path id="Path_1248" data-name="Path 1248" d="M1343.726,2184.644l8.791,15.234a7.007,7.007,0,0,0,6.074,3.507h12.427v-2.964a3.562,3.562,0,0,0-3.563-3.562h-2.421a1.635,1.635,0,0,1-1.535-.887l-.513-.885h3.8l-.512-.886a1.942,1.942,0,0,0-1.742-.887h-1.538a1.632,1.632,0,0,1-1.543-.886l-1.023-1.772h6.507s.407-1.33,1.468-1.33h3.222a1.283,1.283,0,0,0,1.283-1.235v-2.51l8.354,14.473a6.651,6.651,0,0,0,5.77,3.331h87.241v-18.741Zm17.244,9.411c3.863-.7,4.644.505,4.644.505-2.019-.785-2.771.385-4.616.8a2.009,2.009,0,0,1-2.425-2.177A2.69,2.69,0,0,0,1360.97,2194.055Zm31.684,2.814h-1.6v2.663a.2.2,0,0,1-.195.2h-1.812v-10a.391.391,0,0,1,.391-.389h3.231a3.767,3.767,0,1,1-.015,7.533Zm11.345-.392a.389.389,0,0,1-.389.389H1398.5a1.8,1.8,0,0,0,1.9,1.295,1.942,1.942,0,0,0,.887-.208,1,1,0,0,1,.942.02l1.056.61a3.8,3.8,0,0,1-6.64-2.806,3.728,3.728,0,0,1,3.8-3.307,3.576,3.576,0,0,1,3.554,3.685Zm4.016-2.7a1.078,1.078,0,0,1-1.018.584h-.321v2.264c0,1.017.122,1.246,1.062,1.277a.285.285,0,0,1,.277.284v1.542h-.285c-2.263,0-3-.769-3-3.09v-4.668a1.2,1.2,0,0,1,.651-1.132l1.3-.753v2.525h2.012Zm4.421.725c-1.038,0-1.221.542-1.221,1.866v3.164a.2.2,0,0,1-.194.2h-1.755V2192.8a.2.2,0,0,1,.2-.195h1.74v1.168a2.009,2.009,0,0,1,1.966-1.168h1.1l-.728,1.262A1.164,1.164,0,0,1,1412.436,2194.5Zm4.938,5.367a3.7,3.7,0,1,1,3.7-3.7A3.7,3.7,0,0,1,1417.374,2199.869Zm6.507-.337a.2.2,0,0,1-.195.2h-1.755v-8.508a1.2,1.2,0,0,1,.652-1.135l1.3-.75Zm9.432.337a5.338,5.338,0,1,1,5.338-5.338A5.337,5.337,0,0,1,1433.313,2199.869Zm8.821-7.259h1.011l-.67,1.162a1.071,1.071,0,0,1-1.013.582h-.006v3.564a1.95,1.95,0,0,1-1.949,1.951V2191.2a1.863,1.863,0,0,1,1.862-1.862h2.231l-.728,1.263a1.165,1.165,0,0,1-1.1.631h0a.3.3,0,0,0-.306.306v1.162A2.436,2.436,0,0,1,1442.134,2192.61Zm3.809,6.922a.2.2,0,0,1-.2.2h-1.754V2193a.39.39,0,0,1,.389-.391h1.561Zm-.975-8.089a1.054,1.054,0,1,1,1.054-1.054A1.054,1.054,0,0,1,1444.968,2191.443Zm5,8.426a3.141,3.141,0,0,1-3.274-1.92l1.133-.443a.98.98,0,0,1,1.058.238,1.567,1.567,0,0,0,1.168.445c.642,0,.983-.3.983-.639,0-.386-.7-.5-1.523-.656-1.282-.228-2.562-.668-2.562-2.192,0-1.2,1.151-2.262,2.919-2.235a3.071,3.071,0,0,1,3.017,1.652l-1.033.435a.965.965,0,0,1-1.008-.157,1.506,1.506,0,0,0-.992-.336c-.642,0-.926.271-.926.583s.413.429,1.481.642c1.2.242,2.576.669,2.576,2.205C1452.989,2198.531,1452.021,2199.9,1449.972,2199.869Zm5.813-.337a.2.2,0,0,1-.194.2h-1.755V2193a.389.389,0,0,1,.39-.391h1.559Zm-.974-8.089a1.054,1.054,0,1,1,1.054-1.054A1.052,1.052,0,0,1,1454.811,2191.443Z" transform="translate(-21518.502 -4996.301)" fill="#7b858f"/>
    </g>
  </g>
</svg>
