<svg xmlns="http://www.w3.org/2000/svg" width="165" height="73" viewBox="0 0 165 73">
  <g id="UNITED_LOGO" data-name="UNITED LOGO" transform="translate(20192 2931)">
    <rect id="Rectangle_599" data-name="Rectangle 599" width="165" height="73" transform="translate(-20192 -2931)" fill="none"/>
    <g id="Group_881" data-name="Group 881" transform="translate(-21545.416 -4996.324)">
      <path id="Path_1222" data-name="Path 1222" d="M1406.776,2080.324v13.34h4.448v-8.893h4.447v11.118a6.672,6.672,0,0,1-13.342,0v-15.565h-4.445v15.565a11.117,11.117,0,1,0,22.232.338c0-.113,0-.225,0-.338v-15.565Z" fill="#7b858f"/>
      <path id="Path_1223" data-name="Path 1223" d="M1353.415,2120.9v-5.08h1.548v5.02c0,1.642.844,2.512,2.233,2.512s2.22-.821,2.22-2.447v-5.085h1.549v5.007c0,2.638-1.49,3.962-3.8,3.962S1353.415,2123.456,1353.415,2120.9Z" fill="#7b858f"/>
      <path id="Path_1224" data-name="Path 1224" d="M1364.114,2115.816h1.438l4.744,6.1v-6.1h1.525v8.83h-1.29l-4.881-6.288v6.283h-1.526Z" fill="#7b858f"/>
      <path id="Path_1225" data-name="Path 1225" d="M1375.18,2115.816h1.548v8.83h-1.548Z" fill="#7b858f"/>
      <path id="Path_1226" data-name="Path 1226" d="M1382.27,2117.248h-2.8v-1.432h7.165v1.437h-2.8v7.393h-1.564Z" fill="#7b858f"/>
      <path id="Path_1227" data-name="Path 1227" d="M1389.286,2115.816h6.546v1.388h-4.995v2.295h4.427v1.389h-4.427v2.372h5.059v1.386h-6.61Z" fill="#7b858f"/>
      <path id="Path_1228" data-name="Path 1228" d="M1398.749,2115.816h3.3a4.4,4.4,0,0,1,4.693,4.388v.026a4.421,4.421,0,0,1-4.693,4.413h-3.3Zm1.548,1.412v6.006h1.748a2.878,2.878,0,0,0,3.064-2.979v-.023a2.9,2.9,0,0,0-3.064-3Z" fill="#7b858f"/>
      <path id="Path_1229" data-name="Path 1229" d="M1414.03,2120.25v-.023a4.5,4.5,0,0,1,4.428-4.569h.125a4.757,4.757,0,0,1,3.394,1.2l-.983,1.172a3.459,3.459,0,0,0-2.473-.944,2.986,2.986,0,0,0-2.865,3.115v.026a2.956,2.956,0,0,0,3,3.154,3.592,3.592,0,0,0,2.13-.671v-1.652h-2.256v-1.35h3.758v3.709a5.615,5.615,0,0,1-3.683,1.376A4.382,4.382,0,0,1,1414.03,2120.25Z" fill="#7b858f"/>
      <path id="Path_1230" data-name="Path 1230" d="M1425.322,2115.816h3.937a3.554,3.554,0,0,1,2.547.882,2.67,2.67,0,0,1,.731,1.905v.026a2.649,2.649,0,0,1-2.093,2.674l2.385,3.343h-1.843l-2.169-3.077h-1.943v3.077h-1.549Zm3.823,4.388c1.11,0,1.807-.581,1.807-1.477v-.026c0-.944-.681-1.463-1.828-1.463h-2.258v2.966Z" fill="#7b858f"/>
      <path id="Path_1231" data-name="Path 1231" d="M1435.061,2120.25v-.023a4.618,4.618,0,1,1,9.236-.026h0v.026a4.618,4.618,0,0,1-9.236.023Zm7.607,0v-.023a3.023,3.023,0,0,0-3-3.141,2.981,2.981,0,0,0-2.976,3.115v.026a3.015,3.015,0,0,0,3,3.128,2.973,2.973,0,0,0,2.976-3.1Z" fill="#7b858f"/>
      <path id="Path_1232" data-name="Path 1232" d="M1447.048,2120.9v-5.08h1.549v5.02c0,1.642.847,2.512,2.236,2.512s2.219-.821,2.219-2.447v-5.085h1.549v5.007c0,2.638-1.489,3.962-3.8,3.962S1447.048,2123.456,1447.048,2120.9Z" fill="#7b858f"/>
      <path id="Path_1233" data-name="Path 1233" d="M1457.75,2115.816h3.48c2.065,0,3.355,1.174,3.355,2.953v.025c0,1.98-1.587,3.015-3.531,3.015H1459.3v2.84h-1.549Zm3.356,4.592c1.172,0,1.905-.656,1.905-1.577v-.026c0-1.033-.746-1.577-1.905-1.577H1459.3v3.18Z" fill="#7b858f"/>
      <rect id="Rectangle_610" data-name="Rectangle 610" width="66.704" height="0.444" transform="translate(1375.649 2111.11)" fill="#7b858f"/>
    </g>
  </g>
</svg>
